<?xml version="1.0" encoding="utf-8"?>
<!-- Generator: Adobe Illustrator 21.1.0, SVG Export Plug-In . SVG Version: 6.00 Build 0)  -->
<svg version="1.1" id="商业" xmlns="http://www.w3.org/2000/svg" xmlns:xlink="http://www.w3.org/1999/xlink" x="0px" y="0px"
	 viewBox="0 0 300 44" style="enable-background:new 0 0 300 44;" xml:space="preserve">
<style type="text/css">
	.st0{fill:none;}
	.st1{fill:#D2D1D1;}
	.st2{fill:#FFCB0F;}
</style>
<path id="bg" class="st0" d="M150,44H0V0h300v44H150z"/>
<path id="商业_business" class="st1" d="M42,37H13v-1h3V13h1v0.4l8-5.3V8h0.1l0.6-0.4L26,8h1v28h1V13h7V7h1v6h6v23h2v1H42z
	 M17.3,14.4L17,14v22h8V9.3L17.3,14.4z M41,14H29v16h3V18h2v12h3V18h1v12h3V14z M41,32H29v4h12V32z M19,29v-2h4v2H19z M19,24h4v1h-4
	V24z M19,20h4v2h-4V20z M61.7,20.3h5.2v-3.4h-5.2V20.3z M62.7,19.4v-1.6h3.3v1.6L62.7,19.4L62.7,19.4z M65,14.7c1,0.7,2,1.6,2.8,2.5
	l0.8-0.7c-0.9-0.9-1.9-1.7-2.9-2.4L65,14.7z M63.3,9.2c0.2,0.3,0.3,0.7,0.5,1.1h-5.7v1H61c0.3,0.5,0.5,1.1,0.7,1.7h-2.9v8.9h1v-8h9
	v6.4c0,0.5-0.2,0.8-0.6,0.8l-1.4,0l0.3,0.9h1.4c0.7,0,1.2-0.5,1.3-1.1c0-0.1,0-0.2,0-0.3v-7.5h-3.1c0.3-0.5,0.6-1.1,0.8-1.7h3v-1
	h-5.6c-0.1-0.4-0.3-0.8-0.5-1.3L63.3,9.2z M62.8,12.9c-0.2-0.6-0.4-1.1-0.7-1.7h4.2c-0.2,0.6-0.5,1.1-0.8,1.7H62.8L62.8,12.9z
	 M62.9,14.1C62,15,61.1,15.8,60,16.4l0.6,0.8c1.1-0.7,2.1-1.5,3-2.5L62.9,14.1z M76.3,20.4h-4.2v1h12.4v-1h-4.2V9.3h-1v11.1h-2V9.3
	h-1L76.3,20.4L76.3,20.4z M83.3,11.8c-0.5,2.2-1.2,4.3-2.1,6.3l0.9,0.3c0.9-2.1,1.6-4.2,2.1-6.4L83.3,11.8z M72.5,12.1
	c0.8,2.1,1.4,4.3,1.9,6.5l0.9-0.2c-0.5-2.2-1.2-4.4-2-6.5L72.5,12.1z M58.1,34.8H59v-1c0.4,0.8,1.2,1.2,2.1,1.2c0.8,0,1.6-0.3,2.1-1
	c0.5-0.7,0.7-1.5,0.7-2.3c0-0.8-0.2-1.6-0.7-2.3c-0.5-0.7-1.3-1-2.1-1c-0.9,0-1.7,0.5-2.1,1.3v-3.7h-1V34.8z M60.9,29.3
	c0.6,0,1.2,0.2,1.5,0.7c0.3,0.5,0.5,1.1,0.5,1.7c0,0.6-0.1,1.2-0.4,1.8c-0.3,0.5-0.9,0.8-1.5,0.7c-0.6,0-1.1-0.2-1.5-0.7
	C59.1,33,59,32.4,59,31.8v-0.1c0-0.6,0.2-1.2,0.5-1.8C59.8,29.5,60.3,29.2,60.9,29.3C60.9,29.3,60.9,29.3,60.9,29.3z M65.1,32.5
	c0,1.7,0.8,2.5,2.3,2.5c0.8,0,1.6-0.4,2-1.1v1h1v-6.2h-1v3.8c-0.1,0.5-0.3,0.9-0.6,1.3c-0.3,0.3-0.7,0.5-1.1,0.5
	c-0.5,0-0.9-0.1-1.2-0.4c-0.3-0.4-0.4-0.8-0.4-1.3v-3.8h-1L65.1,32.5L65.1,32.5z M74.3,28.5c-0.6,0-1.2,0.1-1.7,0.5
	c-0.4,0.3-0.7,0.7-0.7,1.2c0,0.5,0.3,1,0.7,1.2c0.5,0.3,1,0.4,1.5,0.6c0.5,0.1,0.9,0.2,1.3,0.4c0.3,0.1,0.6,0.4,0.6,0.8
	c0,0.7-0.6,1.1-1.7,1.1c-0.4,0-0.8-0.1-1.2-0.3c-0.3-0.3-0.5-0.7-0.5-1.1h-0.9c0.1,1.4,1,2.1,2.7,2.1c1.8,0,2.6-0.6,2.6-1.9
	c0-0.5-0.3-1-0.7-1.3c-0.5-0.3-1-0.5-1.6-0.6c-0.4-0.1-0.9-0.2-1.3-0.4c-0.3-0.1-0.5-0.4-0.5-0.7c0-0.3,0.2-0.5,0.4-0.6
	c0.3-0.2,0.7-0.3,1-0.2c0.4,0,0.8,0.1,1.1,0.3c0.3,0.2,0.4,0.5,0.5,0.8h0.9C76.6,29.1,75.8,28.5,74.3,28.5L74.3,28.5L74.3,28.5z
	 M78.9,26.3c-0.2,0-0.4,0.1-0.5,0.2c-0.1,0.1-0.2,0.3-0.2,0.5c0,0.2,0.1,0.4,0.2,0.5c0.3,0.3,0.7,0.3,1,0c0.1-0.1,0.2-0.3,0.2-0.5
	c0-0.2-0.1-0.4-0.2-0.5C79.2,26.4,79,26.3,78.9,26.3L78.9,26.3L78.9,26.3z M78.4,34.8h1v-6.2h-1V34.8z M84,28.5
	c-0.4,0-0.8,0.1-1.1,0.3c-0.3,0.2-0.6,0.5-0.8,0.8v-0.9h-1v6.2h1v-3.7c0-0.5,0.2-1,0.6-1.3c0.6-0.6,1.7-0.6,2.3,0
	c0.3,0.3,0.5,0.8,0.5,1.3v3.7h1V31C86.3,29.3,85.5,28.5,84,28.5L84,28.5L84,28.5z M90.6,28.5c-0.8,0-1.6,0.3-2.1,1
	c-0.5,0.6-0.8,1.5-0.8,2.3c0,0.9,0.2,1.7,0.8,2.4c0.5,0.6,1.3,0.9,2.1,0.9c0.7,0,1.4-0.2,2-0.7c0.4-0.4,0.7-0.9,0.8-1.5h-1
	c-0.1,0.4-0.3,0.7-0.6,1c-0.4,0.3-0.8,0.4-1.2,0.4c-0.5,0-1-0.2-1.4-0.6c-0.4-0.5-0.6-1-0.6-1.6h4.9c0-0.9-0.2-1.8-0.7-2.5
	C92.3,28.8,91.5,28.4,90.6,28.5L90.6,28.5L90.6,28.5z M90.6,29.3c1-0.1,1.9,0.7,2,1.7c0,0.1,0,0.2,0,0.3h-3.9c0-0.5,0.2-1,0.6-1.5
	C89.7,29.4,90.1,29.2,90.6,29.3L90.6,29.3L90.6,29.3z M97.3,28.5c-0.6,0-1.2,0.1-1.7,0.5c-0.4,0.3-0.7,0.7-0.7,1.2
	c0,0.5,0.3,1,0.7,1.2c0.5,0.3,1,0.4,1.5,0.6c0.5,0.1,0.9,0.2,1.3,0.4c0.3,0.1,0.6,0.4,0.6,0.8c0,0.7-0.6,1.1-1.7,1.1
	c-0.4,0-0.8-0.1-1.2-0.3c-0.3-0.3-0.5-0.7-0.5-1.1h-0.9c0.1,1.4,1,2.1,2.7,2.1c1.8,0,2.6-0.6,2.6-1.9c0-0.5-0.3-1-0.7-1.3
	c-0.5-0.3-1-0.5-1.6-0.6c-0.4-0.1-0.9-0.2-1.3-0.4c-0.3-0.1-0.5-0.4-0.5-0.7c0-0.3,0.2-0.5,0.4-0.6c0.3-0.2,0.7-0.3,1-0.2
	c0.4,0,0.8,0.1,1.1,0.3c0.3,0.2,0.4,0.5,0.5,0.8h0.9C99.6,29.1,98.8,28.5,97.3,28.5L97.3,28.5L97.3,28.5z M103.3,28.5
	c-0.6,0-1.2,0.1-1.7,0.5c-0.4,0.3-0.7,0.7-0.7,1.2c0,0.5,0.3,1,0.7,1.2c0.5,0.3,1,0.4,1.5,0.6c0.5,0.1,0.9,0.2,1.3,0.4
	c0.3,0.1,0.6,0.4,0.6,0.8c0,0.7-0.6,1.1-1.7,1.1c-0.4,0-0.8-0.1-1.2-0.3c-0.3-0.3-0.5-0.7-0.5-1.1h-0.9c0.1,1.4,1,2.1,2.7,2.1
	c1.8,0,2.6-0.6,2.6-1.9c0-0.5-0.3-1-0.7-1.3c-0.5-0.3-1-0.5-1.6-0.6c-0.4-0.1-0.9-0.2-1.3-0.4c-0.3-0.1-0.5-0.4-0.5-0.7
	c0-0.3,0.2-0.5,0.4-0.6c0.3-0.2,0.7-0.3,1-0.2c0.4,0,0.8,0.1,1.1,0.3c0.3,0.2,0.4,0.5,0.5,0.8h0.9C105.6,29.1,104.8,28.5,103.3,28.5
	L103.3,28.5L103.3,28.5z"/>
<path id="商业_business-2" class="st2" d="M192,37h-29v-1h3V13h1v0.4l8-5.3V8h0.1l0.6-0.4L176,8h1v28h1V13h7V7h1v6h6v23h2v1H192z
	 M167.3,14.4L167,14v22h8V9.3L167.3,14.4z M191,14h-12v16h3V18h2v12h3V18h1v12h3V14z M191,32h-12v4h12V32z M169,29v-2h4v2H169z
	 M169,24h4v1h-4V24z M169,20h4v2h-4V20z M211.7,20.3h5.2v-3.4h-5.2V20.3z M212.7,19.4v-1.6h3.3v1.6L212.7,19.4L212.7,19.4z
	 M215,14.7c1,0.7,2,1.6,2.8,2.5l0.8-0.7c-0.9-0.9-1.9-1.7-2.9-2.4L215,14.7z M213.3,9.2c0.2,0.3,0.3,0.7,0.5,1.1h-5.7v1h2.9
	c0.3,0.5,0.5,1.1,0.7,1.7h-3v8.9h1v-8h9v6.4c0,0.5-0.2,0.8-0.6,0.8l-1.4,0l0.3,0.9h1.4c0.7,0,1.2-0.5,1.3-1.1c0-0.1,0-0.2,0-0.3
	v-7.5h-3.1c0.3-0.5,0.6-1.1,0.8-1.7h3v-1h-5.6c-0.1-0.4-0.3-0.8-0.5-1.3L213.3,9.2z M212.8,12.9c-0.2-0.6-0.4-1.1-0.7-1.7h4.2
	c-0.2,0.6-0.5,1.1-0.8,1.7H212.8L212.8,12.9z M212.9,14.1c-0.8,0.9-1.8,1.7-2.9,2.3l0.6,0.8c1.1-0.7,2.1-1.5,3-2.5L212.9,14.1z
	 M226.3,20.4h-4.2v1h12.4v-1h-4.2V9.3h-1v11.1h-2V9.3h-1L226.3,20.4L226.3,20.4z M233.3,11.8c-0.5,2.2-1.2,4.3-2.1,6.3l0.9,0.3
	c0.9-2.1,1.6-4.2,2.1-6.4L233.3,11.8z M222.5,12.1c0.8,2.1,1.4,4.3,1.9,6.5l0.9-0.2c-0.5-2.2-1.2-4.4-2-6.5L222.5,12.1z M208.1,34.8
	h0.9v-1c0.4,0.8,1.2,1.2,2.1,1.2c0.8,0,1.6-0.3,2.1-1c0.5-0.7,0.7-1.5,0.7-2.3c0-0.8-0.2-1.6-0.7-2.3c-0.5-0.7-1.3-1-2.1-1
	c-0.9,0-1.7,0.5-2.1,1.3v-3.7h-1L208.1,34.8L208.1,34.8z M210.9,29.3c0.6,0,1.2,0.2,1.5,0.7c0.3,0.5,0.5,1.1,0.5,1.7
	c0,0.6-0.1,1.2-0.4,1.8c-0.3,0.5-0.9,0.8-1.5,0.7c-0.6,0-1.1-0.2-1.5-0.7c-0.3-0.5-0.5-1.1-0.5-1.7v-0.1c0-0.6,0.2-1.2,0.5-1.8
	C209.8,29.5,210.3,29.2,210.9,29.3L210.9,29.3L210.9,29.3z M215.1,32.5c0,1.7,0.8,2.5,2.3,2.5c0.8,0,1.6-0.4,2-1.1v1h1v-6.2h-1v3.8
	c-0.1,0.5-0.3,0.9-0.6,1.3c-0.3,0.3-0.7,0.5-1.1,0.5c-0.5,0-0.9-0.1-1.2-0.4c-0.3-0.4-0.4-0.8-0.4-1.3v-3.8h-1L215.1,32.5
	L215.1,32.5z M224.3,28.5c-0.6,0-1.2,0.1-1.7,0.5c-0.4,0.3-0.7,0.7-0.7,1.2c0,0.5,0.3,1,0.7,1.2c0.5,0.3,1,0.4,1.5,0.6
	c0.5,0.1,0.9,0.2,1.3,0.4c0.3,0.1,0.6,0.4,0.6,0.8c0,0.7-0.6,1.1-1.7,1.1c-0.4,0-0.8-0.1-1.2-0.3c-0.3-0.3-0.5-0.7-0.5-1.1h-0.9
	c0.1,1.4,1,2.1,2.7,2.1c1.8,0,2.6-0.6,2.6-1.9c0-0.5-0.3-1-0.7-1.3c-0.5-0.3-1-0.5-1.6-0.6c-0.4-0.1-0.9-0.2-1.3-0.4
	c-0.3-0.1-0.5-0.4-0.5-0.7c0-0.3,0.2-0.5,0.4-0.6c0.3-0.2,0.7-0.3,1-0.2c0.4,0,0.8,0.1,1.1,0.3c0.3,0.2,0.4,0.5,0.5,0.8h0.9
	C226.6,29.1,225.8,28.5,224.3,28.5L224.3,28.5L224.3,28.5z M228.9,26.3c-0.2,0-0.4,0.1-0.5,0.2c-0.1,0.1-0.2,0.3-0.2,0.5
	c0,0.2,0.1,0.4,0.2,0.5c0.3,0.3,0.7,0.3,1,0c0.1-0.1,0.2-0.3,0.2-0.5c0-0.2-0.1-0.4-0.2-0.5C229.2,26.4,229,26.3,228.9,26.3
	L228.9,26.3L228.9,26.3z M228.4,34.8h1v-6.2h-1V34.8z M234,28.5c-0.4,0-0.8,0.1-1.1,0.3c-0.3,0.2-0.6,0.5-0.8,0.8v-0.9h-1v6.2h1
	v-3.7c0-0.5,0.2-1,0.6-1.3c0.6-0.6,1.7-0.6,2.3,0c0.3,0.4,0.5,0.8,0.5,1.3v3.7h1V31C236.3,29.3,235.5,28.5,234,28.5L234,28.5
	L234,28.5z M240.6,28.5c-0.8,0-1.6,0.3-2.1,1c-0.5,0.6-0.8,1.5-0.8,2.3c0,0.9,0.2,1.7,0.8,2.4c0.5,0.6,1.3,0.9,2.1,0.9
	c0.7,0,1.4-0.2,2-0.7c0.4-0.4,0.7-0.9,0.8-1.5h-1c-0.1,0.4-0.3,0.7-0.6,1c-0.4,0.3-0.8,0.4-1.2,0.4c-0.5,0-1-0.2-1.4-0.6
	c-0.4-0.5-0.6-1-0.6-1.6h4.9c0-0.9-0.2-1.8-0.7-2.5C242.3,28.8,241.5,28.4,240.6,28.5L240.6,28.5L240.6,28.5z M240.6,29.3
	c1-0.1,1.9,0.7,2,1.7c0,0.1,0,0.2,0,0.3h-3.9c0-0.5,0.2-1,0.6-1.5C239.7,29.4,240.1,29.2,240.6,29.3L240.6,29.3L240.6,29.3z
	 M247.3,28.5c-0.6,0-1.2,0.1-1.7,0.5c-0.4,0.3-0.7,0.7-0.7,1.2c0,0.5,0.3,1,0.7,1.2c0.5,0.3,1,0.4,1.5,0.6c0.5,0.1,0.9,0.2,1.3,0.4
	c0.3,0.1,0.6,0.4,0.6,0.8c0,0.7-0.6,1.1-1.7,1.1c-0.4,0-0.8-0.1-1.2-0.3c-0.3-0.3-0.5-0.7-0.5-1.1h-0.9c0.1,1.4,1,2.1,2.7,2.1
	c1.8,0,2.6-0.6,2.6-1.9c0-0.5-0.3-1-0.7-1.3c-0.5-0.3-1-0.5-1.6-0.6c-0.4-0.1-0.9-0.2-1.3-0.4c-0.3-0.1-0.5-0.4-0.5-0.7
	c0-0.3,0.2-0.5,0.4-0.6c0.3-0.2,0.7-0.3,1-0.2c0.4,0,0.8,0.1,1.1,0.3c0.3,0.2,0.4,0.5,0.5,0.8h0.9C249.6,29.1,248.8,28.5,247.3,28.5
	L247.3,28.5L247.3,28.5z M253.3,28.5c-0.6,0-1.2,0.1-1.7,0.5c-0.4,0.3-0.7,0.7-0.7,1.2c0,0.5,0.3,1,0.7,1.2c0.5,0.3,1,0.4,1.5,0.6
	c0.5,0.1,0.9,0.2,1.3,0.4c0.3,0.1,0.6,0.4,0.6,0.8c0,0.7-0.6,1.1-1.7,1.1c-0.4,0-0.8-0.1-1.2-0.3c-0.3-0.3-0.5-0.7-0.5-1.1h-0.9
	c0.1,1.4,1,2.1,2.7,2.1c1.8,0,2.6-0.6,2.6-1.9c0-0.5-0.3-1-0.7-1.3c-0.5-0.3-1-0.5-1.6-0.6c-0.4-0.1-0.9-0.2-1.3-0.4
	c-0.3-0.1-0.5-0.4-0.5-0.7c0-0.3,0.2-0.5,0.4-0.6c0.3-0.2,0.7-0.3,1-0.2c0.4,0,0.8,0.1,1.1,0.3c0.3,0.2,0.4,0.5,0.5,0.8h0.9
	C255.6,29.1,254.8,28.5,253.3,28.5L253.3,28.5L253.3,28.5z"/>
</svg>
