<svg xmlns="http://www.w3.org/2000/svg" width="25.5" height="28" viewBox="0 0 25.5 28">
  <metadata><?xpacket begin="﻿" id="W5M0MpCehiHzreSzNTczkc9d"?>
<x:xmpmeta xmlns:x="adobe:ns:meta/" x:xmptk="Adobe XMP Core 5.6-c138 79.159824, 2016/09/14-01:09:01        ">
   <rdf:RDF xmlns:rdf="http://www.w3.org/1999/02/22-rdf-syntax-ns#">
      <rdf:Description rdf:about=""/>
   </rdf:RDF>
</x:xmpmeta>
                                                                                                    
                                                                                                    
                                                                                                    
                                                                                                    
                                                                                                    
                                                                                                    
                                                                                                    
                                                                                                    
                                                                                                    
                                                                                                    
                                                                                                    
                                                                                                    
                                                                                                    
                                                                                                    
                                                                                                    
                                                                                                    
                                                                                                    
                                                                                                    
                                                                                                    
                                                                                                    
                           
<?xpacket end="w"?></metadata>
<defs>
    <style>
      .cls-1 {
        fill: #ccc;
        fill-rule: evenodd;
      }
    </style>
  </defs>
  <path id="空调" class="cls-1" d="M1160,855.952v16.193l4,3.465-0.6.78-3.4-2.541V878h-1.13v-4.383l-3.3,2.4L1155,875.3l3.87-3.252v-16.16l-4.18-3.5,0.62-.78,3.56,2.57V850H1160v4.383l3.41-2.4L1164,852.7Zm6.64,4.592-14.02,8.1-1,5.2-0.98-.132,0.5-4.212-3.59,2.075-0.09-.145-0.41-.721-0.07-.116,3.8-2.191-3.73-1.658,0.34-.849,4.75,1.722,13.99-8.08,0.94-5.367,0.99,0.15-0.45,4.363,3.62-2.09,0.07,0.116,0.41,0.721,0.09,0.145-3.8,2.192,3.78,1.756-0.32.866Zm-0.64,8.021-14.02-8.1-5,1.731-0.38-.913,3.9-1.67-3.59-2.076,0.08-.145,0.42-.721,0.06-.116,3.8,2.192-0.43-4.055,0.9-.135,0.89,4.974,13.99,8.08,5.12-1.87,0.37,0.932-4.01,1.792,3.62,2.09-0.06.116-0.42.721-0.08.145-3.8-2.191,0.37,4.153-0.91.152Z" transform="translate(-1146.59 -850)"/>
</svg>
