<svg xmlns="http://www.w3.org/2000/svg" width="36" height="28" viewBox="0 0 36 28">
  <metadata><?xpacket begin="﻿" id="W5M0MpCehiHzreSzNTczkc9d"?>
<x:xmpmeta xmlns:x="adobe:ns:meta/" x:xmptk="Adobe XMP Core 5.6-c138 79.159824, 2016/09/14-01:09:01        ">
   <rdf:RDF xmlns:rdf="http://www.w3.org/1999/02/22-rdf-syntax-ns#">
      <rdf:Description rdf:about=""/>
   </rdf:RDF>
</x:xmpmeta>
                                                                                                    
                                                                                                    
                                                                                                    
                                                                                                    
                                                                                                    
                                                                                                    
                                                                                                    
                                                                                                    
                                                                                                    
                                                                                                    
                                                                                                    
                                                                                                    
                                                                                                    
                                                                                                    
                                                                                                    
                                                                                                    
                                                                                                    
                                                                                                    
                                                                                                    
                                                                                                    
                           
<?xpacket end="w"?></metadata>
<defs>
    <style>
      .cls-1 {
        fill: #ccc;
        fill-rule: evenodd;
      }
    </style>
  </defs>
  <path id="沙发" class="cls-1" d="M436,865.95V875h-2v2h-2v-2H414v2h-2v-2h-2v-9.05a5.486,5.486,0,0,1,.5-10.95,5.424,5.424,0,0,1,1.5.233V849h22v6.233a5.424,5.424,0,0,1,1.5-.233A5.486,5.486,0,0,1,436,865.95ZM433,850H413v5.631A5.494,5.494,0,0,1,415.95,860H416v7h14v-7h0.05a5.494,5.494,0,0,1,2.95-4.369V850Zm2.5,6a4.5,4.5,0,0,0-4.5,4.5,4.576,4.576,0,0,0,.05.5H431v7H415v-7h-0.05a4.576,4.576,0,0,0,.05-0.5,4.5,4.5,0,1,0-5,4.45V865h1v9h24v-9h1v-0.05A4.488,4.488,0,0,0,435.5,856Z" transform="translate(-405 -849)"/>
</svg>
