<svg xmlns="http://www.w3.org/2000/svg" width="50" height="50" viewBox="0 0 50 50">
  <metadata><?xpacket begin="﻿" id="W5M0MpCehiHzreSzNTczkc9d"?>
<x:xmpmeta xmlns:x="adobe:ns:meta/" x:xmptk="Adobe XMP Core 5.6-c138 79.159824, 2016/09/14-01:09:01        ">
   <rdf:RDF xmlns:rdf="http://www.w3.org/1999/02/22-rdf-syntax-ns#">
      <rdf:Description rdf:about=""/>
   </rdf:RDF>
</x:xmpmeta>
                                                                                                    
                                                                                                    
                                                                                                    
                                                                                                    
                                                                                                    
                                                                                                    
                                                                                                    
                                                                                                    
                                                                                                    
                                                                                                    
                                                                                                    
                                                                                                    
                                                                                                    
                                                                                                    
                                                                                                    
                                                                                                    
                                                                                                    
                                                                                                    
                                                                                                    
                                                                                                    
                           
<?xpacket end="w"?></metadata>
<defs>
    <style>
      .cls-1 {
        fill: #ddd;
        fill-rule: evenodd;
      }
    </style>
  </defs>
  <path id="卫生间" class="cls-1" d="M1041,2697a25,25,0,1,1,25-25A25,25,0,0,1,1041,2697Zm0-49a24,24,0,1,0,24,24A24.006,24.006,0,0,0,1041,2648Zm11,27v2a5.964,5.964,0,0,1-3,5.17V2685l-2-2,0.3-.15a6.165,6.165,0,0,1-1.3.15h-10a6.165,6.165,0,0,1-1.3-.15l0.3,0.15-2,2v-2.83a5.964,5.964,0,0,1-3-5.17v-2a2,2,0,0,1,0-4v-8s0.12-3,3-3c2.06,0,2,1,2,1l-1,1a1.273,1.273,0,0,0-1-1,2.191,2.191,0,0,0-2,2v8h21A2,2,0,0,1,1052,2675Zm-16,7h10s5,0.31,5-7h-20S1030.31,2682,1036,2682Zm16-10h-22a1,1,0,0,0,0,2h22A1,1,0,0,0,1052,2672Zm-16.29-5.8-0.71.71-0.71-.71,0.1-.1a3.985,3.985,0,0,1,5.46-5.46l0.1-.1,0.71,0.71-0.71.71Zm0-4.24a2.971,2.971,0,0,0-.58,3.4l3.98-3.98A2.971,2.971,0,0,0,1035.71,2661.96Z" transform="translate(-1016 -2647)"/>
</svg>
