<?xml version="1.0" encoding="utf-8"?>
<!-- Generator: Adobe Illustrator 21.1.0, SVG Export Plug-In . SVG Version: 6.00 Build 0)  -->
<svg version="1.1" id="教育" xmlns="http://www.w3.org/2000/svg" xmlns:xlink="http://www.w3.org/1999/xlink" x="0px" y="0px"
	 viewBox="0 0 300 44" style="enable-background:new 0 0 300 44;" xml:space="preserve">
<style type="text/css">
	.st0{fill:none;}
	.st1{fill:#D2D1D1;}
	.st2{fill:#FFCB0F;}
</style>
<path id="bg" class="st0" d="M150,44H0V0h300v44H150z"/>
<path id="教育_education" class="st1" d="M36.1,21H41v-2h1v4c0,0,0.1,7-7,7H24c-7.1,0-7-7-7-7v-2c0,1.1-1,2.3-1,4s2,0.9,2,4
	s-2.1,5-3,5s-3,0.7-3-2s3.2-4.5,3-6s-1.3-1.1,0-3c0.7-1.4,1.1-2.9,1-4.5L10,16l19-7l19,7L36.1,21z M13,32c0,1.8,2.3,1.5,3,0
	s1.5-3.8,0-4C16,28,13,30.2,13,32z M18,23c0,5.6,6,6,6,6h11c0,0,6-0.4,6-6v-1h-5v-1l-7,3l-6-2.5V22h-5V23z M18,21h3.9L18,19.3V21z
	 M17,19h0.2H17L17,19z M13,16l16,7l16-7l-16-6L13,16z M70.8,23.1c-1-0.9-1.9-1.9-2.6-3.1c0.9-1.8,1.3-3.7,1.3-5.7h0.9v-1h-3.6
	c0.2-0.7,0.3-1.3,0.4-2l-1-0.2c-0.2,2.1-0.9,4-2,5.8l0.6,0.8c0.4-0.5,0.7-1,0.9-1.5c0.3,1.3,0.8,2.5,1.4,3.7
	c-0.8,1.3-1.9,2.4-3.2,3.1l0.6,0.9c1.3-0.8,2.4-1.8,3.2-3.1c0.7,1.1,1.6,2.2,2.5,3.1L70.8,23.1z M68.6,14.2c0,1.6-0.4,3.2-1,4.7
	c-0.6-1.2-1.1-2.5-1.4-3.9l0.3-0.8H68.6z M58.8,13.3h1.8v1.4h-2.5v0.9h3.5c-0.4,0.4-0.9,0.9-1.3,1.3h-1.5v0.9h0.3
	c-0.4,0.3-0.8,0.6-1.3,0.8l0.6,0.7c0.8-0.4,1.5-0.9,2.2-1.5h2.2c-0.5,0.5-0.9,0.9-1.5,1.3v1c-1.1,0.1-2.2,0.2-3.2,0.3l0.1,1
	c1-0.1,2-0.2,3.1-0.3v1.2c0.1,0.3-0.1,0.6-0.4,0.6c0,0-0.1,0-0.2,0c-0.3,0-0.7,0-1.3-0.1l0.3,0.9h1.4c0.6,0.1,1.1-0.3,1.2-0.9
	c0-0.1,0-0.2,0-0.3V21c0.8-0.1,1.7-0.3,2.5-0.5v-0.9c-0.8,0.2-1.7,0.4-2.5,0.5v-0.7c0.6-0.5,1.2-1.1,1.7-1.7V17h-2.4
	c0.4-0.4,0.7-0.8,1.1-1.3h1.8v-0.9h-1c0.6-0.8,1.1-1.7,1.6-2.6l-0.8-0.4c-0.5,1.1-1.2,2.1-1.9,3h-0.8v-1.4h1.5v-0.9h-1.5v-1.2h-1
	v1.2h-1.8V13.3L58.8,13.3z M72.1,13.3h3.7c-0.7,0.6-1.4,1.1-2.2,1.6c-0.2,0.1-0.3,0.1-0.5,0.1l0.2,0.9c3.9-0.1,6.9-0.3,9-0.5
	c0.4,0.4,0.7,0.7,1.1,1.1l0.8-0.6c-0.9-1-1.9-1.9-2.9-2.7h3.3v-1H79c-0.2-0.4-0.4-0.9-0.6-1.3l-1.2,0.2c0.2,0.4,0.4,0.7,0.6,1.1
	h-5.8L72.1,13.3L72.1,13.3z M81.2,13.3l-0.7,0.4c0.4,0.3,0.7,0.6,1.1,1c-2,0.2-4.2,0.3-6.8,0.4c0.8-0.5,1.6-1.1,2.2-1.8H81.2z
	 M81.5,19.7v1.1h-6.4v-1.1C75.2,19.7,81.5,19.7,81.5,19.7z M75.2,18.8v-1.2h6.4v1.2L75.2,18.8L75.2,18.8z M81.5,21.6v0.8
	c0,0.3-0.2,0.6-0.5,0.6c0,0-0.1,0-0.1,0l-1.4,0l0.3,1h1.4c0.6,0.1,1.2-0.3,1.3-1c0-0.1,0-0.2,0-0.3v-5.9h-8.4V24h1v-2.3
	C75.2,21.6,81.5,21.6,81.5,21.6z M60.6,30.5c-0.8,0-1.6,0.3-2.1,1c-0.5,0.6-0.8,1.5-0.8,2.3c0,0.9,0.2,1.7,0.8,2.4
	c0.5,0.6,1.3,0.9,2.1,0.9c0.7,0,1.4-0.2,2-0.7c0.4-0.4,0.7-0.9,0.8-1.5h-1c-0.1,0.4-0.3,0.7-0.6,1c-0.4,0.3-0.8,0.4-1.2,0.4
	c-0.5,0-1-0.2-1.4-0.6c-0.4-0.5-0.6-1-0.6-1.6h4.9c0-0.9-0.2-1.8-0.7-2.5C62.3,30.8,61.5,30.4,60.6,30.5L60.6,30.5L60.6,30.5z
	 M60.6,31.3c1-0.1,1.9,0.7,2,1.7c0,0.1,0,0.2,0,0.3h-3.9c0-0.5,0.2-1,0.6-1.5C59.7,31.4,60.1,31.2,60.6,31.3
	C60.7,31.3,60.7,31.3,60.6,31.3z M69.6,31.8c-0.4-0.8-1.2-1.3-2-1.3c-0.8,0-1.6,0.3-2.1,1c-0.5,0.6-0.7,1.4-0.7,2.3
	c0,0.8,0.2,1.6,0.7,2.3c0.5,0.7,1.3,1,2.1,1c0.9,0,1.7-0.4,2.1-1.2v1h0.9v-8.7h-1L69.6,31.8L69.6,31.8z M67.8,31.3
	c0.5,0,1,0.2,1.4,0.7c0.4,0.5,0.5,1.1,0.5,1.8v0.1c0,0.6-0.1,1.2-0.5,1.7c-0.3,0.5-0.9,0.7-1.5,0.7c-0.6,0-1.2-0.2-1.5-0.7
	c-0.3-0.5-0.5-1.1-0.4-1.8c0-0.6,0.1-1.2,0.5-1.7C66.6,31.5,67.2,31.2,67.8,31.3L67.8,31.3L67.8,31.3z M72.1,34.5
	c0,1.7,0.8,2.5,2.3,2.5c0.8,0,1.6-0.4,2-1.1v1h1v-6.2h-1v3.8c-0.1,0.5-0.3,0.9-0.6,1.3c-0.3,0.3-0.7,0.5-1.1,0.5
	c-0.5,0-0.9-0.1-1.2-0.4c-0.3-0.4-0.4-0.8-0.4-1.3v-3.8h-1L72.1,34.5L72.1,34.5z M81.7,30.5c-0.8,0-1.7,0.3-2.2,1
	c-0.5,0.7-0.8,1.5-0.7,2.3c0,0.8,0.2,1.6,0.7,2.3c0.5,0.6,1.3,1,2.2,0.9c0.7,0,1.3-0.2,1.8-0.6c0.5-0.5,0.8-1.1,0.9-1.8h-1
	c0,0.9-0.8,1.6-1.7,1.6c0,0-0.1,0-0.1,0c-0.6,0-1.1-0.2-1.4-0.7c-0.4-0.5-0.5-1.2-0.5-1.8c0-0.6,0.1-1.3,0.5-1.8
	c0.3-0.4,0.9-0.7,1.4-0.7c0.4,0,0.8,0.1,1.2,0.3c0.3,0.3,0.5,0.7,0.6,1.1h0.9c-0.1-0.7-0.4-1.3-0.9-1.7C83,30.6,82.4,30.4,81.7,30.5
	L81.7,30.5L81.7,30.5z M88.8,30.5c-0.7,0-1.3,0.1-1.8,0.5c-0.5,0.4-0.9,0.9-0.9,1.6h0.9c0-0.4,0.3-0.7,0.6-1
	c0.3-0.2,0.8-0.3,1.2-0.3c0.8-0.1,1.5,0.4,1.6,1.2c0,0.1,0,0.3,0,0.4V33l-1.5,0c-0.7,0-1.4,0.1-2.1,0.5c-0.6,0.3-1,1-0.9,1.7
	c0,0.5,0.2,1,0.6,1.3c0.4,0.3,0.9,0.5,1.5,0.5c0.5,0,1.1-0.1,1.5-0.4c0.4-0.2,0.7-0.5,1-0.8v1h0.9v-4c0-0.6-0.2-1.2-0.6-1.7
	C90.2,30.7,89.5,30.4,88.8,30.5L88.8,30.5L88.8,30.5z M90.3,34.3c0,0.5-0.2,1-0.6,1.3c-0.4,0.4-1,0.6-1.6,0.6
	c-0.3,0-0.7-0.1-0.9-0.3c-0.2-0.2-0.3-0.5-0.3-0.7c0-0.9,0.7-1.4,2.1-1.4l1.4,0L90.3,34.3L90.3,34.3z M93.8,29v1.6h-1.2v0.8h1.2v3.9
	c0,0.4,0.1,0.8,0.3,1.1c0.3,0.3,0.7,0.4,1.1,0.4h0.9V36h-0.8c-0.2,0-0.3,0-0.5-0.2c-0.1-0.1-0.2-0.3-0.1-0.5v-4h1.5v-0.8h-1.5v-2
	L93.8,29z M97.8,28.3c-0.2,0-0.4,0.1-0.5,0.2c-0.1,0.1-0.2,0.3-0.2,0.5c0,0.2,0.1,0.4,0.2,0.5c0.3,0.3,0.7,0.3,1,0
	c0.1-0.1,0.2-0.3,0.2-0.5c0-0.2-0.1-0.4-0.2-0.5C98.2,28.4,98,28.3,97.8,28.3L97.8,28.3L97.8,28.3z M97.4,36.8h1v-6.2h-1V36.8z
	 M102.8,30.5c-0.8,0-1.7,0.3-2.2,1c-0.5,0.6-0.8,1.5-0.8,2.3c0,0.8,0.3,1.7,0.8,2.3c0.6,0.6,1.4,1,2.2,1c0.9,0,1.7-0.3,2.2-1
	c1-1.4,1-3.3,0-4.6C104.5,30.8,103.7,30.4,102.8,30.5L102.8,30.5z M102.8,31.3c0.6,0,1.2,0.3,1.5,0.8c0.7,1,0.7,2.4,0,3.4
	c-0.4,0.5-0.9,0.8-1.5,0.8c-0.6,0-1.2-0.3-1.5-0.8c-0.7-1-0.7-2.4,0-3.4C101.6,31.5,102.2,31.2,102.8,31.3
	C102.8,31.3,102.8,31.3,102.8,31.3z M109.9,30.5c-0.4,0-0.8,0.1-1.1,0.3c-0.3,0.2-0.6,0.5-0.8,0.8v-0.9h-1v6.2h1v-3.7
	c0-0.5,0.2-1,0.6-1.3c0.6-0.6,1.7-0.6,2.3,0c0.3,0.4,0.5,0.8,0.5,1.3v3.7h1V33C112.3,31.3,111.5,30.5,109.9,30.5
	C109.9,30.5,109.9,30.5,109.9,30.5z"/>
<path id="教育_education-2" class="st2" d="M186.1,23h4.9v-2h1v4c0,0,0.1,7-7,7h-11c-7.1,0-7-7-7-7v-2c0,1.1-1,2.3-1,4s2,0.9,2,4
	s-2.1,5-3,5s-3,0.7-3-2s3.2-4.5,3-6s-1.3-1.1,0-3c0.7-1.4,1.1-2.9,1-4.5l-6-2.5l19-7l19,7L186.1,23z M163,34c0,1.8,2.3,1.5,3,0
	s1.5-3.8,0-4C166,30,163,32.2,163,34z M168,25c0,5.6,6,6,6,6h11c0,0,6-0.4,6-6v-1h-5v-1l-7,3l-6-2.5V24h-5V25z M168,23h3.9l-3.9-1.7
	V23z M167,21h0.2H167L167,21z M163,18l16,7l16-7l-16-6L163,18z M220.9,21.1c-1-0.9-1.9-1.9-2.6-3.1c0.9-1.8,1.3-3.7,1.3-5.7h0.9v-1
	h-3.6c0.2-0.7,0.3-1.3,0.4-2l-1-0.2c-0.2,2.1-0.9,4-2,5.8l0.6,0.8c0.4-0.5,0.7-1,0.9-1.5c0.3,1.3,0.8,2.5,1.4,3.7
	c-0.8,1.3-1.9,2.4-3.2,3.1l0.6,0.9c1.3-0.8,2.4-1.8,3.2-3.1c0.7,1.1,1.6,2.2,2.5,3.1L220.9,21.1z M218.6,12.2c0,1.6-0.4,3.2-1,4.7
	c-0.6-1.2-1.1-2.5-1.4-3.9l0.3-0.8H218.6z M208.8,11.3h1.8v1.4h-2.5v0.9h3.5c-0.4,0.4-0.9,0.9-1.3,1.3h-1.5v0.9h0.3
	c-0.4,0.3-0.8,0.6-1.3,0.8l0.6,0.7c0.8-0.4,1.5-0.9,2.2-1.5h2.2c-0.5,0.5-0.9,0.9-1.5,1.3v1c-1.1,0.1-2.2,0.2-3.2,0.3l0.1,1
	c1-0.1,2-0.2,3.1-0.3v1.2c0.1,0.3-0.1,0.6-0.4,0.6c0,0-0.1,0-0.2,0c-0.3,0-0.7,0-1.3-0.1l0.3,0.9h1.4c0.6,0.1,1.1-0.3,1.2-0.9
	c0-0.1,0-0.2,0-0.3V19c0.8-0.1,1.7-0.3,2.5-0.5v-0.9c-0.8,0.2-1.7,0.4-2.5,0.5v-0.7c0.6-0.5,1.2-1.1,1.7-1.7V15h-2.4
	c0.4-0.4,0.7-0.8,1.1-1.3h1.8v-0.9h-1c0.6-0.8,1.1-1.7,1.6-2.6l-0.8-0.4c-0.5,1.1-1.2,2.1-1.9,3h-0.8v-1.4h1.5v-0.9h-1.5V9.2h-1v1.2
	h-1.8L208.8,11.3L208.8,11.3z M222.1,11.3h3.7c-0.7,0.6-1.4,1.1-2.2,1.6c-0.2,0.1-0.3,0.1-0.5,0.1l0.2,0.9c3.9-0.1,6.9-0.3,9-0.5
	c0.4,0.4,0.7,0.7,1.1,1.1l0.8-0.6c-0.9-1-1.9-1.9-2.9-2.7h3.3v-1H229c-0.2-0.4-0.4-0.9-0.6-1.3l-1.2,0.2c0.2,0.4,0.4,0.7,0.6,1.1
	h-5.8L222.1,11.3L222.1,11.3z M231.2,11.3l-0.7,0.4c0.4,0.3,0.7,0.6,1.1,1c-2,0.2-4.2,0.3-6.8,0.4c0.8-0.5,1.6-1.1,2.2-1.8H231.2
	L231.2,11.3z M231.5,17.7v1.1h-6.4v-1.1C225.2,17.7,231.5,17.7,231.5,17.7z M225.2,16.8v-1.2h6.4v1.2L225.2,16.8L225.2,16.8z
	 M231.5,19.6v0.8c0,0.3-0.2,0.6-0.5,0.6c-0.1,0-0.1,0-0.2,0l-1.4,0l0.3,1h1.4c0.6,0.1,1.2-0.3,1.3-1c0-0.1,0-0.2,0-0.3v-5.9h-8.4V22
	h1v-2.3L231.5,19.6L231.5,19.6z M210.6,28.5c-0.8,0-1.6,0.3-2.1,1c-0.5,0.6-0.8,1.5-0.8,2.3c0,0.9,0.2,1.7,0.8,2.4
	c0.5,0.6,1.3,0.9,2.1,0.9c0.7,0,1.4-0.2,2-0.7c0.4-0.4,0.7-0.9,0.8-1.5h-1c-0.1,0.4-0.3,0.7-0.6,1c-0.4,0.3-0.8,0.4-1.2,0.4
	c-0.5,0-1-0.2-1.4-0.6c-0.4-0.5-0.6-1-0.6-1.6h4.9c0-0.9-0.2-1.8-0.7-2.5C212.3,28.8,211.5,28.4,210.6,28.5L210.6,28.5L210.6,28.5z
	 M210.7,29.3c1-0.1,1.9,0.7,2,1.7c0,0.1,0,0.2,0,0.3h-3.9c0-0.5,0.2-1,0.6-1.5C209.7,29.4,210.1,29.2,210.7,29.3L210.7,29.3
	L210.7,29.3z M219.7,29.8c-0.4-0.8-1.2-1.3-2.1-1.3c-0.8,0-1.6,0.3-2.1,1c-0.5,0.6-0.7,1.4-0.7,2.3c0,0.8,0.2,1.6,0.7,2.3
	c0.5,0.7,1.3,1,2.1,1c0.9,0,1.7-0.4,2.1-1.2v1h0.9v-8.7h-1L219.7,29.8L219.7,29.8z M217.8,29.3c0.5,0,1,0.2,1.4,0.7
	c0.4,0.5,0.5,1.1,0.5,1.8v0.1c0,0.6-0.1,1.2-0.5,1.7c-0.3,0.5-0.9,0.7-1.5,0.7c-0.6,0-1.2-0.2-1.5-0.7c-0.3-0.5-0.5-1.1-0.4-1.8
	c0-0.6,0.1-1.2,0.5-1.7C216.6,29.5,217.2,29.2,217.8,29.3L217.8,29.3L217.8,29.3z M222.1,32.5c0,1.7,0.8,2.5,2.3,2.5
	c0.8,0,1.6-0.4,2-1.1v1h1v-6.2h-1v3.8c-0.1,0.5-0.3,0.9-0.6,1.3c-0.3,0.3-0.7,0.5-1.1,0.5c-0.5,0-0.9-0.1-1.2-0.4
	c-0.3-0.4-0.4-0.8-0.4-1.3v-3.8h-1L222.1,32.5L222.1,32.5z M231.7,28.5c-0.8,0-1.7,0.3-2.2,1c-0.5,0.7-0.8,1.5-0.7,2.3
	c0,0.8,0.2,1.6,0.7,2.3c0.5,0.6,1.3,1,2.2,0.9c0.7,0,1.3-0.2,1.8-0.6c0.5-0.5,0.8-1.1,0.9-1.8h-1c0,0.9-0.8,1.6-1.7,1.6
	c0,0-0.1,0-0.1,0c-0.6,0-1.1-0.2-1.4-0.7c-0.4-0.5-0.5-1.2-0.5-1.8c0-0.6,0.1-1.3,0.5-1.8c0.3-0.4,0.9-0.7,1.4-0.7
	c0.4,0,0.8,0.1,1.2,0.3c0.3,0.3,0.5,0.7,0.6,1.1h0.9c-0.1-0.7-0.4-1.3-0.9-1.7C233,28.6,232.4,28.4,231.7,28.5L231.7,28.5
	L231.7,28.5z M238.8,28.5c-0.7,0-1.3,0.1-1.8,0.5c-0.5,0.4-0.9,0.9-0.9,1.6h0.9c0-0.4,0.3-0.7,0.6-1c0.3-0.2,0.8-0.3,1.2-0.3
	c0.8-0.1,1.5,0.4,1.6,1.2c0,0.1,0,0.3,0,0.4V31l-1.5,0c-0.7,0-1.4,0.1-2.1,0.5c-0.6,0.3-1,1-0.9,1.7c0,0.5,0.2,1,0.6,1.3
	c0.4,0.3,0.9,0.5,1.5,0.5c0.5,0,1.1-0.1,1.5-0.4c0.4-0.2,0.7-0.5,1-0.8v1h0.9v-4c0-0.6-0.2-1.2-0.6-1.7
	C240.2,28.7,239.5,28.4,238.8,28.5L238.8,28.5L238.8,28.5z M240.3,32.3c0,0.5-0.2,1-0.6,1.3c-0.4,0.4-1,0.6-1.6,0.6
	c-0.3,0-0.7-0.1-0.9-0.3c-0.2-0.2-0.3-0.5-0.3-0.7c0-0.9,0.7-1.4,2.1-1.4l1.4,0L240.3,32.3L240.3,32.3z M243.8,27v1.6h-1.2v0.8h1.2
	v3.9c0,0.4,0.1,0.8,0.3,1.1c0.3,0.3,0.7,0.4,1.1,0.4h0.9V34h-0.8c-0.2,0-0.3,0-0.5-0.2c-0.1-0.1-0.2-0.3-0.1-0.5v-4h1.5v-0.8h-1.5
	v-2L243.8,27z M247.8,26.3c-0.2,0-0.4,0.1-0.5,0.2c-0.1,0.1-0.2,0.3-0.2,0.5c0,0.2,0.1,0.4,0.2,0.5c0.3,0.3,0.7,0.3,1,0
	c0.1-0.1,0.2-0.3,0.2-0.5c0-0.2-0.1-0.4-0.2-0.5C248.2,26.4,248,26.3,247.8,26.3L247.8,26.3L247.8,26.3z M247.4,34.8h1v-6.2h-1V34.8
	z M252.8,28.5c-0.8,0-1.7,0.3-2.2,1c-0.5,0.6-0.8,1.5-0.8,2.3c0,0.8,0.3,1.7,0.8,2.3c0.6,0.6,1.4,1,2.2,1c0.9,0,1.7-0.3,2.2-1
	c1-1.4,1-3.3,0-4.6C254.5,28.8,253.7,28.4,252.8,28.5L252.8,28.5z M252.8,29.3c0.6,0,1.2,0.3,1.5,0.8c0.7,1,0.7,2.4,0,3.4
	c-0.4,0.5-0.9,0.8-1.5,0.8c-0.6,0-1.2-0.3-1.5-0.8c-0.7-1-0.7-2.4,0-3.4C251.6,29.5,252.2,29.2,252.8,29.3L252.8,29.3z M259.9,28.5
	c-0.4,0-0.8,0.1-1.1,0.3c-0.3,0.2-0.6,0.5-0.8,0.8v-0.9h-1v6.2h1v-3.7c0-0.5,0.2-1,0.6-1.3c0.6-0.6,1.7-0.6,2.3,0
	c0.3,0.4,0.5,0.8,0.5,1.3v3.7h1V31C262.3,29.3,261.5,28.5,259.9,28.5L259.9,28.5L259.9,28.5z"/>
</svg>
