<?xml version="1.0" encoding="utf-8"?>
<!-- Generator: Adobe Illustrator 21.1.0, SVG Export Plug-In . SVG Version: 6.00 Build 0)  -->
<svg version="1.1" id="Layer_1" xmlns="http://www.w3.org/2000/svg" xmlns:xlink="http://www.w3.org/1999/xlink" x="0px" y="0px"
	 viewBox="0 0 20 18" style="enable-background:new 0 0 20 18;" xml:space="preserve">
<style type="text/css">
	.st0{fill:#F5F5F5;}
</style>
<path id="local白色" class="st0" d="M8.2,12l0.5,1.2c-0.4,0.2-0.9,0.3-1.3,0.4L7,12.4C7.4,12.3,7.8,12.2,8.2,12L8.2,12z M4.4,13.6
	c0.5,0.1,0.9,0.2,1.4,0.2l0-1.3c-0.4,0-0.7-0.1-1.1-0.2L4.4,13.6z M14.3,11.3c0.4,0.1,0.7,0.2,1,0.4l0.6-1.1
	c-0.4-0.2-0.9-0.4-1.4-0.5L14.3,11.3z M11.7,10.3l0.4,1.2c0.4-0.1,0.7-0.2,1.1-0.2L13.1,10C12.6,10,12.1,10.1,11.7,10.3L11.7,10.3
	L11.7,10.3z M9.7,11.2c-0.1,0.1-0.3,0.2-0.4,0.3l0.6,1.1c0.2-0.1,0.3-0.2,0.5-0.3c0.2-0.1,0.4-0.3,0.6-0.4l-0.6-1.1
	C10.2,10.9,9.9,11.1,9.7,11.2L9.7,11.2L9.7,11.2z M13.1,3.2c0,0.5-0.1,1-0.3,1.5L10,10.3c0,0-2.8-5.7-2.8-5.7C7,4.2,6.9,3.7,6.9,3.2
	c0-1.7,1.3-3.2,3-3.2c1.7,0,3.2,1.3,3.2,3C13.1,3.1,13.1,3.2,13.1,3.2L13.1,3.2L13.1,3.2z M11.9,3.2c0-1-0.9-1.9-1.9-1.8
	c-1,0-1.9,0.9-1.8,1.9c0,1,0.9,1.8,1.9,1.8C11,5.1,11.9,4.3,11.9,3.2C11.9,3.2,11.9,3.2,11.9,3.2L11.9,3.2L11.9,3.2z M16.2,6.4h-2.9
	l-0.6,1.3h2.7l1.3,4.2l-0.4,0.5c0.3,0.2,0.5,0.5,0.7,0.8l0.1-0.1l1.2,3.6H1.7L3,12.9c0,0,0.1,0.1,0.1,0.1l0.7-1.1
	c-0.1-0.1-0.3-0.2-0.4-0.3l1.3-3.9h2.7c-0.3-0.5-0.5-1-0.6-1.3H3.8L0,18h20L16.2,6.4z M16.2,6.4L16.2,6.4z"/>
</svg>
