<svg xmlns="http://www.w3.org/2000/svg" width="31" height="29" viewBox="0 0 31 29">
  <metadata><?xpacket begin="﻿" id="W5M0MpCehiHzreSzNTczkc9d"?>
<x:xmpmeta xmlns:x="adobe:ns:meta/" x:xmptk="Adobe XMP Core 5.6-c138 79.159824, 2016/09/14-01:09:01        ">
   <rdf:RDF xmlns:rdf="http://www.w3.org/1999/02/22-rdf-syntax-ns#">
      <rdf:Description rdf:about=""/>
   </rdf:RDF>
</x:xmpmeta>
                                                                                                    
                                                                                                    
                                                                                                    
                                                                                                    
                                                                                                    
                                                                                                    
                                                                                                    
                                                                                                    
                                                                                                    
                                                                                                    
                                                                                                    
                                                                                                    
                                                                                                    
                                                                                                    
                                                                                                    
                                                                                                    
                                                                                                    
                                                                                                    
                                                                                                    
                                                                                                    
                           
<?xpacket end="w"?></metadata>
<defs>
    <style>
      .cls-1 {
        fill: #ccc;
        fill-rule: evenodd;
      }
    </style>
  </defs>
  <path id="油烟机" class="cls-1" d="M958,770v-5h6l6-7v-8h7v8l6,7h6v5H958Zm30-4h-6l-6-7v-8h-5v8l-6,7h-6v3h29v-3Zm-23,6a3.25,3.25,0,0,1,0,6v1h-1v-2s2-.333,2-2-2-2-2-2v-2h1v1Zm8,0a3.25,3.25,0,0,1,0,6v1h-1v-2s2-.333,2-2-2-2-2-2v-2h1v1Zm10,0a3.25,3.25,0,0,1,0,6v1h-1v-2s2-.333,2-2-2-2-2-2v-2h1v1Z" transform="translate(-958 -750)"/>
</svg>
