<?xml version="1.0" encoding="utf-8"?>
<!-- Generator: Adobe Illustrator 21.1.0, SVG Export Plug-In . SVG Version: 6.00 Build 0)  -->
<svg version="1.1" id="医疗" xmlns="http://www.w3.org/2000/svg" xmlns:xlink="http://www.w3.org/1999/xlink" x="0px" y="0px"
	 viewBox="0 0 300 44" style="enable-background:new 0 0 300 44;" xml:space="preserve">
<style type="text/css">
	.st0{fill:none;}
	.st1{fill:#D2D1D1;}
	.st2{fill:#FFCB0F;}
</style>
<path id="bg" class="st0" d="M150,44H0V0h300v44H150z"/>
<path id="医疗_medical" class="st1" d="M38,33H19c-1.7,0-3-1.3-3-3V17c0-1.7,1.3-3,3-3h4v-2c0-1.1,0.9-2,2-2h8c1.1,0,2,0.9,2,2v2
	h3c1.7,0,3,1.3,3,3v13C41,31.7,39.7,33,38,33z M34,12c0-0.6-0.4-1-1-1h-8c-0.6,0-1,0.4-1,1v2h10V12z M39,17c0-0.6-0.4-1-1-1H19
	c-0.6,0-1,0.4-1,1v13c0,0.6,0.4,1,1,1h19c0.6,0,1-0.4,1-1V17z M31,26v3h-4v-3h-3v-4h3v-3h4v3h3v4H31z M33,23h-3v-3h-2v3h-3v2h3v3h2
	v-3h3V23z M64.9,14.3v0.8c0,0.4,0,0.8-0.1,1.2h-4v1h3.8c-0.1,0.4-0.3,0.7-0.6,1.1c-0.9,0.9-2,1.6-3.3,1.9l0.5,0.9
	c1.3-0.3,2.5-1.1,3.5-2.1c0.4-0.5,0.7-1.1,0.9-1.8h4.2v-0.9h-4c0-0.3,0.1-0.7,0.1-1.2v-0.8h3v-0.9h-5.6c0.1-0.3,0.3-0.7,0.4-1.1
	L62.9,12c-0.4,1.2-1.1,2.3-2.1,3.1l0.8,0.7c0.5-0.4,0.9-1,1.3-1.5H64.9z M65.5,18.6c1.3,0.6,2.6,1.4,3.7,2.4l0.6-0.8
	c-1.2-0.9-2.4-1.7-3.8-2.3L65.5,18.6z M58.9,22.5h11.5v-1H59.9v-9.9H70v-0.9H58.9C58.9,10.6,58.9,22.5,58.9,22.5z M76.4,14.6h6
	c-0.8,0.7-1.7,1.3-2.6,1.9v4.8c0.1,0.4-0.2,0.7-0.6,0.8c-0.1,0-0.1,0-0.2,0c-0.4,0-0.9,0-1.5,0l0.2,0.9h1.7c0.7,0.1,1.3-0.3,1.4-1
	c0-0.1,0-0.2,0-0.3V17c1.1-0.7,2.1-1.5,3-2.4v-1h-7.4V14.6z M74.3,16.3c-0.8,0.6-1.6,1.2-2.5,1.7l0.3,1c0.7-0.4,1.4-1,2.1-1.5
	c-0.1,1.7-0.6,3.4-1.5,4.8l0.8,0.7c1.3-2.1,1.9-4.6,1.9-7.1v-3.5h9.1v-1H80c-0.1-0.4-0.3-0.9-0.4-1.3l-1,0.2
	c0.2,0.4,0.4,0.7,0.5,1.1h-4.8v4.5L74.3,16.3z M72,12.8c0.5,0.9,0.9,1.7,1.2,2.7l0.8-0.4c-0.3-0.9-0.7-1.8-1.2-2.6L72,12.8z
	 M60.8,29.5c-0.7,0-1.4,0.4-1.8,1v-0.8h-1v6.2h1v-3.8c0-0.5,0.1-0.9,0.4-1.2c0.3-0.3,0.7-0.5,1.1-0.5c0.8-0.1,1.4,0.5,1.5,1.3
	c0,0.1,0,0.2,0,0.4v3.9h1V32c0-0.4,0.1-0.9,0.4-1.2c0.3-0.3,0.6-0.5,1-0.5c0.4,0,0.9,0.1,1.2,0.4c0.3,0.4,0.4,0.8,0.3,1.2v3.9h1
	v-4.1c0-0.6-0.2-1.2-0.6-1.7c-0.4-0.4-1-0.6-1.6-0.6c-0.4,0-0.8,0.1-1.1,0.3c-0.4,0.2-0.7,0.5-0.9,0.9
	C62.4,29.9,61.6,29.4,60.8,29.5L60.8,29.5z M70.6,29.5c-0.8,0-1.6,0.3-2.1,1c-0.5,0.6-0.8,1.5-0.8,2.3c0,0.9,0.2,1.7,0.8,2.4
	c0.5,0.6,1.3,0.9,2.1,0.9c0.7,0,1.4-0.2,2-0.7c0.4-0.4,0.7-0.9,0.8-1.5h-1c-0.1,0.4-0.3,0.7-0.6,1c-0.4,0.3-0.8,0.4-1.2,0.4
	c-0.5,0-1-0.2-1.4-0.6c-0.4-0.5-0.6-1-0.6-1.6h4.9c0-0.9-0.2-1.8-0.7-2.5C72.3,29.8,71.5,29.4,70.6,29.5L70.6,29.5L70.6,29.5z
	 M70.6,30.3c1-0.1,1.9,0.7,2,1.7c0,0.1,0,0.2,0,0.3h-3.9c0-0.5,0.2-1,0.6-1.5C69.7,30.4,70.1,30.3,70.6,30.3L70.6,30.3L70.6,30.3z
	 M79.6,30.8c-0.4-0.8-1.2-1.3-2.1-1.3c-0.8,0-1.6,0.3-2.1,1c-0.5,0.6-0.7,1.4-0.7,2.3c0,0.8,0.2,1.6,0.7,2.3c0.5,0.7,1.3,1,2.1,1
	c0.9,0,1.7-0.4,2.1-1.2v1h0.9v-8.7h-1L79.6,30.8L79.6,30.8z M77.8,30.3c0.5,0,1,0.2,1.4,0.7c0.4,0.5,0.5,1.1,0.5,1.8v0.1
	c0,0.6-0.1,1.2-0.5,1.7c-0.3,0.5-0.9,0.7-1.5,0.7c-0.6,0-1.2-0.2-1.5-0.7c-0.3-0.5-0.5-1.1-0.4-1.8c0-0.6,0.1-1.2,0.5-1.7
	C76.6,30.5,77.2,30.2,77.8,30.3L77.8,30.3L77.8,30.3z M82.8,27.3c-0.2,0-0.4,0.1-0.5,0.2c-0.1,0.1-0.2,0.3-0.2,0.5
	c0,0.2,0.1,0.4,0.2,0.5c0.3,0.3,0.7,0.3,1,0c0.1-0.1,0.2-0.3,0.2-0.5c0-0.2-0.1-0.4-0.2-0.5C83.2,27.4,83,27.3,82.8,27.3L82.8,27.3z
	 M82.4,35.8h1v-6.2h-1V35.8z M87.7,29.5c-0.8,0-1.7,0.3-2.2,1c-0.5,0.7-0.8,1.5-0.7,2.3c0,0.8,0.2,1.6,0.7,2.3
	c0.5,0.6,1.3,1,2.2,0.9c0.7,0,1.3-0.2,1.8-0.6c0.5-0.5,0.8-1.1,0.9-1.8h-1c0,0.9-0.8,1.6-1.7,1.6c0,0-0.1,0-0.1,0
	c-0.6,0-1.1-0.2-1.4-0.7c-0.4-0.5-0.5-1.2-0.5-1.8c0-0.6,0.1-1.3,0.5-1.8c0.3-0.4,0.9-0.7,1.4-0.7c0.4,0,0.8,0.1,1.2,0.3
	c0.3,0.3,0.5,0.7,0.6,1.1h0.9c-0.1-0.7-0.4-1.3-0.9-1.7C89,29.6,88.4,29.4,87.7,29.5L87.7,29.5L87.7,29.5z M94.8,29.5
	c-0.7,0-1.3,0.1-1.8,0.5c-0.5,0.4-0.9,0.9-0.9,1.6h0.9c0-0.4,0.3-0.7,0.6-1c0.3-0.2,0.8-0.3,1.2-0.3c0.8-0.1,1.5,0.4,1.6,1.2
	c0,0.1,0,0.3,0,0.4V32l-1.5,0c-0.7,0-1.4,0.1-2.1,0.5c-0.6,0.3-1,1-0.9,1.7c0,0.5,0.2,1,0.6,1.3c0.4,0.3,0.9,0.5,1.5,0.5
	c0.5,0,1.1-0.1,1.5-0.4c0.4-0.2,0.7-0.5,1-0.8v1h0.9v-4c0-0.6-0.2-1.2-0.6-1.7C96.2,29.7,95.5,29.4,94.8,29.5L94.8,29.5L94.8,29.5z
	 M96.3,33.3c0,0.5-0.2,1-0.6,1.3c-0.4,0.4-1,0.6-1.6,0.6c-0.3,0-0.7-0.1-0.9-0.3c-0.2-0.2-0.3-0.5-0.3-0.7c0-0.9,0.7-1.4,2.1-1.4
	l1.4,0L96.3,33.3L96.3,33.3z M99.2,35.8h0.9v-8.7h-0.9V35.8z"/>
<path id="医疗_medical-2" class="st2" d="M188,34h-19c-1.7,0-3-1.3-3-3V18c0-1.7,1.3-3,3-3h4v-2c0-1.1,0.9-2,2-2h8
	c1.1,0,2,0.9,2,2v2h3c1.7,0,3,1.3,3,3v13C191,32.7,189.7,34,188,34z M184,13c0-0.6-0.4-1-1-1h-8c-0.6,0-1,0.4-1,1v2h10V13z M189,18
	c0-0.6-0.4-1-1-1h-19c-0.6,0-1,0.4-1,1v13c0,0.6,0.4,1,1,1h19c0.6,0,1-0.4,1-1V18z M181,27v3h-4v-3h-3v-4h3v-3h4v3h3v4H181z M183,24
	h-3v-3h-2v3h-3v2h3v3h2v-3h3V24z M214.9,13.3v0.8c0,0.4,0,0.8-0.1,1.2h-4v1h3.8c-0.1,0.4-0.3,0.7-0.6,1.1c-0.9,0.9-2,1.6-3.3,1.9
	l0.5,0.9c1.3-0.3,2.5-1.1,3.5-2.1c0.4-0.5,0.7-1.1,0.9-1.8h4.2v-0.9h-4c0-0.3,0.1-0.7,0.1-1.2v-0.8h3v-0.9h-5.6
	c0.1-0.3,0.3-0.7,0.4-1.1l-0.9-0.3c-0.4,1.2-1.1,2.3-2.1,3.1l0.8,0.7c0.5-0.4,0.9-1,1.3-1.5H214.9L214.9,13.3z M215.5,17.6
	c1.3,0.6,2.6,1.4,3.7,2.4l0.6-0.8c-1.2-0.9-2.4-1.7-3.8-2.3L215.5,17.6z M208.9,21.5h11.5v-1h-10.6v-9.9H220V9.6h-11.1V21.5z
	 M226.4,13.6h6c-0.8,0.7-1.7,1.3-2.6,1.9v4.8c0.1,0.4-0.2,0.7-0.6,0.8c-0.1,0-0.1,0-0.2,0c-0.4,0-0.9,0-1.5,0l0.2,0.9h1.7
	c0.7,0.1,1.3-0.3,1.4-1c0-0.1,0-0.2,0-0.3V16c1.1-0.7,2.1-1.5,3-2.4v-1h-7.4C226.4,12.7,226.4,13.6,226.4,13.6z M224.3,15.3
	c-0.8,0.6-1.6,1.2-2.4,1.7l0.3,1c0.7-0.4,1.4-1,2.1-1.5c-0.1,1.7-0.6,3.4-1.5,4.8l0.8,0.7c1.3-2.1,1.9-4.6,1.9-7.1v-3.5h9.1v-1H230
	c-0.1-0.4-0.3-0.9-0.4-1.3l-1,0.2c0.2,0.4,0.4,0.7,0.5,1.1h-4.8v4.5L224.3,15.3z M222,11.8c0.5,0.9,0.9,1.7,1.2,2.7l0.8-0.4
	c-0.3-0.9-0.7-1.8-1.2-2.6L222,11.8z M210.8,28.5c-0.7,0-1.4,0.4-1.8,1v-0.8h-1v6.2h1v-3.8c0-0.5,0.1-0.9,0.4-1.2
	c0.3-0.3,0.7-0.5,1.1-0.5c0.8-0.1,1.4,0.5,1.5,1.3c0,0.1,0,0.2,0,0.4v3.9h1V31c0-0.4,0.1-0.9,0.4-1.2c0.3-0.3,0.6-0.5,1-0.5
	c0.4,0,0.9,0.1,1.2,0.4c0.3,0.4,0.4,0.8,0.3,1.2v3.9h1v-4.1c0-0.6-0.2-1.2-0.6-1.7c-0.4-0.4-1-0.6-1.6-0.6c-0.4,0-0.8,0.1-1.1,0.3
	c-0.4,0.2-0.7,0.5-0.9,0.9C212.4,28.9,211.6,28.4,210.8,28.5L210.8,28.5L210.8,28.5z M220.6,28.5c-0.8,0-1.6,0.3-2.1,1
	c-0.5,0.6-0.8,1.5-0.8,2.3c0,0.9,0.2,1.7,0.8,2.4c0.5,0.6,1.3,0.9,2.1,0.9c0.7,0,1.4-0.2,2-0.7c0.4-0.4,0.7-0.9,0.8-1.5h-1
	c-0.1,0.4-0.3,0.7-0.6,1c-0.4,0.3-0.8,0.4-1.2,0.4c-0.5,0-1-0.2-1.4-0.6c-0.4-0.5-0.6-1-0.6-1.6h4.9c0-0.9-0.2-1.8-0.7-2.5
	C222.3,28.8,221.5,28.4,220.6,28.5L220.6,28.5L220.6,28.5z M220.6,29.3c1-0.1,1.9,0.7,2,1.7c0,0.1,0,0.2,0,0.3h-3.9
	c0-0.5,0.2-1,0.6-1.5C219.7,29.4,220.1,29.2,220.6,29.3L220.6,29.3L220.6,29.3z M229.6,29.8c-0.4-0.8-1.2-1.3-2.1-1.3
	c-0.8,0-1.6,0.3-2.1,1c-0.5,0.6-0.7,1.4-0.7,2.3c0,0.8,0.2,1.6,0.7,2.3c0.5,0.7,1.3,1,2.1,1c0.9,0,1.7-0.4,2.1-1.2v1h0.9v-8.7h-1
	L229.6,29.8L229.6,29.8z M227.8,29.3c0.5,0,1,0.2,1.4,0.7c0.4,0.5,0.5,1.1,0.5,1.8v0.1c0,0.6-0.1,1.2-0.5,1.7
	c-0.3,0.5-0.9,0.7-1.5,0.7c-0.6,0-1.2-0.2-1.5-0.7c-0.3-0.5-0.5-1.1-0.4-1.8c0-0.6,0.1-1.2,0.5-1.7
	C226.6,29.5,227.2,29.2,227.8,29.3L227.8,29.3L227.8,29.3z M232.9,26.3c-0.2,0-0.4,0.1-0.5,0.2c-0.1,0.1-0.2,0.3-0.2,0.5
	c0,0.2,0.1,0.4,0.2,0.5c0.3,0.3,0.7,0.3,1,0c0.1-0.1,0.2-0.3,0.2-0.5c0-0.2-0.1-0.4-0.2-0.5C233.2,26.4,233,26.3,232.9,26.3
	L232.9,26.3L232.9,26.3z M232.4,34.8h1v-6.2h-1V34.8z M237.7,28.5c-0.8,0-1.7,0.3-2.2,1c-0.5,0.7-0.8,1.5-0.7,2.3
	c0,0.8,0.2,1.6,0.7,2.3c0.5,0.6,1.3,1,2.2,0.9c0.7,0,1.3-0.2,1.8-0.6c0.5-0.5,0.8-1.1,0.9-1.8h-1c0,0.9-0.8,1.6-1.7,1.6
	c0,0-0.1,0-0.1,0c-0.6,0-1.1-0.2-1.4-0.7c-0.4-0.5-0.5-1.2-0.5-1.8c0-0.6,0.1-1.3,0.5-1.8c0.3-0.4,0.9-0.7,1.4-0.7
	c0.4,0,0.8,0.1,1.2,0.3c0.3,0.3,0.5,0.7,0.6,1.1h0.9c-0.1-0.7-0.4-1.3-0.9-1.7C239,28.6,238.4,28.4,237.7,28.5L237.7,28.5
	L237.7,28.5z M244.8,28.5c-0.7,0-1.3,0.1-1.8,0.5c-0.5,0.4-0.9,0.9-0.9,1.6h0.9c0-0.4,0.3-0.7,0.6-1c0.3-0.2,0.8-0.3,1.2-0.3
	c0.8-0.1,1.5,0.4,1.6,1.2c0,0.1,0,0.3,0,0.4V31l-1.5,0c-0.7,0-1.4,0.1-2.1,0.5c-0.6,0.3-1,1-0.9,1.7c0,0.5,0.2,1,0.6,1.3
	c0.4,0.3,0.9,0.5,1.5,0.5c0.5,0,1.1-0.1,1.5-0.4c0.4-0.2,0.7-0.5,1-0.8v1h0.9v-4c0-0.6-0.2-1.2-0.6-1.7
	C246.2,28.7,245.5,28.4,244.8,28.5L244.8,28.5L244.8,28.5z M246.3,32.3c0,0.5-0.2,1-0.6,1.3c-0.4,0.4-1,0.6-1.6,0.6
	c-0.3,0-0.7-0.1-0.9-0.3c-0.2-0.2-0.3-0.5-0.3-0.7c0-0.9,0.7-1.4,2.1-1.4l1.4,0L246.3,32.3L246.3,32.3z M249.2,34.8h0.9v-8.7h-0.9
	V34.8L249.2,34.8z"/>
</svg>
