<?xml version="1.0" encoding="utf-8"?>
<!-- Generator: Adobe Illustrator 22.0.1, SVG Export Plug-In . SVG Version: 6.00 Build 0)  -->
<svg version="1.1" id="Layer_1" xmlns="http://www.w3.org/2000/svg" xmlns:xlink="http://www.w3.org/1999/xlink" x="0px" y="0px"
	 viewBox="0 0 603.9 373.3" style="enable-background:new 0 0 603.9 373.3;" xml:space="preserve">
<style type="text/css">
	.st0{fill:#FFFFFF;}
</style>
<path id="联系我们" class="st0" d="M601.7,83.5c0.4,0,0.7-0.8,0.9-2.3l1.3,0.9c-0.5,2-1.2,3.1-2,3.1c-1-0.1-1.8-0.7-2.3-1.5
	c-0.1-0.1-0.2-0.3-0.3-0.4c-1.1,0.8-2.3,1.4-3.7,1.8l-0.9-1.2c1.4-0.4,2.7-1.1,3.8-1.9c-0.3-0.7-0.5-1.5-0.7-2.2
	c-0.1-0.3-0.2-0.7-0.2-1l-2.7,0.4l-0.2-1.4l2.8-0.4c-0.1-0.6-0.1-1.2-0.1-1.8l-2.1,0.3l-0.2-1.4l2.3-0.3v-3.4h1.5v3.2l3.8-0.5
	l0.2,1.4l-4,0.6c0,0.6,0.1,1.2,0.1,1.8l4.1-0.6l0.2,1.4l-4.2,0.7l0.1,0.5c0.1,0.7,0.3,1.4,0.5,2c0.8-0.7,1.4-1.5,2-2.4l1.2,0.8
	c-0.7,1.1-1.6,2.1-2.6,3C600.6,83,601.1,83.4,601.7,83.5z M599.5,71.3l1.2-0.7c0.6,0.6,1.2,1.2,1.8,1.9l-1.2,0.8
	C600.8,72.5,600.2,71.9,599.5,71.3L599.5,71.3z M594.8,79v1.4c-1.6,0.5-3.2,0.9-4.9,1.2l-0.4-1.4c0.3-0.1,0.5-0.2,0.7-0.4
	c0.7-0.8,1.3-1.8,1.8-2.7c-0.8,0.1-1.6,0.2-2.4,0.3l-0.4-1.4c0.3-0.1,0.5-0.3,0.6-0.6c0.8-1.5,1.5-3.2,2-4.8l1.5,0.6
	c-0.6,1.6-1.4,3.2-2.3,4.7c0.6-0.1,1.1-0.1,1.7-0.2c0.3-0.5,0.6-1.1,0.9-1.7l1.4,0.5c-0.9,1.9-2,3.7-3.3,5.5
	C592.7,79.6,593.7,79.3,594.8,79L594.8,79z M594.1,311.2c-0.4,1.2-0.9,2.4-1.6,3.5v10.8H591v-8.5c-0.4,0.5-0.9,1.1-1.5,1.6l-0.5-1.6
	c1.7-1.8,2.9-4,3.6-6.3L594.1,311.2z M586.9,159.3c-0.6,0-1.1-0.3-1.4-0.7c-0.7-0.8-1-2.4-1-4.8V152h-1.8c0,1-0.2,2.1-0.4,3.1
	c0.7,0.5,1.4,1.1,2,1.7l-0.9,1.3c-0.5-0.5-1.1-1-1.6-1.5c-0.5,1.1-1.3,2.1-2.2,2.8l-1.1-1c0.9-0.7,1.7-1.7,2.1-2.8
	c-0.4-0.3-0.9-0.6-1.4-0.9l0.8-1.2c0.3,0.2,0.7,0.4,1,0.6c0.1-0.7,0.2-1.4,0.2-2.2h-1.7v-1.5h1.7v-2h1.5v2h3.3v3.2
	c-0.1,1.2,0.1,2.4,0.4,3.6c0,0.2,0.1,0.4,0.3,0.4c0.2-0.2,0.2-0.4,0.2-0.7c0.1-0.5,0.1-1,0.1-1.6l1.2,0.6c0,0.9-0.2,1.8-0.5,2.7
	C587.4,159.1,587.2,159.3,586.9,159.3L586.9,159.3z M587.6,84.5l-1.3,0.9c-0.6-1.1-1.4-2.2-2.2-3.2l1.2-0.8
	C586.2,82.4,586.9,83.4,587.6,84.5L587.6,84.5z M583.5,85l-1.5,0.4c-0.3-1.1-0.6-2.2-1.1-3.2l1.4-0.3C582.8,82.9,583.2,84,583.5,85
	L583.5,85z M586.9,81.3c-0.6,0-1.1-0.3-1.4-0.7c-0.7-0.8-1-2.4-1-4.8V74h-1.8c0,1-0.2,2.1-0.4,3.1c0.7,0.5,1.4,1.1,2,1.7l-0.9,1.3
	c-0.5-0.5-1.1-1-1.6-1.5c-0.5,1.1-1.3,2.1-2.2,2.8l-1.1-1c0.9-0.7,1.7-1.7,2.1-2.8c-0.4-0.3-0.9-0.6-1.4-0.9l0.8-1.2
	c0.3,0.2,0.7,0.4,1,0.6c0.1-0.7,0.2-1.4,0.2-2.2h-1.7v-1.5h1.7v-2h1.5v2h3.3v3.2c-0.1,1.2,0.1,2.4,0.4,3.6c0,0.2,0.1,0.4,0.3,0.4
	c0.2-0.2,0.2-0.4,0.2-0.7c0.1-0.5,0.1-1,0.1-1.6l1.2,0.6c0,0.9-0.2,1.8-0.5,2.7C587.4,81.1,587.2,81.3,586.9,81.3L586.9,81.3z
	 M577.2,76c0.6-0.2,1.2-0.3,1.7-0.5V77c-0.6,0.2-1.1,0.3-1.7,0.5v2.3c0.1,0.7-0.4,1.4-1.1,1.6c-0.1,0-0.2,0-0.4,0h-1.5l-0.3-1.5
	c0.4,0.1,0.9,0.1,1.3,0.1c0.3,0,0.5-0.2,0.5-0.5c0,0,0-0.1,0-0.1v-1.6c-0.7,0.2-1.5,0.3-2.2,0.4l-0.3-1.4c0.9-0.1,1.7-0.3,2.6-0.4
	V74h-2.1v-1.5h2.1v-1.9h1.5v1.9h1.8V74h-1.8L577.2,76L577.2,76z M572.8,99.1c-0.2,0.2-0.5,0.3-0.8,0.3c-0.6,0-1-0.5-1-1.1
	c0-0.3,0.1-0.5,0.3-0.7c0.2-0.2,0.5-0.3,0.7-0.3c0.3,0,0.6,0.1,0.8,0.3C573.2,98,573.2,98.6,572.8,99.1
	C572.8,99.1,572.8,99.1,572.8,99.1L572.8,99.1z M572,81.4l-0.8,1.2c-0.7-0.5-1.4-0.9-2-1.4v4.2h-1.5v-5c-0.8-0.4-1.6-0.8-2.5-1.2
	l0.8-1.1c0.6,0.2,1.2,0.5,1.7,0.8v-2.3h-2.9v1.6c0,2.5-0.6,5-1.8,7.1l-1.1-1.1c1-1.8,1.6-3.9,1.5-6v-6.3c2.5,0,4.9-0.4,7.3-1.1
	l0.8,1.4c-2.2,0.6-4.4,0.9-6.7,1v2.1h6.9v1.4h-2.6v3C570.1,80.2,571,80.7,572,81.4L572,81.4z M559,83.2c0.3-0.2,0.4-0.5,0.4-0.9
	v-5.5h-2.2v-1.5h3.6v6.3c0.4-0.4,0.7-0.7,1.1-1.2l0.4,1.6c-0.9,0.9-1.8,1.7-2.8,2.4L559,83.2z M558.3,71.7l1.1-1
	c0.9,0.7,1.8,1.5,2.5,2.3l-1,1.1C560.1,73.2,559.3,72.4,558.3,71.7z M558.4,97.6c-0.7-0.8-1.5-1.5-2.3-2.1l0.9-0.9
	c0.8,0.6,1.6,1.3,2.3,2.1L558.4,97.6z M551.3,83.3c-1.4,1-2.9,1.7-4.5,2.1l-0.8-1.3c1.4-0.4,2.8-1,4.1-1.8c-1.1-0.9-1.9-2.2-2.3-3.5
	h-0.9v-1.5h7.8v1.4c-0.4,1.4-1.2,2.7-2.3,3.7c1.2,0.7,2.4,1.3,3.7,1.7l-0.8,1.3C553.9,84.9,552.5,84.2,551.3,83.3L551.3,83.3z
	 M553.2,78.8h-4c0.4,1.1,1.1,2,2,2.7C552,80.7,552.7,79.8,553.2,78.8L553.2,78.8z M552.2,74.8v-2.3h-2.8v0.7c0,1.5-0.9,2.9-2.2,3.6
	l-1-1.2c1-0.3,1.7-1.2,1.7-2.3v-2.3h5.7v3.3c0,0.3,0.2,0.5,0.5,0.5c0,0,0.1,0,0.1,0h1.2v1.4H554c-0.8,0.2-1.6-0.4-1.7-1.2
	C552.2,75.1,552.2,75,552.2,74.8L552.2,74.8z M544.7,77.5c0.5-0.3,1.1-0.6,1.6-0.9v1.6c-0.5,0.3-1.1,0.6-1.6,0.9v4.5
	c0.1,0.8-0.4,1.5-1.2,1.6c-0.1,0-0.3,0-0.4,0h-1.4l-0.3-1.5c0.4,0,0.8,0.1,1.2,0.1c0.3,0,0.6-0.2,0.6-0.5c0,0,0-0.1,0-0.1v-3.5
	c-0.6,0.3-1.2,0.5-1.8,0.7l-0.4-1.5c0.7-0.2,1.5-0.4,2.2-0.7v-3.3h-1.8v-1.5h1.8v-2.8h1.5v2.8h1.7v1.5h-1.7L544.7,77.5L544.7,77.5z
	 M525.2,334.3c-0.1,0.5-0.4,0.9-0.7,1.2l-17.2,17.2c-1.3,1.4-3.5,1.5-4.9,0.1c-0.1,0-0.1-0.1-0.1-0.1l-23.9-24.1
	c-1.4-1.4-1.5-3.8,0-5.2c0,0,0,0,0,0l17.2-17.3c1.3-1.4,3.5-1.5,4.9-0.1c0.1,0,0.1,0.1,0.1,0.1l10.9,11.1l7.4-7.4
	c1.3-1.4,3.5-1.5,4.9-0.1c0.1,0,0.1,0.1,0.1,0.1l10.3,10.3c1.4,1.4,1.5,3.8,0,5.2c0,0,0,0,0,0L525.2,334.3z M511.3,320.7l-0.8-0.9
	l-11.7-11.9c-0.4-0.5-1.2-0.5-1.6,0c0,0,0,0,0,0l-17,17.3c-0.5,0.5-0.5,1.2,0,1.7c0,0,0,0,0,0L504,351c0.4,0.5,1.2,0.5,1.6,0
	c0,0,0,0,0,0l2.5-2.6l-11.1-11.2c-0.5-0.5-0.5-1.2,0-1.7c0,0,0,0,0,0c0.4-0.5,1.2-0.5,1.6,0c0,0,0,0,0,0l11.1,11.2l3.5-3.4
	L498,327.7c-0.5-0.5-0.5-1.2,0-1.7c0,0,0,0,0,0c0.4-0.5,1.2-0.5,1.6,0c0,0,0,0,0,0l15.3,15.5l3.4-3.4l-11.1-11.2
	c-0.5-0.5-0.5-1.2,0-1.7c0,0,0,0,0,0c0.4-0.5,1.2-0.5,1.6,0c0,0,0,0,0,0l11.1,11.2l2.5-2.6c0.1-0.1,0.2-0.2,0.2-0.4
	c0.1-0.1,0.1-0.2,0.1-0.4c0-0.4-0.1-0.7-0.4-1L511.3,320.7z M532.3,321.9l-10.3-10.3c-0.4-0.5-1.2-0.5-1.6,0c0,0,0,0,0,0L513,319
	l11.4,11.4c0.2,0.2,0.4,0.5,0.6,0.7l7.5-7.5c0.4-0.4,0.5-1.1,0.1-1.5C532.5,322,532.4,321.9,532.3,321.9L532.3,321.9z M512.7,270.7
	c-2.2,1.5-6.5,1.6-6.5,1.6h-13.7c-2.3-0.2-4.6-1-6.5-2.5c-1.7-1.4-2.6-3.5-2.4-5.7c0-6.9,4.3-13,10.8-15.3c-5-2.9-6.7-9.4-3.8-14.4
	s9.4-6.7,14.4-3.8c2.9,1.7,4.8,4.6,5.2,7.9c4.3,1.4,8.9-0.9,10.3-5.2c1.4-4.3-0.9-8.9-5.2-10.3c-4-1.3-8.3,0.6-10,4.4l-2-1.4
	c2.6-5.2,8.9-7.3,14.1-4.6c5.2,2.6,7.3,8.9,4.6,14.1c-0.9,1.8-2.3,3.3-4,4.3c6.5,2.3,10.8,8.4,10.8,15.3c0,3.1-0.7,4.8-3.2,6.5
	c-2.2,1.5-6.5,1.6-6.5,1.6h-3.3c0,0.3,0,0.5,0,0.8C515.9,267.3,515.2,269,512.7,270.7L512.7,270.7z M486,264.2
	c0.2,5.5,6.1,5.7,13.7,5.7s13.7-0.1,13.7-5.7c0.2-7.6-5.9-13.8-13.4-14c-7.6-0.2-13.8,5.9-14,13.4C486,263.8,486,264,486,264.2
	L486,264.2z M499.8,231.7c-4.5,0-8.1,3.6-8.2,8.1c0,4.5,3.6,8.1,8.1,8.2s8.1-3.6,8.2-8.1c0,0,0,0,0-0.1
	C507.8,235.4,504.2,231.7,499.8,231.7L499.8,231.7z M526.4,255.3c0-7.6-6.1-13.8-13.7-13.8c-0.9,0-1.7,0.1-2.6,0.3
	c-0.5,3-2.3,5.6-4.9,7.2c5.3,1.9,9.3,6.5,10.4,12C521.8,260.8,526.4,260.1,526.4,255.3L526.4,255.3z M483.3,167.1
	c0,0-4.8-2.2,0.4-6.8c4.6-3.9,18.2-15.9,18.2-15.9s4-4.2,8.1,0l7.1,6.2v-3.4c0,0,2.7-4.6,6.2-0.3v9.2l6.8,5.9l0,0
	c1.3,1.5,1.2,3.7-0.3,5.1c0,0,0,0,0,0l-6,2.8l-0.2,16.1c0,0-0.4,2.9-2.5,3.2h-25.9c0,0-5,6.1-10.4,0.7c0,0-3.8-3.6-0.8-7.9l4.2-3.9
	l-0.1-8.5L483.3,167.1z M521.5,148h-2.1v4.2l2.1,2.2V148L521.5,148z M487.1,183.7c-1.3,1.2-1.4,3.4-0.2,4.7c0.1,0.1,0.1,0.1,0.2,0.2
	c1.2,1.5,3.4,1.7,4.9,0.5c0.2-0.2,0.4-0.3,0.5-0.5l11.8-11.5c10.9,1.3,10.1-8.4,10.1-8.4l-1.7-0.4l-4,3.6l-4.4-4.6l3.5-3.3l-0.2-1.8
	c-9.7-0.4-8.6,9.7-8.6,9.7L487.1,183.7z M490.8,175.9l5.2-5.2c0,0-0.9-12.6,13.6-11.1l0.5,5l-2.8,2.7l1.5,1.7l2.9-2.7l4.6,0.6
	c0,0,3.7,13.2-11.3,13.1l-7.3,7.3h21.3c0,0,1.8-0.1,1.9-3.1l0.4-15.7l6-2.7l0,0c0,0,2.1-1,0-2.4l-18.1-16.5c-1.8-1.8-4.7-1.8-6.4,0
	c-0.1,0.1-0.1,0.1-0.1,0.2l-16.9,15.1c0,0-2.4,2.3,0.3,3.4l4.7,2.1L490.8,175.9z M499.6,114.2c-13.7-3.8-21.8-17.9-18-31.6
	c2.1-7.8,7.8-14.1,15.3-17.1c12-4.7,25.7,0.3,31.8,11.7c6.7,12.5,2.1,28-10.4,34.8C512.6,115,505.9,115.8,499.6,114.2L499.6,114.2z
	 M526.3,78.4c-5.4-10.2-17.6-14.7-28.4-10.4c-11.8,4.7-17.5,18-12.9,29.8c2.7,6.7,8.3,11.8,15.3,13.7c8.8,2.4,18.2-0.8,23.8-7.9
	c-0.4,0.2-0.8,0.4-1.3,0.6c-2.1,0.9-4.4,0.7-6.3-0.5l0.1-0.1c-1,0.9-1.8,1.6-1.9,1.7c-0.4,0.3-0.9,0.4-1.3,0.2
	c-0.2-0.1-0.4-0.2-0.7-0.3c-0.5-0.2-0.9-0.5-1.4-0.7c-0.1-0.1-0.3-0.1-0.4-0.2c-9.1-5.8-15.4-15-17.6-25.6c0-0.1,0-0.3-0.1-0.4
	c-0.1-0.5-0.2-1.1-0.2-1.6c0-0.2,0-0.5,0-0.7c0.1-0.5,0.3-0.9,0.7-1.1c0.2-0.1,3.2-1.7,4.7-2.5c0.4-0.2,0.9-0.3,1.3-0.2
	c0.5,0.1,0.9,0.5,1.2,0.9c0,0,0,0,0,0l3.7,7.5c0.2,0.5,0,1.1-0.4,1.4l-1.9,1.3c-0.4,0.3-0.6,0.8-0.5,1.2c0.5,1.9,1.4,3.7,2.6,5.3
	c1.1,1.7,2.4,3.2,4,4.3c0.4,0.3,0.9,0.2,1.3,0l1.9-1.3c0.4-0.3,1-0.3,1.4,0.1l5.7,6.1v0c0.7,0.8,0.6,1.9-0.2,2.6c0,0,0,0,0,0
	c-0.2,0.2-0.5,0.4-0.7,0.7c1.4,0.6,2.9,0.7,4.3,0.1c1.9-0.8,3.6-2.1,4.8-3.8C530,92.2,529.7,84.7,526.3,78.4L526.3,78.4z
	 M415.2,46.3h1v327h-1V46.3z M93.7,6.6h-6.2c0,1.8,0.2,3.6,0.5,5.4c0.5,2.7,1.4,4.5,2.7,5.4c0.3,0.2,0.7,0.2,0.9-0.1
	c0,0,0-0.1,0.1-0.1c0.3-0.4,0.5-0.8,0.7-1.2c0.2-0.4,0.3-0.7,0.4-0.9c0.1-0.2,0.2-0.4,0.4-0.5c0.1,0,0.1,0.2,0.1,0.6
	c-0.1,2.2,0,3.5,0.3,4c0.5,0.9,0.4,1.6-0.1,2.1c-0.7,0.5-1.6,0.6-2.4,0.3c-2.7-0.8-4.8-2.9-5.6-5.7c-0.1,0.1-0.1,0.2-0.3,0.3
	c-2.9,1.6-6,3-9.1,4.1c-0.2,0.1-0.4,0.3-0.5,0.4c0,0.1,0,0.1-0.1,0.2c0,0.2-0.3,0.4-0.5,0.3c0,0,0,0,0,0c-0.2-0.2-0.4-0.4-0.5-0.7
	c-0.3-0.9-0.7-1.8-1.2-2.7c-0.2-0.5,0-0.8,0.5-0.8c0.5,0,1-0.1,1.5-0.2c1-0.1,1.7-0.2,2.3-0.3v-5.9H76c-0.5,0-0.9,0.1-1.4,0.2
	c-0.2,0.1-0.4,0.1-0.4-0.1l-0.2-0.2c-0.1-0.2-0.2-0.3-0.3-0.4c-0.1-0.1-0.1-0.2,0-0.3H74c0.8,0.1,1.6,0.1,2.4,0.1h4.8
	c0.2-0.6,0.6-1.1,1.1-1.5c0.8,0.3,1.4,0.7,1.9,1.4c0.3,0.4,0.2,0.7-0.3,0.8h-2.8c0.1,0.3,0,0.5-0.2,0.5c-0.2,0.2-0.3,0.4-0.3,0.7V16
	c1.1-0.2,2.5-0.4,4.2-0.7c0.1-0.1,0.3-0.1,0.4,0c-0.2-0.8-0.4-1.7-0.5-2.5c-0.3-2.3-0.6-4.4-0.7-6.3h-7.5c-0.9,0-1.7,0.1-2.6,0.2H74
	c-0.1,0.1-0.3,0-0.3-0.1c0,0,0,0,0,0c-0.1-0.1-0.2-0.2-0.3-0.3C73.3,6.2,73.2,6,73,6C73,5.9,73,5.8,73,5.7h0.2
	c1.4,0.2,2.8,0.2,4.2,0.2h6.8V4.6c0-1.2-0.1-2.4-0.3-3.6c-0.1-0.6,0.1-0.9,0.7-0.8c1,0.1,2,0.3,3,0.6c0.2,0,0.4,0.1,0.5,0.3
	c0,0.3-0.1,0.5-0.3,0.6c-0.2,0.2-0.3,0.5-0.3,0.9v3.3h2.3c0.2-0.1,0.3-0.3,0.3-0.5c-0.4-0.1-0.8-0.5-0.9-0.9c-0.1-0.8-0.4-1.6-1-2.2
	c-0.2-0.1-0.2-0.3-0.2-0.5c0.1-0.1,0.3-0.2,0.4-0.2c1.8,0.1,2.9,0.5,3.4,1.2c0.3,0.5,0.4,1.2,0.1,1.7c0.6,0.4,1.2,0.9,1.8,1.4
	C94.2,6.2,94.1,6.5,93.7,6.6z M69.3,6c-1.3-0.1-3.3-0.1-6-0.1h-4c0.3,0.1,0.7,0.1,1,0.3c0.5,0.2,0.4,0.5-0.1,0.9
	c-0.3,0.2-0.5,0.6-0.5,0.9v0.3c-0.1,0.4-0.2,0.9-0.2,1.4h2.9c0.2-0.5,0.6-0.9,1.1-1.2c1.3,0.4,2.4,1.1,3.4,2.1
	c0,0.3-0.1,0.5-0.3,0.6c-0.3,0.1-0.5,0.4-0.4,0.7c-0.2,1.7-0.4,3.7-0.6,6.2c-0.1,1.8-1.2,2.9-3.4,3.4c-0.5,0.2-1.1,0-1.3-0.5
	c0,0,0-0.1-0.1-0.1c-0.1-0.9-0.8-1.6-1.6-1.8c-0.4-0.1-0.6-0.2-0.5-0.3c0.2-0.1,0.5-0.2,0.8-0.1c1.7,0.1,2.6-0.5,2.7-1.8
	c0.3-1.9,0.5-4.1,0.6-6.4h-3.2c-0.6,5.9-3.5,9.5-8.9,10.9c-0.4,0.2-0.6,0.2-0.7,0.1c0.1-0.2,0.2-0.4,0.3-0.5
	c3.8-2.6,5.7-6.7,5.8-12.2c0-0.9-0.1-1.8-0.2-2.8h-3.3c-0.8,0-1.7,0.1-2.5,0.3c-0.1,0-0.2,0-0.3-0.1c-0.2-0.3-0.3-0.5-0.5-0.8
	c-0.2-0.2-0.1-0.2,0.2-0.2h0.3c1,0.1,2.1,0.2,3.1,0.2h12.2c1-1.4,1.7-2.1,1.9-2.1c1,0.5,1.8,1.1,2.5,2c0.1,0.1,0.2,0.3,0.2,0.5
	C69.6,5.9,69.5,6,69.3,6L69.3,6z M57.9,3.7c-0.2-1.1-0.6-2.1-1.3-3c-0.1-0.1-0.2-0.3-0.2-0.4c0.1-0.1,0.3-0.1,0.4-0.1
	c2.2-0.1,3.6,0.5,4.4,1.5c0.5,1,0.2,2.2-0.8,2.8c0,0-0.1,0-0.1,0.1C59,5.1,58.2,4.8,57.9,3.7L57.9,3.7z M41.1,18.6
	c-0.8-1.4-1.8-2.6-3.1-3.5c-0.2,0-0.3-0.2-0.3-0.4c0,0,0,0,0,0c0.1-0.1,0.3-0.2,0.5-0.1c2.8,0.3,4.7,1,5.8,2.1
	c0.9,1.2,0.8,2.2-0.2,2.9C42.6,20.3,41.7,20,41.1,18.6L41.1,18.6z M43.5,3.3c-0.3-0.1-0.7-0.1-1-0.1c-0.3,0-1.1,0.1-2.3,0.2
	c-1.7,0.1-3,0.1-3.9,0.2c0.2,0.1,0.3,0.4,0.3,0.6c-0.1,0.2-0.3,0.4-0.6,0.3c-0.4,0-0.8,0.1-1.1,0.3c-1.3,0.7-2.6,1.4-4,1.8
	c2.1,0,3.7,0,4.8-0.1c0,0,0.1,0,0.1-0.1c0,0,0,0,0,0h0.1c0.8-0.7,1.4-1.5,2-2.4c0.1-0.4,0.5-0.5,1-0.2c1.3,0.6,2.5,1.2,3.4,1.8
	c0.5,0.6,0.3,1-0.3,1.2c-0.5-0.1-1,0-1.5,0.3c-2.9,1.8-6,3.2-9.2,4.3c2.1,0.1,4.9,0,8.4-0.2c-0.3-0.3-0.7-0.9-1.4-1.7
	C38.1,9.3,38,9.2,38,9.1c-0.2-0.2-0.3-0.3-0.3-0.4c0.1-0.1,0.3-0.2,0.5-0.1c2.8,0.7,4.6,1.6,5.4,2.7c0.7,1,0.6,2.3-0.4,3.1
	c0,0-0.1,0.1-0.1,0.1c-1,0.6-1.8,0.2-2.3-1.1c-0.1-0.3-0.3-0.6-0.4-0.9c-0.8,0.2-1.7,0.3-2.7,0.5c0.3,0.3,0.3,0.6-0.1,0.8
	c-0.3,0.1-0.5,0.4-0.4,0.7v4c0.1,1.4-0.2,2.1-0.8,2.2c-0.8,0.4-1.7,0.7-2.6,0.8c-0.8,0.1-1.2-0.1-1.2-0.6c-0.2-1-1-1.7-2.4-2.1
	c-0.3,0-0.5-0.1-0.7-0.3c0-0.3,0.3-0.4,0.8-0.3h0.9c0.5,0.1,0.9,0.1,1.1,0.1c1.1,0.1,1.5-0.4,1.4-1.3v-3.4c-1.1,0.2-2.2,0.3-3.4,0.5
	c0.1,0.1,0.2,0.2,0.3,0.3c0.7,0.4,1.4,0.9,2.1,1.4c0.2,0.1,0.3,0.4,0.3,0.6c-0.1,0.2-0.4,0.3-0.6,0.3c-0.5-0.1-1,0.1-1.3,0.4
	c-1.8,1.2-3.8,2.2-5.9,2.8c-0.2,0.1-0.4,0.1-0.5-0.1c-0.1-0.1-0.1-0.3,0.2-0.4c1.3-1,2.4-2.2,3.4-3.5c0.4-0.4,0.7-0.9,0.9-1.4
	c-0.4,0.1-0.7,0.3-0.9,0.5c-0.6,0.3-1,0.2-1.1-0.4c-0.3-0.7-0.4-1.4-0.5-2.1c-0.1-0.1-0.1-0.3-0.1-0.4c-0.1-0.3,0-0.6,0.3-0.7
	c0.1,0,0.2,0,0.3,0c1.2,0,2.4-0.4,3.4-0.9c1.1-0.6,2.1-1.2,3.1-2c-0.2,0.1-0.5,0.1-0.9,0.2c-0.2,0.1-0.5,0.1-1,0.3
	C31,8.8,30.4,9,29.9,9.2c-0.8,0.5-1.2,0.4-1.3-0.2c0-0.2-0.1-0.4-0.2-0.5c-0.2-0.7-0.3-1.3-0.3-1.8C28,6.3,28.2,6.1,28.7,6
	c1.2-0.4,2.2-1.2,2.8-2.3c-1.6,0.1-3.4,0.1-5.4,0.1c-0.2,0-0.4-0.1-0.5-0.3c0-0.1,0.1-0.2,0.4-0.3c4-0.6,7.3-1.2,10-1.8
	c1.5-0.3,3-0.8,4.4-1.4c0.3-0.2,0.7-0.2,1,0l0.2,0.2c0.9,0.7,1.8,1.4,2.6,2.2c0.2,0.2,0.2,0.4,0.1,0.6C44.1,3.3,43.8,3.4,43.5,3.3
	L43.5,3.3z M27.1,244.6h-2.7v5.9h3.1v1h-8.8v-1h1.6v-8.3h1v8.3h2.1v-11.3h1v4.5h2.7L27.1,244.6L27.1,244.6z M21.3,18.4
	c0.1,0,0.3,0.1,0.3,0.3c0,0.2-0.2,0.3-0.3,0.3c-0.9,0.7-1.7,1.4-2.3,2.3c-0.2,0.3-0.4,0.3-0.7,0c-1.5-2-2.3-4.4-2.2-6.9
	c-0.8,3.5-3.3,5.8-7.5,7c-0.1,0.1-0.2,0.1-0.3,0c-0.1-0.1,0-0.2,0.2-0.3C8.5,21.1,8.6,21,8.7,21c-0.6,0.2-1.2,0.4-1.8,0.4
	C6.3,21.5,6,21.2,6,20.5v-0.8c0.1-1.1,0.1-2,0.1-2.7c-1,0.7-2.1,1.2-3.3,1.6c-0.3,0.1-0.5,0.3-0.7,0.5c-0.1,0.2-0.2,0.4-0.4,0.4
	c-0.2-0.1-0.4-0.3-0.5-0.5c-0.5-0.8-0.9-1.7-1.1-2.6c-0.2-0.4,0-0.7,0.5-0.8c0.3,0,0.6,0,0.9-0.1c0.1-0.1,0.2-0.1,0.3-0.1V2.9
	c-0.3,0-0.6,0-0.9,0.1c-0.1,0-0.2,0-0.3-0.1C0.4,2.8,0.3,2.6,0.3,2.5C0.2,2.4,0.1,2.3,0,2.3C0,2.2,0,2.1,0,2c0-0.1,0.1-0.1,0.2,0
	C1,2.1,1.9,2.2,2.8,2.2h5c0.3-0.7,0.8-1.3,1.4-1.8c0.9,0.4,1.6,1,2.1,1.8c0.2,0.3,0.1,0.5-0.3,0.6H9.5v3.7c1.1,0.1,2.2,0.2,3.3,0.2
	h2.6c0.8-1.9,1.4-3.8,1.8-5.8c0-0.3,0.2-0.5,0.5-0.5c0.1,0,0.2,0,0.2,0.1c1.1,0.3,2.1,0.7,3.1,1.2c0.2,0,0.4,0.3,0.3,0.5
	c0,0,0,0,0,0c0,0.3-0.3,0.5-0.5,0.4c-0.3,0.1-0.7,0.2-0.9,0.4c-1.1,1.3-2.2,2.6-3.5,3.7h1.3c0.3-0.7,0.8-1.3,1.4-1.7
	c0.9,0.3,1.7,0.8,2.3,1.5c0.2,0.1,0.3,0.4,0.3,0.6c0,0.1-0.1,0.2-0.3,0.2h-3.7c0.2,0.2,0.1,0.5,0,0.7c0,0,0,0,0,0
	c-0.3,0-0.6,0.3-0.6,0.7c0,1-0.1,2-0.2,3h1C18,11,18.4,10.4,19,9.9c0.9,0.3,1.7,0.8,2.3,1.5c0.1,0.1,0.2,0.3,0.3,0.5
	c0,0.2-0.1,0.3-0.3,0.3h-4.6C17.6,15.4,19.1,17.4,21.3,18.4z M6.2,2.8H5v3.6h1.2V2.8z M6.2,7H5v3.6h1.2V7z M6.2,13.7v-2.5H5V15
	c0.2-0.1,0.4-0.1,0.6-0.2c0.2,0,0.4-0.1,0.6-0.1V13.7z M9.4,20.4c2.1-1.8,3.4-4.5,3.8-8.2h-3c-0.1,0-0.3,0-0.4,0.1H9.5V14
	c0.4-0.2,0.9-0.3,1.4-0.3c0.2-0.1,0.5-0.1,0.7,0c0,0.2-0.1,0.4-0.3,0.5c-0.5,0.3-1.1,0.7-1.7,1v4.9C9.4,20.2,9.4,20.3,9.4,20.4
	L9.4,20.4z M12.1,7.2c-0.7,0-1.3,0-2,0.2c-0.1,0.1-0.3,0.1-0.4,0L9.6,7.3c0,0,0-0.1-0.1-0.1c0,0,0,0,0,0C9.5,7.1,9.5,7,9.5,6.9v4.7
	h3.8c0.1-1.3,0.2-2.8,0.2-4.4L12.1,7.2L12.1,7.2z M13.7,6.3c-0.9,0.1-1.4-0.4-1.5-1.6c-0.1-1.1-0.4-2.3-0.8-3.4
	c-0.1-0.1-0.1-0.3,0-0.4c0.1-0.1,0.2-0.1,0.3,0c1.4,0.3,2.7,1.3,3.4,2.6C15.6,5,15.1,5.9,13.7,6.3L13.7,6.3z M2.4,243.9H0.8v-1h1.6
	v-3.6h1v3.6h1.5v1H3.4v4.7c0.6-0.2,1.1-0.4,1.7-0.7v1c-1.3,0.6-2.7,1.1-4.2,1.5l-0.3-1c0.6-0.1,1.2-0.3,1.8-0.4L2.4,243.9L2.4,243.9
	z M4.8,311.6c-0.4,1.1-0.8,2.1-1.4,3.1v9.4h-1v-7.8c-0.5,0.6-1,1.2-1.5,1.8l-0.3-1.1c1.5-1.7,2.6-3.6,3.3-5.7L4.8,311.6z M1.5,338
	l0.7-0.5c0.4,0.4,0.7,0.7,1,1.1c0.5-0.6,1-1.2,1.4-1.9H1.1v-0.9h4.6v0.8c-0.5,1-1.2,1.8-1.9,2.7c0.3,0.3,0.5,0.6,0.7,0.8h1.6v0.6
	c-0.2,0.9-0.4,1.7-0.8,2.6l-0.8-0.3c0.3-0.6,0.5-1.3,0.7-1.9H3.7v5.9c0.1,0.5-0.3,1-0.8,1.1c-0.1,0-0.2,0-0.3,0H1.3L1.1,347
	c0.4,0,0.8,0.1,1.2,0.1c0.2,0,0.4-0.2,0.4-0.4c0,0,0-0.1,0-0.1V341h-2V340h2.7C2.9,339.4,2.2,338.7,1.5,338z M8.7,345.4
	c0.5-0.9,0.8-1.9,0.8-2.9V340h1v2.5c0,1.3-0.3,2.5-1,3.6c-0.8,0.9-1.8,1.6-3,1.9l-0.5-0.9C7,346.9,8,346.3,8.7,345.4z M6.5,335.7
	h6.9v1h-2.8c-0.1,0.5-0.2,1.1-0.3,1.6H13v6.6h-1v-5.7H8v5.7H7v-6.6h2.3c0.1-0.5,0.2-1,0.3-1.6H6.5V335.7z M13.6,316.5H7.7
	c-0.2,0.6-0.5,1.2-0.7,1.8h5.8v0.9c-0.7,1.1-1.7,2.1-2.8,2.9c0.7,0.3,1.3,0.7,1.9,1.1l-0.6,0.9c-1.6-1.1-3.4-2.1-5.3-2.8l0.5-0.8
	c0.9,0.3,1.7,0.7,2.5,1.1c1-0.7,1.9-1.5,2.6-2.4h-6c0.4-0.9,0.7-1.8,1-2.7H4.4v-1H7c0.2-0.5,0.3-1.1,0.5-1.6H5v-1h2.7l0.4-1.8l1,0.1
	c-0.1,0.6-0.3,1.2-0.4,1.7H13v1H8.5c-0.2,0.6-0.3,1.1-0.5,1.6h5.5L13.6,316.5L13.6,316.5z M12.6,273.7c-0.7,0.4-1.4,0.5-2.2,0.4
	l-0.3-1c0.3,0,0.6,0.1,0.9,0.1c0.3,0,0.6-0.1,0.9-0.2c0.2-0.2,0.2-0.5,0.2-0.8c-0.2-1.3-0.7-2.5-1.5-3.4c0.5-1.3,1-2.6,1.3-3.9H9.5
	V276h-1v-12.1H13v0.7c-0.4,1.5-0.9,2.8-1.4,4.1c0.8,1,1.3,2.2,1.5,3.4C13.2,272.7,13,273.3,12.6,273.7L12.6,273.7z M1.9,297.3v-8.2
	h4.5v-1.9h1v1.9h4.5v7H7.4v1.7c-0.1,0.5,0.2,0.9,0.7,1c0.1,0,0.2,0,0.2,0h3.2c0.3,0,0.6-0.1,0.8-0.2c0.2-0.5,0.3-1.1,0.3-1.7l1,0.3
	c0,0.8-0.1,1.5-0.5,2.2c-0.4,0.3-0.9,0.4-1.4,0.4H8.1c-0.9,0.1-1.6-0.5-1.7-1.4c0-0.1,0-0.3,0-0.4v-1.9H2.9v1.2L1.9,297.3L1.9,297.3
	z M7.4,295.1H11V293H7.4L7.4,295.1L7.4,295.1z M7.4,292.1H11v-2.1H7.4L7.4,292.1L7.4,292.1z M6.4,290.1H2.9v2.1h3.4V290.1z
	 M6.4,295.1V293H2.9v2.1H6.4z M4.8,263.1v2h2.6v10.3h-1v-0.9H2.2v0.9h-1v-10.3h2.6v-2H4.8z M4.8,273.6h1.6v-3.4H4.8V273.6z
	 M4.8,269.3h1.6v-3.2H4.8V269.3z M2.2,273.6h1.6v-3.4H2.2V273.6z M2.2,266.1v3.2h1.6v-3.2H2.2z M7.7,250.8h3.9
	c0.2,0,0.5-0.1,0.6-0.3c0.2-0.7,0.3-1.3,0.3-2l0.9,0.3c0,0.9-0.2,1.8-0.6,2.6c-0.3,0.3-0.7,0.4-1.1,0.4H7.4
	c-0.7,0.1-1.3-0.4-1.4-1.1c0-0.1,0-0.2,0-0.3V245l-1.2,0.4v-1L6,244v-3.4h1v3.1l2-0.6v-3.9h1v3.6l3-0.9c0.1,1.7,0,3.5-0.2,5.2
	c-0.1,0.6-0.7,0.9-1.8,0.9H11l-0.3-1c0.2,0,0.4,0,0.6,0c0.3,0,0.6-0.2,0.7-0.5c0.1-1.1,0.2-2.2,0.1-3.3l-2,0.6v5.3H9v-5l-2,0.6v5.4
	c0,0.3,0.2,0.6,0.6,0.7C7.6,250.8,7.7,250.8,7.7,250.8L7.7,250.8z M13.6,347.3l-0.7,0.7c-0.8-0.9-1.6-1.8-2.5-2.5l0.6-0.6
	C12,345.6,12.8,346.4,13.6,347.3L13.6,347.3z M16.4,243.8h-1.8v-1h1.8v-3.6h1v3.6h1.7v1h-1.7v4.8c0.6-0.2,1.3-0.4,1.9-0.6v1
	c-1.5,0.5-3,1-4.6,1.3l-0.3-1.1c0.6-0.1,1.3-0.2,1.9-0.4L16.4,243.8L16.4,243.8z M15.1,267.4c0.8-1.4,1.4-2.8,1.8-4.3l0.9,0.4
	c-0.5,1.5-1.2,2.9-2,4.2c0.6-0.1,1.2-0.2,1.8-0.3c0.2-0.4,0.5-0.9,0.7-1.4l0.9,0.3c-0.8,1.7-1.8,3.3-2.9,4.8
	c0.8-0.2,1.6-0.4,2.4-0.7v0.9c-1.2,0.4-2.4,0.7-3.6,0.9l-0.3-0.9c0.2-0.1,0.3-0.2,0.5-0.3c0.7-0.8,1.3-1.8,1.8-2.7
	c-0.7,0.2-1.5,0.3-2.2,0.4l-0.3-0.9C14.9,267.7,15,267.6,15.1,267.4L15.1,267.4z M17.7,297.7c0.5-0.4,1-0.9,1.6-1.4l0.3,1.1
	c-0.8,0.8-1.7,1.5-2.7,2.2l-0.4-0.9c0.2-0.1,0.3-0.4,0.3-0.6v-5.6h-2.1v-1h3L17.7,297.7L17.7,297.7z M17.8,345.7
	c0.5-0.4,1.1-0.9,1.8-1.5l0.3,1.1c-0.9,0.8-1.9,1.6-2.9,2.2l-0.4-0.9c0.2-0.1,0.3-0.4,0.3-0.6v-5.6h-2.1v-1h3L17.8,345.7L17.8,345.7
	z M23.6,346.3v-9.4h-4.1v-1h8.1v1h-2.9v9.7c0.1,0.6-0.4,1.2-1,1.3c-0.1,0-0.2,0-0.3,0h-1.8l-0.2-1c0.6,0,1.2,0.1,1.7,0.1
	c0.3,0,0.6-0.2,0.6-0.5C23.6,346.4,23.6,346.4,23.6,346.3z M18.1,338.1c-0.7-0.8-1.5-1.5-2.4-2.2l0.7-0.7c0.9,0.6,1.7,1.4,2.4,2.2
	L18.1,338.1z M15.5,312.2h5.3l0.1-1.1l1,0.1c0,0.3-0.1,0.6-0.1,0.9h5v0.9h-5.1c-0.1,0.3-0.1,0.6-0.2,0.9h4v6.6h1.8v0.9h-4.2
	c1.4,0.5,2.7,1,4,1.8l-0.5,0.8c-1.2-0.8-2.6-1.4-4-1.9l0.4-0.7h-4l0.6,0.7c-1.2,0.8-2.6,1.5-4,1.9l-0.4-0.9c1.3-0.3,2.6-0.9,3.8-1.7
	h-4.1v-0.9H17V314h3.4c0.1-0.3,0.1-0.6,0.2-0.9h-5.2V312.2L15.5,312.2z M18,320.6h6.5v-0.9H18V320.6z M18,318.9h6.5v-0.9H18V318.9z
	 M18,317.3h6.5v-0.9H18V317.3z M18,314.8v0.9h6.5v-0.9H18z M27,275c0.1,0.5-0.3,0.9-0.7,1c-0.1,0-0.2,0-0.2,0h-0.6l-0.2-0.8l0.6,0
	c0.2,0,0.4-0.1,0.4-0.3c0,0,0-0.1,0-0.1v-1.9h-1.1v2.9h-0.7v-2.9h-1v2.9h-0.7v-2.9h-1.1v3.1h-0.8v-6.7H27L27,275L27,275z
	 M22.6,270.2h-1.1v1.8h1.1V270.2z M24.3,270.2h-1v1.8h1V270.2z M26.2,270.2h-1.1v1.8h1.1V270.2z M18.1,290.2
	c-0.7-0.8-1.5-1.5-2.4-2.2l0.7-0.7c0.9,0.6,1.7,1.4,2.4,2.2L18.1,290.2z M14.9,274.2c1.2-0.3,2.4-0.7,3.5-1.2v0.9
	c-1.1,0.5-2.2,1-3.3,1.2L14.9,274.2z M23.3,263.1c0.2,0.5,0.4,1,0.5,1.5H27v3.6h-6.4c0,2.7-0.6,5.4-1.9,7.9l-0.7-0.6
	c1.2-2.3,1.8-4.8,1.7-7.4v-3.4h3.2c-0.2-0.5-0.4-0.9-0.6-1.3L23.3,263.1z M20.6,265.5v1.8H26v-1.8L20.6,265.5L20.6,265.5z
	 M27.6,291.2v1H24v2.3h2.7v5.5h-1v-0.7h-4.3v0.7h-1v-5.5H23v-2.2h-3.8v-1H23V289c-1,0.1-2.1,0.2-3.3,0.2l-0.3-0.9
	c2.4,0.1,4.9-0.3,7.2-1l0.5,0.9c-1,0.4-2.1,0.6-3.1,0.7v2.3L27.6,291.2L27.6,291.2z M21.4,295.4v2.9h4.3v-2.9H21.4z M31.6,242.1
	c0.2,0,0.5,0.1,0.6,0.3c0.2,0.2,0.3,0.4,0.3,0.6c0,0.2-0.1,0.4-0.3,0.6c-0.2,0.2-0.4,0.3-0.6,0.3c-0.2,0-0.5-0.1-0.6-0.3
	c-0.2-0.2-0.2-0.4-0.2-0.6c0-0.2,0.1-0.4,0.2-0.6C31.2,242.2,31.4,242.1,31.6,242.1L31.6,242.1z M31.6,247.2c0.2,0,0.5,0.1,0.6,0.3
	c0.2,0.2,0.3,0.4,0.3,0.6c0,0.2-0.1,0.4-0.3,0.6c-0.2,0.2-0.4,0.3-0.6,0.3c-0.2,0-0.5-0.1-0.6-0.3c-0.2-0.2-0.2-0.4-0.2-0.6
	c0-0.2,0.1-0.4,0.2-0.6C31.2,247.3,31.4,247.2,31.6,247.2L31.6,247.2z M31.6,266.1c0.2,0,0.5,0.1,0.6,0.3c0.2,0.2,0.3,0.4,0.3,0.6
	c0,0.2-0.1,0.4-0.3,0.6c-0.2,0.2-0.4,0.3-0.6,0.3c-0.2,0-0.5-0.1-0.6-0.3c-0.2-0.2-0.2-0.4-0.2-0.6c0-0.2,0.1-0.4,0.2-0.6
	C31.2,266.2,31.4,266.1,31.6,266.1L31.6,266.1z M31.6,271.2c0.2,0,0.5,0.1,0.6,0.3c0.2,0.2,0.3,0.4,0.3,0.6c0,0.2-0.1,0.4-0.3,0.6
	c-0.2,0.2-0.4,0.3-0.6,0.3c-0.2,0-0.5-0.1-0.6-0.3c-0.2-0.2-0.2-0.4-0.2-0.6c0-0.2,0.1-0.4,0.2-0.6
	C31.2,271.3,31.4,271.2,31.6,271.2L31.6,271.2z M31.6,290.1c0.2,0,0.5,0.1,0.6,0.3c0.2,0.2,0.3,0.4,0.3,0.6c0,0.2-0.1,0.4-0.3,0.6
	c-0.2,0.2-0.4,0.3-0.6,0.3c-0.2,0-0.5-0.1-0.6-0.3c-0.2-0.2-0.2-0.4-0.2-0.6c0-0.2,0.1-0.4,0.2-0.6
	C31.2,290.2,31.4,290.1,31.6,290.1L31.6,290.1z M31.6,295.2c0.2,0,0.5,0.1,0.6,0.3c0.2,0.2,0.3,0.4,0.3,0.6c0,0.2-0.1,0.4-0.3,0.6
	c-0.2,0.2-0.4,0.3-0.6,0.3c-0.2,0-0.5-0.1-0.6-0.3c-0.2-0.2-0.2-0.4-0.2-0.6c0-0.2,0.1-0.4,0.2-0.6
	C31.2,295.3,31.4,295.2,31.6,295.2L31.6,295.2z M31.6,314.1c0.2,0,0.5,0.1,0.6,0.3c0.2,0.2,0.3,0.4,0.3,0.6c0,0.2-0.1,0.4-0.3,0.6
	c-0.2,0.2-0.4,0.3-0.6,0.3c-0.2,0-0.5-0.1-0.6-0.3c-0.2-0.2-0.2-0.4-0.2-0.6c0-0.2,0.1-0.4,0.2-0.6
	C31.2,314.2,31.4,314.1,31.6,314.1L31.6,314.1z M31.6,319.2c0.2,0,0.5,0.1,0.6,0.3c0.2,0.2,0.3,0.4,0.3,0.6c0,0.2-0.1,0.4-0.3,0.6
	c-0.2,0.2-0.4,0.3-0.6,0.3c-0.2,0-0.5-0.1-0.6-0.3c-0.2-0.2-0.2-0.4-0.2-0.6c0-0.2,0.1-0.4,0.2-0.6
	C31.2,319.3,31.4,319.2,31.6,319.2L31.6,319.2z M31.6,338.1c0.2,0,0.5,0.1,0.6,0.3c0.2,0.2,0.3,0.4,0.3,0.6c0,0.2-0.1,0.4-0.3,0.6
	c-0.2,0.2-0.4,0.3-0.6,0.3c-0.2,0-0.5-0.1-0.6-0.3c-0.2-0.2-0.2-0.4-0.2-0.6c0-0.2,0.1-0.4,0.2-0.6
	C31.2,338.2,31.4,338.1,31.6,338.1L31.6,338.1z M31.6,343.2c0.2,0,0.5,0.1,0.6,0.3c0.2,0.2,0.3,0.4,0.3,0.6c0,0.2-0.1,0.4-0.3,0.6
	c-0.2,0.2-0.4,0.3-0.6,0.3c-0.2,0-0.5-0.1-0.6-0.3c-0.2-0.2-0.2-0.4-0.2-0.6c0-0.2,0.1-0.4,0.2-0.6
	C31.2,343.3,31.4,343.2,31.6,343.2L31.6,343.2z M547.7,227.6h1.5c0,1.4,0,2.6-0.1,3.6c0.8,4.1,3.3,7.6,6.9,9.7l-1,1.3
	c-3-2-5.3-4.8-6.4-8.2c-1.2,3.5-3.5,6.4-6.6,8.3L541,241c4.3-2.6,6.5-6.2,6.7-10.8C547.7,229.1,547.7,228.2,547.7,227.6z M548.9,263
	h3.1c0.2,0,0.5-0.1,0.6-0.2c0.2-0.5,0.3-1,0.2-1.5l1.3,0.4c0,0.8-0.1,1.5-0.5,2.2c-0.4,0.3-0.9,0.4-1.4,0.4h-3.6
	c-1,0.1-1.8-0.6-1.9-1.6c0-0.2,0-0.3,0-0.5v-1.6h-3.1v1.1h-1.3v-8.3h4.4v-1.8h1.3v1.8h4.5v7.2H548v1.4c-0.1,0.5,0.2,0.9,0.7,1
	C548.7,263,548.8,263,548.9,263L548.9,263z M546.7,254.6h-3.1v1.8h3.1V254.6z M546.7,257.6h-3.1v1.8h3.1V257.6z M551.2,254.6H548
	v1.8h3.2V254.6z M551.2,259.3v-1.8H548v1.8H551.2z M550.2,316.2c1.2,0.8,2.2,1.7,3.2,2.6l-1.1,1.1c-0.9-1-2-2-3.1-2.8L550.2,316.2z
	 M547.2,310.7l1.7-0.3c0.2,0.4,0.3,0.8,0.5,1.3h6.3v1.5h-3.4c-0.2,0.6-0.5,1.1-0.8,1.6h3.4v8.6c0,1.2-0.5,1.8-1.6,1.8h-1.6l-0.4-1.4
	l1.5,0c0.4,0,0.6-0.3,0.6-0.8v-6.9h-10v2.5c1.2-0.6,2.3-1.5,3.2-2.5l1.1,0.9c-0.7,0.8-1.4,1.5-2.3,2.1h6.1v4.2h-6.3v-4.1
	c-0.3,0.2-0.6,0.4-0.9,0.6l-0.9-1.2v6.5h-1.5v-10.4h3.3c-0.2-0.6-0.5-1.1-0.8-1.6h-3.2v-1.5h6.3C547.6,311.4,547.4,311,547.2,310.7
	L547.2,310.7z M546.9,322.2h3.3v-1.5h-3.3V322.2z M546.3,313.2c0.2,0.5,0.5,1.1,0.6,1.6h2.9c0.3-0.5,0.5-1.1,0.8-1.6H546.3z
	 M546.7,334.5h1.3v1.8h4.5v7.2H548v1.4c-0.1,0.5,0.2,0.9,0.7,1c0.1,0,0.1,0,0.2,0h3.1c0.2,0,0.5-0.1,0.6-0.2c0.2-0.5,0.3-1,0.2-1.5
	l1.3,0.4c0,0.8-0.1,1.5-0.5,2.2c-0.4,0.3-0.9,0.4-1.4,0.4h-3.6c-1,0.1-1.8-0.6-1.9-1.6c0-0.2,0-0.3,0-0.5v-1.6h-3.1v1.1h-1.3v-8.3
	h4.4V334.5z M548,342.3h3.2v-1.8H548V342.3z M548,339.4h3.2v-1.8H548V339.4z M543.5,342.3h3.1v-1.8h-3.1V342.3z M543.5,337.6v1.8
	h3.1v-1.8H543.5z M558.3,344.6c0.4-0.4,0.9-0.8,1.3-1.2l0.4,1.4c-0.9,0.8-1.8,1.6-2.8,2.2l-0.5-1.2c0.2-0.2,0.3-0.4,0.3-0.7V340h-2
	v-1.3h3.2L558.3,344.6L558.3,344.6z M563.3,339.8h-3.7v-1.3h3.7v-1.9c-1,0.1-2,0.1-3.1,0.1l-0.4-1.2c2.4,0.1,4.9-0.3,7.2-0.9
	l0.6,1.1c-1,0.3-2,0.6-3,0.7v2.1h3.5v1.3h-3.5v1.9h2.6v5.7h-1.3v-0.6h-4v0.6h-1.3v-5.7h2.6V339.8L563.3,339.8z M562,342.9v2.6h4
	v-2.6L562,342.9L562,342.9z M565.2,325.2l-0.4-1.4c0.8,0,1.5,0.1,2,0.1c0.6,0.1,1.1-0.1,1.5-0.5c0.3-0.8,0.4-1.7,0.4-2.6h-4.3
	c-0.1,0.4-0.3,0.7-0.5,1.1c-0.8,1.4-2.7,2.6-5.6,3.6l-1-1.2c2.6-0.8,4.3-1.7,5.1-2.8c0.1-0.2,0.2-0.4,0.4-0.6h-4.5v-1.4h5
	c0.1-0.5,0.2-1.1,0.2-1.6h1.5c0,0.5,0,1.1-0.1,1.6h5.5c0,2.8-0.3,4.5-0.7,5c-0.6,0.6-1.5,0.9-2.4,0.8
	C566.7,325.3,566,325.2,565.2,325.2L565.2,325.2z M572,337.3c0.3,0,0.6,0.1,0.8,0.3c0.4,0.4,0.4,1,0,1.5c0,0,0,0,0,0
	c-0.2,0.2-0.5,0.3-0.8,0.3c-0.6,0-1-0.5-1-1.1c0-0.3,0.1-0.5,0.3-0.7C571.5,337.4,571.8,337.3,572,337.3L572,337.3z M572,342.4
	c0.3,0,0.6,0.1,0.8,0.3c0.4,0.4,0.4,1,0,1.5c0,0,0,0,0,0c-0.2,0.2-0.5,0.3-0.8,0.3c-0.6,0-1-0.5-1-1.1c0-0.3,0.1-0.5,0.3-0.7
	C571.5,342.5,571.8,342.4,572,342.4L572,342.4z M587.6,162.5l-1.3,0.9c-0.6-1.1-1.4-2.2-2.2-3.2l1.2-0.8
	C586.2,160.4,586.9,161.4,587.6,162.5L587.6,162.5z M579.5,242.3v-6.9h7.6v6.9h-1.5v-0.6H581v0.6H579.5L579.5,242.3z M585.6,240.3
	v-3.4H581v3.4L585.6,240.3L585.6,240.3z M579.8,163.1l-1.5,0.4c-0.2-1-0.4-2-0.8-3l1.4-0.3C579.3,161.1,579.6,162.1,579.8,163.1
	L579.8,163.1z M572,102.4c0.3,0,0.6,0.1,0.8,0.3c0.4,0.4,0.4,1,0,1.5c0,0,0,0,0,0c-0.2,0.2-0.5,0.3-0.8,0.3c-0.6,0-1-0.5-1-1.1
	c0-0.3,0.1-0.5,0.3-0.7C571.5,102.5,571.8,102.4,572,102.4L572,102.4z M571.1,151.1c-0.5,1-1.2,1.9-2.1,2.5c0.9,0.4,1.9,0.7,2.9,0.9
	l-0.6,1.4c-1.3-0.3-2.6-0.8-3.8-1.4c-1.2,0.6-2.6,1.1-3.9,1.4l-0.6-1.4c1.1-0.2,2.1-0.5,3.1-1c-0.5-0.4-0.9-0.9-1.3-1.4
	c-0.3,0.3-0.6,0.5-0.9,0.7l-0.9-1.1c1.2-0.8,2.1-1.9,2.6-3.3l1.5,0.2c-0.1,0.4-0.3,0.7-0.5,1h4.4L571.1,151.1L571.1,151.1z
	 M565.8,151.2C565.8,151.2,565.8,151.2,565.8,151.2c0.4,0.7,1,1.3,1.7,1.7c0.7-0.4,1.4-1,1.9-1.7H565.8z M558.3,104.6
	c0.4-0.4,0.9-0.8,1.3-1.2l0.4,1.4c-0.9,0.8-1.8,1.6-2.8,2.2l-0.5-1.2c0.2-0.2,0.3-0.4,0.3-0.7V100h-2v-1.3h3.2L558.3,104.6
	L558.3,104.6z M555.1,178v-1.3h3.2v6c0.4-0.4,0.9-0.8,1.3-1.2l0.4,1.4c-0.9,0.8-1.8,1.6-2.8,2.2l-0.5-1.2c0.2-0.2,0.3-0.4,0.3-0.7
	V178H555.1L555.1,178z M559.3,253.7l-0.9,0.9c-0.7-0.8-1.5-1.5-2.3-2.1l0.9-0.9C557.8,252.2,558.6,252.9,559.3,253.7L559.3,253.7z
	 M559.3,336.7l-0.9,0.9c-0.7-0.8-1.5-1.5-2.3-2.1l0.9-0.9C557.8,335.2,558.6,335.9,559.3,336.7L559.3,336.7z M555.1,257v-1.3h3.2v6
	c0.4-0.4,0.9-0.8,1.3-1.2l0.4,1.4c-0.9,0.8-1.8,1.6-2.8,2.2l-0.5-1.2c0.2-0.2,0.3-0.4,0.3-0.7V257H555.1L555.1,257z M564.6,316.8
	c-2.1,0.9-4.4,1.6-6.7,1.9l-0.7-1.4c2-0.2,3.9-0.7,5.7-1.3c-0.7-0.4-1.5-0.9-2.1-1.5c-0.6,0.5-1.2,0.9-1.8,1.3l-0.9-1.2
	c1.7-0.9,3-2.2,3.8-3.9l1.6,0.2c-0.2,0.4-0.3,0.7-0.5,1.1h6.9v1.2c-1,1.1-2.2,2.1-3.5,2.9c1.8,0.7,3.8,1.1,5.7,1.3l-0.7,1.4
	C569,318.4,566.7,317.8,564.6,316.8L564.6,316.8z M567.5,313.3h-5.6c0,0-0.1,0.1-0.1,0.1c0.9,0.7,1.8,1.3,2.8,1.8
	C565.6,314.7,566.6,314,567.5,313.3L567.5,313.3z M572,261.5c-0.6,0-1-0.5-1-1.1c0-0.3,0.1-0.5,0.3-0.7c0.2-0.2,0.5-0.3,0.7-0.3
	c0.3,0,0.6,0.1,0.8,0.3c0.4,0.4,0.4,1,0,1.5c0,0,0,0,0,0C572.6,261.4,572.3,261.5,572,261.5L572,261.5z M572.8,182.2
	c-0.2,0.2-0.5,0.3-0.8,0.3c-0.6,0-1-0.5-1-1.1c0-0.3,0.1-0.5,0.3-0.7c0.2-0.2,0.5-0.3,0.7-0.3c0.3,0,0.6,0.1,0.8,0.3
	C573.2,181.1,573.2,181.8,572.8,182.2C572.8,182.2,572.8,182.2,572.8,182.2L572.8,182.2z M572.8,175.6c0.4,0.4,0.4,1,0,1.5
	c0,0,0,0,0,0c-0.2,0.2-0.5,0.3-0.8,0.3c-0.6,0-1-0.5-1-1.1c0-0.3,0.1-0.5,0.3-0.7c0.2-0.2,0.5-0.3,0.7-0.3
	C572.3,175.3,572.6,175.4,572.8,175.6L572.8,175.6z M572,254.3c0.3,0,0.6,0.1,0.8,0.3c0.4,0.4,0.4,1,0,1.5c0,0,0,0,0,0
	c-0.2,0.2-0.5,0.3-0.8,0.3c-0.6,0-1-0.5-1-1.1c0-0.3,0.1-0.5,0.3-0.7C571.5,254.4,571.8,254.3,572,254.3L572,254.3z M559.5,256.8
	v-1.3h3.7v-1.9c-1,0.1-2,0.1-3.1,0.1l-0.4-1.2c2.4,0.1,4.9-0.3,7.2-0.9l0.6,1.1c-1,0.3-2,0.6-3,0.7v2.1h3.5v1.3h-3.5v1.9h2.6v5.7
	h-1.3v-0.6h-4v0.6h-1.3v-5.7h2.6v-1.9L559.5,256.8L559.5,256.8z M562,259.9v2.6h4v-2.6H562z M557.6,229.7v-1.3h6.1v-0.8h1.5v0.8h6.1
	v1.3h-6.1v0.8h4.7v3.3h-4.7v0.8h5v2.1h1.6v1.2h-1.6v2.1h-5v0.8c0.1,0.7-0.5,1.4-1.2,1.5c-0.1,0-0.3,0-0.4,0h-2l-0.3-1.4
	c0.6,0.1,1.2,0.1,1.8,0.1c0.3,0.1,0.5-0.1,0.6-0.4c0,0,0-0.1,0-0.1V240h-5.1v-1.2h5.1v-0.9h-6.6v-1.2h6.6v-0.9h-5.1v-1.2h5.1v-0.8
	h-4.7v-3.3h4.7v-0.8L557.6,229.7L557.6,229.7z M565.3,238.8h3.5v-0.9h-3.5V238.8z M565.3,236.7h3.5v-0.9h-3.5V236.7z M565.3,232.6
	h3.2v-1h-3.2V232.6z M560.6,231.6v1h3.2v-1H560.6L560.6,231.6z M567.6,173.7c-1,0.3-2,0.6-3,0.7v2.1h3.5v1.3h-3.5v1.9h2.6v5.7h-1.3
	v-0.6h-4v0.6h-1.3v-5.7h2.6v-1.9h-3.7v-1.3h3.7v-1.9c-1,0.1-2,0.1-3.1,0.1l-0.4-1.2c2.4,0.1,4.9-0.3,7.2-0.9L567.6,173.7z
	 M562,180.9v2.6h4v-2.6L562,180.9L562,180.9z M562.8,160.5h-1.4v-9.1h1.4L562.8,160.5L562.8,160.5z M558.4,175.6
	c-0.7-0.8-1.5-1.5-2.3-2.1l0.9-0.9c0.8,0.6,1.6,1.3,2.3,2.1L558.4,175.6z M561.8,149.2c-0.4,1.2-0.8,2.3-1.4,3.4v10.8h-1.5v-8.5
	c-0.4,0.6-0.9,1.1-1.4,1.7l-0.4-1.5c1.5-1.9,2.7-4.1,3.3-6.5L561.8,149.2z M571.8,158.8c-0.8,1.2-2,2.2-3.2,2.9
	c-1.4,0.8-2.9,1.4-4.5,1.8l-0.6-1.4c1.5-0.4,3-0.9,4.4-1.7c1.1-0.6,2.1-1.5,2.9-2.5L571.8,158.8z M564.4,158.3l-0.7-1.2
	c0.8-0.2,1.6-0.4,2.4-0.7c0.6-0.3,1.2-0.6,1.8-1l1.1,0.7c-0.6,0.5-1.2,0.9-1.8,1.2C566.2,157.7,565.3,158,564.4,158.3L564.4,158.3z
	 M570.4,157.3c-1.5,1.7-3.5,2.8-5.7,3.3l-0.6-1.3c2-0.4,3.9-1.4,5.3-2.8L570.4,157.3z M573.2,162.6c0.8-0.9,1.5-1.8,2-2.9l1.3,0.6
	c-0.5,1.1-1.2,2.2-2,3.2L573.2,162.6z M573.4,237.5l-0.4-1.6c0.8-0.2,1.5-0.4,2.2-0.7v-3.3h-1.9v-1.5h1.9v-2.8h1.5v2.8h1.8v1.5h-1.8
	v2.7c0.5-0.3,1-0.5,1.5-0.8v1.5c-0.5,0.3-1,0.5-1.5,0.8v4.5c0.1,0.8-0.4,1.5-1.2,1.6c-0.1,0-0.3,0-0.4,0h-1.4l-0.3-1.5
	c0.4,0,0.8,0.1,1.2,0.1c0.3,0,0.6-0.1,0.6-0.4c0,0,0-0.1,0-0.1v-3.4C574.7,237,574.1,237.2,573.4,237.5L573.4,237.5z M542.2,182.7
	v-8.3h4.4v-1.8h1.3v1.8h4.5v7.2H548v1.4c-0.1,0.5,0.2,0.9,0.7,1c0.1,0,0.1,0,0.2,0h3.1c0.2,0,0.5-0.1,0.6-0.2c0.2-0.5,0.3-1,0.2-1.5
	l1.3,0.4c0,0.8-0.1,1.5-0.5,2.2c-0.4,0.3-0.9,0.4-1.4,0.4h-3.6c-1,0.1-1.8-0.6-1.9-1.6c0-0.2,0-0.3,0-0.5v-1.6h-3.1v1.1L542.2,182.7
	L542.2,182.7z M548,180.3h3.2v-1.8H548V180.3z M548,177.3h3.2v-1.8H548V177.3z M546.7,175.6h-3.1v1.8h3.1L546.7,175.6L546.7,175.6z
	 M546.7,180.3v-1.8h-3.1v1.8H546.7L546.7,180.3z M541.4,152.9v-1.5h2.2v-2.8h1.5v2.8h1.7v1.5h-1.7v2.8c0.6-0.3,1.2-0.5,1.7-0.8v1.5
	c-0.6,0.3-1.1,0.5-1.7,0.8v4.6c0.1,0.8-0.4,1.5-1.2,1.6c-0.1,0-0.3,0-0.4,0H542l-0.4-1.5c0.4,0.1,0.9,0.1,1.3,0.1
	c0.3,0,0.6-0.2,0.6-0.5c0,0,0-0.1,0-0.1v-3.6c-0.7,0.3-1.4,0.5-2.1,0.7l-0.4-1.5c0.8-0.2,1.7-0.4,2.5-0.7v-3.4L541.4,152.9
	L541.4,152.9z M548.9,106h3.1c0.2,0,0.5-0.1,0.6-0.2c0.2-0.5,0.3-1,0.2-1.5l1.3,0.4c0,0.8-0.1,1.5-0.5,2.2c-0.4,0.3-0.9,0.4-1.4,0.4
	h-3.6c-1,0.1-1.8-0.6-1.9-1.6c0-0.2,0-0.3,0-0.5v-1.6h-3.1v1.1h-1.3v-8.3h4.4v-1.8h1.3v1.8h4.5v7.2H548v1.4c-0.1,0.5,0.2,0.9,0.7,1
	C548.7,106,548.8,106,548.9,106L548.9,106z M546.7,97.6h-3.1v1.8h3.1L546.7,97.6L546.7,97.6z M546.7,100.6h-3.1v1.8h3.1L546.7,100.6
	L546.7,100.6z M551.2,97.6H548v1.8h3.2V97.6z M551.2,102.3v-1.8H548v1.8H551.2z M556,162.2l-1,1.2c-0.9-0.5-1.7-1.2-2.5-1.9
	c-0.8,0.8-1.7,1.4-2.7,1.9l-0.7-1.3c0.9-0.4,1.7-1,2.4-1.7c-1-1.2-1.6-2.6-1.9-4.1h-0.7v7.1h-1.4v-14.2h7.4c0.1,1.3,0,2.5-0.3,3.8
	c-0.2,0.6-0.8,0.9-1.9,0.9h-1.2l-0.4-1.3c0.2,0,0.5,0,0.9,0c0.3,0,0.6,0,0.8,0c0.2-0.1,0.3-0.2,0.4-0.3c0.2-0.5,0.2-1.1,0.2-1.6
	h-4.5v4.3h6.1v1.3c-0.2,1.5-0.7,2.9-1.5,4.2C554.2,161.1,555.1,161.7,556,162.2L556,162.2z M553.5,156.2h-2.6c0.2,1.1,0.7,2.1,1.4,3
	C552.9,158.3,553.3,157.3,553.5,156.2L553.5,156.2z M568.1,98.5v1.3h-3.5v1.9h2.6v5.7h-1.3v-0.6h-4v0.6h-1.3v-5.7h2.6v-1.9h-3.7
	v-1.3h3.7v-1.9c-1,0.1-2,0.1-3.1,0.1l-0.4-1.2c2.4,0.1,4.9-0.3,7.2-0.9l0.6,1.1c-1,0.3-2,0.6-3,0.7v2.1L568.1,98.5L568.1,98.5z
	 M562,102.9v2.6h4v-2.6L562,102.9L562,102.9z M573.2,84.6c0.8-0.9,1.5-1.8,2-2.9l1.3,0.6c-0.5,1.1-1.2,2.2-2,3.2L573.2,84.6z
	 M577.6,82.4l1.4-0.3c0.3,1,0.6,1.9,0.9,2.9l-1.5,0.4C578.1,84.4,577.9,83.4,577.6,82.4L577.6,82.4z M578.9,153.5v1.5
	c-0.6,0.2-1.1,0.3-1.7,0.5v2.3c0.1,0.7-0.4,1.4-1.1,1.6c-0.1,0-0.2,0-0.4,0h-1.5l-0.3-1.5c0.4,0.1,0.9,0.1,1.3,0.1
	c0.3,0,0.5-0.2,0.5-0.5c0,0,0-0.1,0-0.1v-1.6c-0.7,0.2-1.5,0.3-2.2,0.4l-0.3-1.4c0.9-0.1,1.7-0.3,2.6-0.4v-2.4h-2.1v-1.5h2.1v-1.9
	h1.5v1.9h1.8v1.5h-1.8v2.1C577.7,153.9,578.3,153.7,578.9,153.5L578.9,153.5z M582.3,159.9c0.5,1,0.9,2.1,1.2,3.1l-1.5,0.4
	c-0.3-1.1-0.6-2.2-1.1-3.2L582.3,159.9z M586.8,233.8c-0.4,0.6-1.1,1-1.9,0.9c-0.3,0-0.8,0-1.2-0.1l-0.4-1.3c0.5,0,0.9,0.1,1.2,0.1
	c0.5,0,0.9-0.2,1.1-0.7c0.2-1,0.3-2.1,0.3-3.1h-2.7c-0.2,1.1-0.6,2.1-1.1,3.1c-0.6,1-1.5,1.8-2.5,2.4l-0.9-1.2
	c0.8-0.5,1.6-1.1,2.1-1.9c0.4-0.7,0.7-1.6,0.9-2.4h-2.5v-1.4h8.2C587.3,231.3,587.2,233.1,586.8,233.8L586.8,233.8z M580,310.5h1.1
	c1.9,2.2,4.3,4,6.9,5.4l-0.8,1.5c-0.9-0.5-1.7-1-2.5-1.5v1.1h-8.4v-1.2c-0.8,0.6-1.7,1.1-2.5,1.6L573,316
	C575.7,314.6,578,312.8,580,310.5L580,310.5z M584.3,315.5c-1.4-1-2.7-2.3-3.8-3.6c-1.1,1.4-2.4,2.6-3.8,3.6H584.3z M585.8,325.3
	h-1.5v-0.9h-7.5v0.9h-1.5v-6.6h10.4L585.8,325.3L585.8,325.3z M584.3,320.1h-7.5v2.9h7.5V320.1L584.3,320.1z M597.8,310.8
	c-0.2,0.7-0.5,1.3-0.7,1.9h6.6v1.5h-5.1v2.3h4.5v1.5h-4.5v2.4h4.5v1.5h-4.5v3.6H597v-11.2h-0.6c-0.7,1.4-1.5,2.8-2.5,4l-1.1-1.3
	c1.5-1.9,2.7-4.1,3.4-6.4L597.8,310.8z M598.3,237.8h4.8c-0.1,2.2-0.3,3.5-0.7,3.9c-0.6,0.5-1.4,0.7-2.1,0.6c-0.6,0-1.2,0-1.8-0.1
	l-0.5-1.3c0.7,0.1,1.3,0.1,2,0.1c0.5,0.1,0.9-0.1,1.3-0.3c0.2-0.5,0.3-1.1,0.3-1.6h-5.2l0.9-2.3h-2.1v-1.3h8.7v1.3h-5.1L598.3,237.8
	z M600.3,227.7v1.2h3v5.7h-7.4v-5.7h3v-1.2L600.3,227.7L600.3,227.7z M600.3,233.3h1.6v-1h-1.6V233.3z M600.3,231.1h1.6v-1.1h-1.6
	V231.1z M597.3,233.3h1.6v-1h-1.6V233.3z M597.3,230.1v1.1h1.6v-1.1H597.3z M594.9,159.9v1.4c-1.7,0.7-3.5,1.1-5.3,1.5l-0.2-1.5
	C591.2,161,593.1,160.6,594.9,159.9L594.9,159.9z M593.4,242.4v-2.8c-1.2,0.4-2.5,0.7-3.8,0.9l-0.3-1.5l0.9-0.1v-9.4h-0.7v-1.4h6.1
	v1.4h-0.8v8.2c0.2-0.1,0.4-0.1,0.6-0.2v1.5c-0.2,0.1-0.4,0.1-0.6,0.2v3.2L593.4,242.4L593.4,242.4z M593.4,229.5h-1.9v2h1.9V229.5
	L593.4,229.5z M593.4,232.9h-1.9v1.9h1.9V232.9z M593.4,236.2h-1.9v2.4c0.6-0.1,1.2-0.3,1.9-0.5V236.2z M589.4,83.3
	c1.9-0.3,3.7-0.8,5.5-1.4v1.4c-1.7,0.7-3.5,1.1-5.3,1.5L589.4,83.3z M593.6,151.8l1.4,0.5c-0.9,1.9-2,3.7-3.3,5.5
	c1.1-0.2,2.1-0.5,3.1-0.9v1.4c-1.6,0.5-3.2,0.9-4.9,1.2l-0.4-1.4c0.3-0.1,0.5-0.2,0.7-0.4c0.7-0.8,1.3-1.8,1.8-2.7
	c-0.8,0.1-1.6,0.2-2.4,0.3l-0.4-1.4c0.3-0.1,0.5-0.3,0.6-0.6c0.8-1.5,1.5-3.2,2-4.8l1.5,0.6c-0.6,1.6-1.4,3.2-2.3,4.7
	c0.6-0.1,1.1-0.1,1.7-0.2C593,153,593.3,152.4,593.6,151.8L593.6,151.8z M600.7,148.5c0.6,0.6,1.2,1.2,1.8,1.9l-1.2,0.8
	c-0.5-0.7-1.1-1.4-1.8-2L600.7,148.5z M601.7,161.5c0.4,0,0.7-0.8,0.9-2.3l1.3,0.9c-0.5,2-1.2,3.1-2,3.1c-1-0.1-1.8-0.7-2.3-1.5
	c-0.1-0.1-0.2-0.3-0.3-0.4c-1.1,0.8-2.3,1.4-3.7,1.8l-0.9-1.2c1.4-0.4,2.7-1.1,3.8-1.9c-0.3-0.7-0.5-1.5-0.7-2.2
	c-0.1-0.3-0.2-0.7-0.2-1l-2.7,0.4l-0.2-1.4l2.8-0.4c-0.1-0.6-0.1-1.2-0.1-1.8l-2.1,0.3l-0.2-1.4l2.3-0.3v-3.4h1.5v3.2l3.8-0.5
	l0.2,1.4l-4,0.6c0,0.6,0.1,1.2,0.1,1.8l4.1-0.6l0.2,1.4l-4.2,0.7l0.1,0.5c0.1,0.7,0.3,1.4,0.5,2c0.8-0.7,1.4-1.5,2-2.4l1.2,0.8
	c-0.7,1.1-1.6,2.1-2.6,3C600.6,161,601.1,161.4,601.7,161.5L601.7,161.5z"/>
</svg>
