<?xml version="1.0" encoding="utf-8"?>
<!-- Generator: Adobe Illustrator 22.0.1, SVG Export Plug-In . SVG Version: 6.00 Build 0)  -->
<svg version="1.1" id="教育" xmlns="http://www.w3.org/2000/svg" xmlns:xlink="http://www.w3.org/1999/xlink" x="0px" y="0px"
	 viewBox="0 0 300 44" style="enable-background:new 0 0 300 44;" xml:space="preserve">
<style type="text/css">
	.st0{fill:none;}
	.st1{fill:#D2D1D1;}
	.st2{fill:#FFCB0F;}
</style>
<path id="bg" class="st0" d="M150,44H0V0h300v44H150z"/>
<path id="教育_education" class="st1" d="M36.1,23H41v-2h1v4c0,0,0.1,7-7,7H24c-7.1,0-7-7-7-7v-2c0,1.1-1,2.3-1,4s2,0.9,2,4
	s-2.1,5-3,5s-3,0.7-3-2s3.2-4.5,3-6s-1.3-1.1,0-3c0.7-1.4,1.1-2.9,1-4.5L10,18l19-7l19,7L36.1,23z M13,34c0,1.8,2.3,1.5,3,0
	c0.7-1.5,1.5-3.8,0-4C16,30,13,32.2,13,34z M18,25c0,5.6,6,6,6,6h11c0,0,6-0.4,6-6v-1h-5v-1l-7,3l-6-2.5V24h-5V25z M18,23h3.9
	L18,21.3V23z M17,21h0.2H17L17,21z M13,18l16,7l16-7l-16-6L13,18z M70.8,22.1c-1-0.9-1.9-1.9-2.6-3.1c0.9-1.8,1.3-3.7,1.3-5.7h0.9
	v-1h-3.6c0.2-0.7,0.3-1.3,0.4-2l-1-0.2c-0.2,2.1-0.9,4-2,5.8l0.6,0.8c0.4-0.5,0.7-1,0.9-1.5c0.3,1.3,0.8,2.5,1.4,3.7
	c-0.8,1.3-1.9,2.4-3.2,3.1l0.6,0.9c1.3-0.8,2.4-1.8,3.2-3.1c0.7,1.1,1.6,2.2,2.5,3.1L70.8,22.1z M68.6,13.2c0,1.6-0.4,3.2-1,4.7
	c-0.6-1.2-1.1-2.5-1.4-3.9l0.3-0.8H68.6z M58.8,12.3h1.8v1.4h-2.5v0.9h3.5c-0.4,0.4-0.9,0.9-1.3,1.3h-1.5v0.9h0.3
	c-0.4,0.3-0.8,0.6-1.3,0.8l0.6,0.7c0.8-0.4,1.5-0.9,2.2-1.5h2.2c-0.5,0.5-0.9,0.9-1.5,1.3v1c-1.1,0.1-2.2,0.2-3.2,0.3l0.1,1
	c1-0.1,2-0.2,3.1-0.3v1.2c0.1,0.3-0.1,0.6-0.4,0.6c0,0-0.1,0-0.2,0c-0.3,0-0.7,0-1.3-0.1l0.3,0.9h1.4c0.6,0.1,1.1-0.3,1.2-0.9
	c0-0.1,0-0.2,0-0.3V20c0.8-0.1,1.7-0.3,2.5-0.5v-0.9c-0.8,0.2-1.7,0.4-2.5,0.5v-0.7c0.6-0.5,1.2-1.1,1.7-1.7V16h-2.4
	c0.4-0.4,0.7-0.8,1.1-1.3h1.8v-0.9h-1c0.6-0.8,1.1-1.7,1.6-2.6l-0.8-0.4c-0.5,1.1-1.2,2.1-1.9,3h-0.8v-1.4h1.5v-0.9h-1.5v-1.2h-1
	v1.2h-1.8L58.8,12.3L58.8,12.3z M72.1,12.3h3.7c-0.7,0.6-1.4,1.1-2.2,1.6C73.4,14,73.3,14,73.1,14l0.2,0.9c3.9-0.1,6.9-0.3,9-0.5
	c0.4,0.4,0.7,0.7,1.1,1.1l0.8-0.6c-0.9-1-1.9-1.9-2.9-2.7h3.3v-1H79c-0.2-0.4-0.4-0.9-0.6-1.3l-1.2,0.2c0.2,0.4,0.4,0.7,0.6,1.1H72
	L72.1,12.3L72.1,12.3z M81.2,12.3l-0.7,0.4c0.4,0.3,0.7,0.6,1.1,1c-2,0.2-4.2,0.3-6.8,0.4c0.8-0.5,1.6-1.1,2.2-1.8
	C77,12.3,81.2,12.3,81.2,12.3z M81.5,18.7v1.1h-6.4v-1.1C75.2,18.7,81.5,18.7,81.5,18.7z M75.2,17.8v-1.2h6.4v1.2H75.2L75.2,17.8z
	 M81.5,20.6v0.8c0,0.3-0.2,0.6-0.5,0.6h-0.1h-1.4l0.3,1h1.4c0.6,0.1,1.2-0.3,1.3-1c0-0.1,0-0.2,0-0.3v-5.9h-8.4V23h1v-2.3
	C75.2,20.6,81.5,20.6,81.5,20.6z M60.6,29.5c-0.8,0-1.6,0.3-2.1,1c-0.5,0.6-0.8,1.5-0.8,2.3c0,0.9,0.2,1.7,0.8,2.4
	c0.5,0.6,1.3,0.9,2.1,0.9c0.7,0,1.4-0.2,2-0.7c0.4-0.4,0.7-0.9,0.8-1.5h-1c-0.1,0.4-0.3,0.7-0.6,1c-0.4,0.3-0.8,0.4-1.2,0.4
	c-0.5,0-1-0.2-1.4-0.6c-0.4-0.5-0.6-1-0.6-1.6h4.9c0-0.9-0.2-1.8-0.7-2.5C62.3,29.8,61.5,29.4,60.6,29.5L60.6,29.5L60.6,29.5z
	 M60.6,30.3c1-0.1,1.9,0.7,2,1.7c0,0.1,0,0.2,0,0.3h-3.9c0-0.5,0.2-1,0.6-1.5C59.7,30.4,60.1,30.2,60.6,30.3
	C60.7,30.3,60.7,30.3,60.6,30.3z M69.6,30.8c-0.4-0.8-1.2-1.3-2-1.3s-1.6,0.3-2.1,1c-0.5,0.6-0.7,1.4-0.7,2.3c0,0.8,0.2,1.6,0.7,2.3
	s1.3,1,2.1,1c0.9,0,1.7-0.4,2.1-1.2v1h0.9v-8.7h-1V30.8L69.6,30.8z M67.8,30.3c0.5,0,1,0.2,1.4,0.7s0.5,1.1,0.5,1.8v0.1
	c0,0.6-0.1,1.2-0.5,1.7c-0.3,0.5-0.9,0.7-1.5,0.7s-1.2-0.2-1.5-0.7s-0.5-1.1-0.4-1.8c0-0.6,0.1-1.2,0.5-1.7
	C66.6,30.5,67.2,30.2,67.8,30.3L67.8,30.3L67.8,30.3z M72.1,33.5c0,1.7,0.8,2.5,2.3,2.5c0.8,0,1.6-0.4,2-1.1v1h1v-6.2h-1v3.8
	c-0.1,0.5-0.3,0.9-0.6,1.3c-0.3,0.3-0.7,0.5-1.1,0.5c-0.5,0-0.9-0.1-1.2-0.4c-0.3-0.4-0.4-0.8-0.4-1.3v-3.8h-1L72.1,33.5L72.1,33.5z
	 M81.7,29.5c-0.8,0-1.7,0.3-2.2,1s-0.8,1.5-0.7,2.3c0,0.8,0.2,1.6,0.7,2.3c0.5,0.6,1.3,1,2.2,0.9c0.7,0,1.3-0.2,1.8-0.6
	c0.5-0.5,0.8-1.1,0.9-1.8h-1c0,0.9-0.8,1.6-1.7,1.6h-0.1c-0.6,0-1.1-0.2-1.4-0.7c-0.4-0.5-0.5-1.2-0.5-1.8s0.1-1.3,0.5-1.8
	c0.3-0.4,0.9-0.7,1.4-0.7c0.4,0,0.8,0.1,1.2,0.3c0.3,0.3,0.5,0.7,0.6,1.1h0.9c-0.1-0.7-0.4-1.3-0.9-1.7C83,29.6,82.4,29.4,81.7,29.5
	L81.7,29.5L81.7,29.5z M88.8,29.5c-0.7,0-1.3,0.1-1.8,0.5s-0.9,0.9-0.9,1.6H87c0-0.4,0.3-0.7,0.6-1c0.3-0.2,0.8-0.3,1.2-0.3
	c0.8-0.1,1.5,0.4,1.6,1.2c0,0.1,0,0.3,0,0.4V32h-1.5c-0.7,0-1.4,0.1-2.1,0.5c-0.6,0.3-1,1-0.9,1.7c0,0.5,0.2,1,0.6,1.3
	S87.4,36,88,36c0.5,0,1.1-0.1,1.5-0.4c0.4-0.2,0.7-0.5,1-0.8v1h0.9v-4c0-0.6-0.2-1.2-0.6-1.7C90.2,29.7,89.5,29.4,88.8,29.5
	L88.8,29.5L88.8,29.5z M90.3,33.3c0,0.5-0.2,1-0.6,1.3c-0.4,0.4-1,0.6-1.6,0.6c-0.3,0-0.7-0.1-0.9-0.3c-0.2-0.2-0.3-0.5-0.3-0.7
	c0-0.9,0.7-1.4,2.1-1.4h1.4L90.3,33.3L90.3,33.3z M93.8,28v1.6h-1.2v0.8h1.2v3.9c0,0.4,0.1,0.8,0.3,1.1c0.3,0.3,0.7,0.4,1.1,0.4h0.9
	V35h-0.8c-0.2,0-0.3,0-0.5-0.2c-0.1-0.1-0.2-0.3-0.1-0.5v-4h1.5v-0.8h-1.5v-2L93.8,28z M97.8,27.3c-0.2,0-0.4,0.1-0.5,0.2
	s-0.2,0.3-0.2,0.5s0.1,0.4,0.2,0.5c0.3,0.3,0.7,0.3,1,0c0.1-0.1,0.2-0.3,0.2-0.5s-0.1-0.4-0.2-0.5C98.2,27.4,98,27.3,97.8,27.3
	L97.8,27.3L97.8,27.3z M97.4,35.8h1v-6.2h-1V35.8z M102.8,29.5c-0.8,0-1.7,0.3-2.2,1c-0.5,0.6-0.8,1.5-0.8,2.3s0.3,1.7,0.8,2.3
	c0.6,0.6,1.4,1,2.2,1c0.9,0,1.7-0.3,2.2-1c1-1.4,1-3.3,0-4.6C104.5,29.8,103.7,29.4,102.8,29.5L102.8,29.5z M102.8,30.3
	c0.6,0,1.2,0.3,1.5,0.8c0.7,1,0.7,2.4,0,3.4c-0.4,0.5-0.9,0.8-1.5,0.8s-1.2-0.3-1.5-0.8c-0.7-1-0.7-2.4,0-3.4
	C101.6,30.5,102.2,30.2,102.8,30.3L102.8,30.3z M109.9,29.5c-0.4,0-0.8,0.1-1.1,0.3c-0.3,0.2-0.6,0.5-0.8,0.8v-0.9h-1v6.2h1v-3.7
	c0-0.5,0.2-1,0.6-1.3c0.6-0.6,1.7-0.6,2.3,0c0.3,0.4,0.5,0.8,0.5,1.3v3.7h1V32C112.3,30.3,111.5,29.5,109.9,29.5L109.9,29.5z"/>
<path id="教育_education-2" class="st2" d="M186.1,23h4.9v-2h1v4c0,0,0.1,7-7,7h-11c-7.1,0-7-7-7-7v-2c0,1.1-1,2.3-1,4s2,0.9,2,4
	s-2.1,5-3,5s-3,0.7-3-2s3.2-4.5,3-6s-1.3-1.1,0-3c0.7-1.4,1.1-2.9,1-4.5l-6-2.5l19-7l19,7L186.1,23z M163,34c0,1.8,2.3,1.5,3,0
	s1.5-3.8,0-4C166,30,163,32.2,163,34z M168,25c0,5.6,6,6,6,6h11c0,0,6-0.4,6-6v-1h-5v-1l-7,3l-6-2.5V24h-5V25z M168,23h3.9l-3.9-1.7
	V23z M167,21h0.2H167L167,21z M163,18l16,7l16-7l-16-6L163,18z M220.9,22.1c-1-0.9-1.9-1.9-2.6-3.1c0.9-1.8,1.3-3.7,1.3-5.7h0.9v-1
	h-3.6c0.2-0.7,0.3-1.3,0.4-2l-1-0.2c-0.2,2.1-0.9,4-2,5.8l0.6,0.8c0.4-0.5,0.7-1,0.9-1.5c0.3,1.3,0.8,2.5,1.4,3.7
	c-0.8,1.3-1.9,2.4-3.2,3.1l0.6,0.9c1.3-0.8,2.4-1.8,3.2-3.1c0.7,1.1,1.6,2.2,2.5,3.1L220.9,22.1z M218.6,13.2c0,1.6-0.4,3.2-1,4.7
	c-0.6-1.2-1.1-2.5-1.4-3.9l0.3-0.8H218.6z M208.8,12.3h1.8v1.4h-2.5v0.9h3.5c-0.4,0.4-0.9,0.9-1.3,1.3h-1.5v0.9h0.3
	c-0.4,0.3-0.8,0.6-1.3,0.8l0.6,0.7c0.8-0.4,1.5-0.9,2.2-1.5h2.2c-0.5,0.5-0.9,0.9-1.5,1.3v1c-1.1,0.1-2.2,0.2-3.2,0.3l0.1,1
	c1-0.1,2-0.2,3.1-0.3v1.2c0.1,0.3-0.1,0.6-0.4,0.6c0,0-0.1,0-0.2,0c-0.3,0-0.7,0-1.3-0.1l0.3,0.9h1.4c0.6,0.1,1.1-0.3,1.2-0.9
	c0-0.1,0-0.2,0-0.3V20c0.8-0.1,1.7-0.3,2.5-0.5v-0.9c-0.8,0.2-1.7,0.4-2.5,0.5v-0.7c0.6-0.5,1.2-1.1,1.7-1.7V16h-2.4
	c0.4-0.4,0.7-0.8,1.1-1.3h1.8v-0.9h-1c0.6-0.8,1.1-1.7,1.6-2.6l-0.8-0.4c-0.5,1.1-1.2,2.1-1.9,3h-0.8v-1.4h1.5v-0.9h-1.5v-1.3h-1
	v1.2h-1.8L208.8,12.3L208.8,12.3z M222.1,12.3h3.7c-0.7,0.6-1.4,1.1-2.2,1.6c-0.2,0.1-0.3,0.1-0.5,0.1l0.2,0.9
	c3.9-0.1,6.9-0.3,9-0.5c0.4,0.4,0.7,0.7,1.1,1.1l0.8-0.6c-0.9-1-1.9-1.9-2.9-2.7h3.3v-1H229c-0.2-0.4-0.4-0.9-0.6-1.3l-1.2,0.2
	c0.2,0.4,0.4,0.7,0.6,1.1H222L222.1,12.3L222.1,12.3z M231.2,12.3l-0.7,0.4c0.4,0.3,0.7,0.6,1.1,1c-2,0.2-4.2,0.3-6.8,0.4
	c0.8-0.5,1.6-1.1,2.2-1.8L231.2,12.3L231.2,12.3z M231.5,18.7v1.1h-6.4v-1.1C225.2,18.7,231.5,18.7,231.5,18.7z M225.2,17.8v-1.2
	h6.4v1.2H225.2L225.2,17.8z M231.5,20.6v0.8c0,0.3-0.2,0.6-0.5,0.6c-0.1,0-0.1,0-0.2,0h-1.4l0.3,1h1.4c0.6,0.1,1.2-0.3,1.3-1
	c0-0.1,0-0.2,0-0.3v-5.9H224V23h1v-2.3L231.5,20.6L231.5,20.6z M210.6,29.5c-0.8,0-1.6,0.3-2.1,1c-0.5,0.6-0.8,1.5-0.8,2.3
	c0,0.9,0.2,1.7,0.8,2.4c0.5,0.6,1.3,0.9,2.1,0.9c0.7,0,1.4-0.2,2-0.7c0.4-0.4,0.7-0.9,0.8-1.5h-1c-0.1,0.4-0.3,0.7-0.6,1
	c-0.4,0.3-0.8,0.4-1.2,0.4c-0.5,0-1-0.2-1.4-0.6c-0.4-0.5-0.6-1-0.6-1.6h4.9c0-0.9-0.2-1.8-0.7-2.5
	C212.3,29.8,211.5,29.4,210.6,29.5L210.6,29.5L210.6,29.5z M210.7,30.3c1-0.1,1.9,0.7,2,1.7c0,0.1,0,0.2,0,0.3h-3.9
	c0-0.5,0.2-1,0.6-1.5C209.7,30.4,210.1,30.2,210.7,30.3L210.7,30.3L210.7,30.3z M219.7,30.8c-0.4-0.8-1.2-1.3-2.1-1.3
	c-0.8,0-1.6,0.3-2.1,1c-0.5,0.6-0.7,1.4-0.7,2.3c0,0.8,0.2,1.6,0.7,2.3s1.3,1,2.1,1c0.9,0,1.7-0.4,2.1-1.2v1h0.9v-8.7h-1L219.7,30.8
	L219.7,30.8z M217.8,30.3c0.5,0,1,0.2,1.4,0.7s0.5,1.1,0.5,1.8v0.1c0,0.6-0.1,1.2-0.5,1.7c-0.3,0.5-0.9,0.7-1.5,0.7
	s-1.2-0.2-1.5-0.7s-0.5-1.1-0.4-1.8c0-0.6,0.1-1.2,0.5-1.7C216.6,30.5,217.2,30.2,217.8,30.3L217.8,30.3L217.8,30.3z M222.1,33.5
	c0,1.7,0.8,2.5,2.3,2.5c0.8,0,1.6-0.4,2-1.1v1h1v-6.2h-1v3.8c-0.1,0.5-0.3,0.9-0.6,1.3c-0.3,0.3-0.7,0.5-1.1,0.5
	c-0.5,0-0.9-0.1-1.2-0.4c-0.3-0.4-0.4-0.8-0.4-1.3v-3.8h-1V33.5L222.1,33.5z M231.7,29.5c-0.8,0-1.7,0.3-2.2,1s-0.8,1.5-0.7,2.3
	c0,0.8,0.2,1.6,0.7,2.3c0.5,0.6,1.3,1,2.2,0.9c0.7,0,1.3-0.2,1.8-0.6c0.5-0.5,0.8-1.1,0.9-1.8h-1c0,0.9-0.8,1.6-1.7,1.6h-0.1
	c-0.6,0-1.1-0.2-1.4-0.7c-0.4-0.5-0.5-1.2-0.5-1.8c0-0.6,0.1-1.3,0.5-1.8c0.3-0.4,0.9-0.7,1.4-0.7c0.4,0,0.8,0.1,1.2,0.3
	c0.3,0.3,0.5,0.7,0.6,1.1h0.9c-0.1-0.7-0.4-1.3-0.9-1.7C233,29.6,232.4,29.4,231.7,29.5L231.7,29.5L231.7,29.5z M238.8,29.5
	c-0.7,0-1.3,0.1-1.8,0.5s-0.9,0.9-0.9,1.6h0.9c0-0.4,0.3-0.7,0.6-1c0.3-0.2,0.8-0.3,1.2-0.3c0.8-0.1,1.5,0.4,1.6,1.2
	c0,0.1,0,0.3,0,0.4V32h-1.5c-0.7,0-1.4,0.1-2.1,0.5c-0.6,0.3-1,1-0.9,1.7c0,0.5,0.2,1,0.6,1.3c0.4,0.3,0.9,0.5,1.5,0.5
	c0.5,0,1.1-0.1,1.5-0.4c0.4-0.2,0.7-0.5,1-0.8v1h0.9v-4c0-0.6-0.2-1.2-0.6-1.7C240.2,29.7,239.5,29.4,238.8,29.5L238.8,29.5
	L238.8,29.5z M240.3,33.3c0,0.5-0.2,1-0.6,1.3c-0.4,0.4-1,0.6-1.6,0.6c-0.3,0-0.7-0.1-0.9-0.3s-0.3-0.5-0.3-0.7
	c0-0.9,0.7-1.4,2.1-1.4h1.4L240.3,33.3L240.3,33.3z M243.8,28v1.6h-1.2v0.8h1.2v3.9c0,0.4,0.1,0.8,0.3,1.1c0.3,0.3,0.7,0.4,1.1,0.4
	h0.9V35h-0.8c-0.2,0-0.3,0-0.5-0.2c-0.1-0.1-0.2-0.3-0.1-0.5v-4h1.5v-0.8h-1.5v-2L243.8,28z M247.8,27.3c-0.2,0-0.4,0.1-0.5,0.2
	s-0.2,0.3-0.2,0.5s0.1,0.4,0.2,0.5c0.3,0.3,0.7,0.3,1,0c0.1-0.1,0.2-0.3,0.2-0.5s-0.1-0.4-0.2-0.5C248.2,27.4,248,27.3,247.8,27.3
	L247.8,27.3L247.8,27.3z M247.4,35.8h1v-6.2h-1V35.8z M252.8,29.5c-0.8,0-1.7,0.3-2.2,1c-0.5,0.6-0.8,1.5-0.8,2.3s0.3,1.7,0.8,2.3
	c0.6,0.6,1.4,1,2.2,1c0.9,0,1.7-0.3,2.2-1c1-1.4,1-3.3,0-4.6C254.5,29.8,253.7,29.4,252.8,29.5L252.8,29.5z M252.8,30.3
	c0.6,0,1.2,0.3,1.5,0.8c0.7,1,0.7,2.4,0,3.4c-0.4,0.5-0.9,0.8-1.5,0.8s-1.2-0.3-1.5-0.8c-0.7-1-0.7-2.4,0-3.4
	C251.6,30.5,252.2,30.2,252.8,30.3L252.8,30.3z M259.9,29.5c-0.4,0-0.8,0.1-1.1,0.3c-0.3,0.2-0.6,0.5-0.8,0.8v-0.9h-1v6.2h1v-3.7
	c0-0.5,0.2-1,0.6-1.3c0.6-0.6,1.7-0.6,2.3,0c0.3,0.4,0.5,0.8,0.5,1.3v3.7h1V32C262.3,30.3,261.5,29.5,259.9,29.5L259.9,29.5
	L259.9,29.5z"/>
</svg>
