<svg xmlns="http://www.w3.org/2000/svg" width="20" height="18" viewBox="0 0 20 18">
  <metadata><?xpacket begin="﻿" id="W5M0MpCehiHzreSzNTczkc9d"?>
<x:xmpmeta xmlns:x="adobe:ns:meta/" x:xmptk="Adobe XMP Core 5.6-c138 79.159824, 2016/09/14-01:09:01        ">
   <rdf:RDF xmlns:rdf="http://www.w3.org/1999/02/22-rdf-syntax-ns#">
      <rdf:Description rdf:about=""/>
   </rdf:RDF>
</x:xmpmeta>
                                                                                                    
                                                                                                    
                                                                                                    
                                                                                                    
                                                                                                    
                                                                                                    
                                                                                                    
                                                                                                    
                                                                                                    
                                                                                                    
                                                                                                    
                                                                                                    
                                                                                                    
                                                                                                    
                                                                                                    
                                                                                                    
                                                                                                    
                                                                                                    
                                                                                                    
                                                                                                    
                           
<?xpacket end="w"?></metadata>
<defs>
    <style>
      .cls-1 {
        fill: #999;
        fill-rule: evenodd;
      }
    </style>
  </defs>
  <path id="local灰色" class="cls-1" d="M718.162,2532.02l0.464,1.19a7.979,7.979,0,0,1-1.335.42l-0.255-1.26a7.436,7.436,0,0,0,1.126-.35h0Zm-3.72,1.54a5.254,5.254,0,0,0,1.433.21l0.02-1.28a4.051,4.051,0,0,1-1.107-.17Zm9.843-2.25a4.026,4.026,0,0,1,1.045.38l0.573-1.14a5.345,5.345,0,0,0-1.377-.5Zm-2.608-1.05,0.374,1.22a5.193,5.193,0,0,1,1.123-.23l-0.1-1.28a6.476,6.476,0,0,0-1.4.29h0Zm-2.007.97c-0.14.09-.278,0.17-0.414,0.25l0.609,1.12c0.152-.09.308-0.18,0.465-0.28,0.214-.14.424-0.26,0.631-0.37l-0.568-1.14a8.3,8.3,0,0,0-.723.42h0Zm3.455-8.02a3.23,3.23,0,0,1-.34,1.46L720,2530.29s-2.808-5.66-2.819-5.69a3.275,3.275,0,0,1-.306-1.39,3.126,3.126,0,1,1,6.25,0h0Zm-1.25,0a1.876,1.876,0,1,0-1.875,1.93,1.9,1.9,0,0,0,1.875-1.93h0Zm4.375,3.22h-2.932l-0.639,1.28h2.67l1.349,4.17-0.431.49a4.14,4.14,0,0,1,.7.82l0.132-.08,1.168,3.6H711.733l1.253-3.86c0.044,0.03.078,0.06,0.127,0.1l0.664-1.09a4.521,4.521,0,0,1-.379-0.28l1.253-3.87h2.671l-0.639-1.28H713.75L710,2538h20Zm0,0h0Z" transform="translate(-710 -2520)"/>
</svg>
