<svg xmlns="http://www.w3.org/2000/svg" width="50" height="50" viewBox="0 0 50 50">
  <metadata><?xpacket begin="﻿" id="W5M0MpCehiHzreSzNTczkc9d"?>
<x:xmpmeta xmlns:x="adobe:ns:meta/" x:xmptk="Adobe XMP Core 5.6-c138 79.159824, 2016/09/14-01:09:01        ">
   <rdf:RDF xmlns:rdf="http://www.w3.org/1999/02/22-rdf-syntax-ns#">
      <rdf:Description rdf:about=""/>
   </rdf:RDF>
</x:xmpmeta>
                                                                                                    
                                                                                                    
                                                                                                    
                                                                                                    
                                                                                                    
                                                                                                    
                                                                                                    
                                                                                                    
                                                                                                    
                                                                                                    
                                                                                                    
                                                                                                    
                                                                                                    
                                                                                                    
                                                                                                    
                                                                                                    
                                                                                                    
                                                                                                    
                                                                                                    
                                                                                                    
                           
<?xpacket end="w"?></metadata>
<defs>
    <style>
      .cls-1 {
        fill: #ddd;
        fill-rule: evenodd;
      }
    </style>
  </defs>
  <path id="客厅" class="cls-1" d="M1056,2679a3,3,0,0,1-2.16,2.87,1.307,1.307,0,0,1,.16.13,2.077,2.077,0,0,1-2,2h-21a2.077,2.077,0,0,1-2-2,1.307,1.307,0,0,1,.16-0.13A3,3,0,0,1,1027,2679v-6h0.35a3.446,3.446,0,0,1-.35-1.5,3.49,3.49,0,0,1,2-3.15V2664s-0.06-2,3-2c2.85,0,2.99.86,3,.99,0-.16,0-1.99,3-1.99,3.13,0,3,2,3,2h1s-0.13-2,3-2c3,0,3,1.83,3,1.99,0.01-.13.15-0.99,3-0.99,3.06,0,3,2,3,2v4.35a3.49,3.49,0,0,1,2,3.15,3.446,3.446,0,0,1-.35,1.5H1056v6Zm-25,4h21a1.033,1.033,0,0,0,1-1h-23A1.033,1.033,0,0,0,1031,2683Zm21-19a1,1,0,0,0-2,0h-3a2,2,0,0,0-4,0h-3a2,2,0,0,0-4,0h-3a1,1,0,0,0-2,0v4.05a3.492,3.492,0,0,1,3,3.45,3.446,3.446,0,0,1-.35,1.5h15.7a3.446,3.446,0,0,1-.35-1.5,3.492,3.492,0,0,1,3-3.45V2664Zm0.5,5a2.5,2.5,0,0,0-2.5,2.5,2.447,2.447,0,0,0,.51,1.5H1051v1h-19v-1h0.49a2.447,2.447,0,0,0,.51-1.5,2.5,2.5,0,0,0-5,0,2.447,2.447,0,0,0,.51,1.5H1029v6a1,1,0,0,0,1,1h23a1,1,0,0,0,1-1v-6h0.49a2.447,2.447,0,0,0,.51-1.5A2.5,2.5,0,0,0,1052.5,2669Zm-11.5,28a25,25,0,1,1,25-25A25,25,0,0,1,1041,2697Zm0-49a24,24,0,1,0,24,24A24.006,24.006,0,0,0,1041,2648Z" transform="translate(-1016 -2647)"/>
</svg>
