<svg xmlns="http://www.w3.org/2000/svg" width="50" height="50" viewBox="0 0 50 50">
  <metadata><?xpacket begin="﻿" id="W5M0MpCehiHzreSzNTczkc9d"?>
<x:xmpmeta xmlns:x="adobe:ns:meta/" x:xmptk="Adobe XMP Core 5.6-c138 79.159824, 2016/09/14-01:09:01        ">
   <rdf:RDF xmlns:rdf="http://www.w3.org/1999/02/22-rdf-syntax-ns#">
      <rdf:Description rdf:about=""/>
   </rdf:RDF>
</x:xmpmeta>
                                                                                                    
                                                                                                    
                                                                                                    
                                                                                                    
                                                                                                    
                                                                                                    
                                                                                                    
                                                                                                    
                                                                                                    
                                                                                                    
                                                                                                    
                                                                                                    
                                                                                                    
                                                                                                    
                                                                                                    
                                                                                                    
                                                                                                    
                                                                                                    
                                                                                                    
                                                                                                    
                           
<?xpacket end="w"?></metadata>
<defs>
    <style>
      .cls-1 {
        fill: #ddd;
        fill-rule: evenodd;
      }
    </style>
  </defs>
  <path id="起居室" class="cls-1" d="M1041,2697a25,25,0,1,1,25-25A25,25,0,0,1,1041,2697Zm0-49a24,24,0,1,0,24,24A24.006,24.006,0,0,0,1041,2648Zm12,35h-2v1a1,1,0,0,1-2,0v-1h-16v1a1,1,0,0,1-2,0v-1h-2a2.006,2.006,0,0,1-2-2v-6a2.006,2.006,0,0,1,2-2h24a2.006,2.006,0,0,1,2,2v6A2.006,2.006,0,0,1,1053,2683Zm0-8h-24v6h24v-6Zm-8.5-10a1.5,1.5,0,0,1,0,3h-7a1.5,1.5,0,0,1,0-3h7Zm6.5,0a4,4,0,0,0-4-4h-12a4,4,0,0,0-4,4v5h-1v-5a5,5,0,0,1,5-5h12a5,5,0,0,1,5,5v5h-1v-5Z" transform="translate(-1016 -2647)"/>
</svg>
