<?xml version="1.0" encoding="utf-8"?>
<!-- Generator: Adobe Illustrator 21.1.0, SVG Export Plug-In . SVG Version: 6.00 Build 0)  -->
<svg version="1.1" id="交通" xmlns="http://www.w3.org/2000/svg" xmlns:xlink="http://www.w3.org/1999/xlink" x="0px" y="0px"
	 viewBox="0 0 300 44" style="enable-background:new 0 0 300 44;" xml:space="preserve">
<style type="text/css">
	.st0{fill:none;}
	.st1{fill:#D2D1D1;}
	.st2{fill:#FFCB0F;}
</style>
<path id="bg" class="st0" d="M150,44H0V0h300v44H150z"/>
<path id="交通_transportation" class="st1" d="M41,24v5h-0.2c-0.2,0.5-0.4,0.9-0.8,1.2V32c0,1.1-0.9,2-2,2h-2c-1.1,0-2-0.9-2-2v-1
	H23v1c0,1.1-0.9,2-2,2h-2c-1.1,0-2-0.9-2-2v-1.8c-0.4-0.3-0.6-0.7-0.8-1.2H16v-5c-1.7-0.1-3-1-3-2s1.3-1.8,3-2v-8c0-1.7,1.3-3,3-3
	h19c1.7,0,3,1.3,3,3v8c1.7,0.1,3,1,3,2S42.7,23.8,41,24z M16,21c-1.1,0.1-2,0.5-2,1s0.9,0.9,2,1V21z M37,33c1.1,0,1-2,1-2h-2
	C36,31,35.9,33,37,33z M20,33c1.1,0,1-2,1-2h-2C19,31,18.9,33,20,33z M39,12c0-0.6-0.4-1-1-1H19c-0.6,0-1,0.4-1,1v9h21V12z M39,27
	h-4v-1h4v-3H18v3h4v1h-4v1c0,0.6,0.4,1,1,1h19c0.6,0,1-0.4,1-1V27z M41,21v2c1.1-0.1,2-0.5,2-1S42.1,21.1,41,21z M59.1,11.8h12.4v-1
	H66c-0.2-0.6-0.5-1.2-0.8-1.8l-1.1,0.2c0.3,0.5,0.6,1,0.8,1.6h-5.8V11.8L59.1,11.8z M66.9,12.8c1.4,1.1,2.7,2.4,3.8,3.8l0.7-0.7
	c-1.2-1.3-2.5-2.6-3.9-3.7L66.9,12.8z M67.7,14.8c-0.6,1.2-1.4,2.2-2.3,3.1c-1-0.8-1.8-1.9-2.4-3L62,15.4c0.7,1.2,1.5,2.3,2.5,3.2
	c-1.7,1.2-3.5,2.1-5.5,2.5l0.6,0.9c2.1-0.5,4-1.5,5.7-2.8c1.7,1.3,3.6,2.2,5.7,2.7l0.6-0.9c-2-0.5-3.9-1.3-5.5-2.5
	c1-1,1.8-2.1,2.4-3.3L67.7,14.8z M63,12.2c-1.1,1.3-2.4,2.5-3.9,3.4l0.6,0.9c1.5-1,2.8-2.2,3.9-3.6L63,12.2z M73.4,10
	c0.9,0.7,1.7,1.4,2.4,2.2l0.7-0.7c-0.7-0.8-1.6-1.5-2.4-2.2L73.4,10z M85.5,21.7l0.2-1c-0.3,0-0.8,0-1.6,0.1c-0.9,0-1.6,0-2,0
	c-0.9,0-1.8,0-2.8,0c-0.7,0-1.3-0.1-1.9-0.3c-0.4-0.2-0.8-0.5-1.1-0.9c-0.1-0.1-0.2-0.2-0.3-0.3V14h-2.9v0.9h2v4.3
	c-0.8,0.5-1.5,1.3-2,2.1l0.8,0.7c0.8-1.3,1.3-1.9,1.7-1.9c0.2,0,0.4,0.2,0.5,0.4c0.4,0.5,0.9,0.8,1.5,1c0.7,0.2,1.5,0.3,2.2,0.3
	c1.2,0,2,0,2.5,0L85.5,21.7L85.5,21.7z M79.2,11.3c0.6,0.3,1.2,0.7,1.8,1.1h-3.5v7.5h1v-2.5h2.3v2.4h0.9v-2.4h2.4v1
	c0,0.2-0.1,0.5-0.4,0.5c0,0-0.1,0-0.1,0l-1.1,0l0.2,0.9h1.2c0.5,0.1,1.1-0.3,1.2-0.8c0-0.1,0-0.2,0-0.3v-6.3h-2.8L82,12.2
	c1-0.5,1.9-1.2,2.7-1.9V9.6h-7.6v0.9h6.2c-0.6,0.5-1.3,0.9-2,1.3c-0.4-0.3-1-0.7-1.6-1.1L79.2,11.3z M80.8,15.3v1.2h-2.3v-1.2
	L80.8,15.3L80.8,15.3z M84.1,15.3v1.2h-2.3v-1.2L84.1,15.3L84.1,15.3z M81.7,14.5v-1.3h2.4v1.3H81.7L81.7,14.5z M78.4,14.5v-1.3h2.3
	v1.3H78.4L78.4,14.5z M59.8,27v1.6h-1.2v0.8h1.2v3.9c0,0.4,0.1,0.8,0.3,1.1c0.3,0.3,0.7,0.4,1.1,0.4h0.9V34h-0.8
	c-0.2,0-0.3,0-0.5-0.2c-0.1-0.1-0.2-0.3-0.1-0.5v-4h1.5v-0.8h-1.5v-2L59.8,27z M65.8,28.5c-0.4,0-0.8,0.1-1.1,0.4
	c-0.3,0.2-0.5,0.5-0.6,0.9v-1.1h-0.9v6.2H64v-3.3c0-0.5,0.2-1.1,0.5-1.5c0.3-0.4,0.7-0.6,1.2-0.6c0.3,0,0.6,0,0.9,0.1v-1
	C66.4,28.5,66.1,28.5,65.8,28.5C65.8,28.5,65.8,28.5,65.8,28.5z M69.8,28.5c-0.7,0-1.3,0.1-1.8,0.5c-0.5,0.4-0.9,0.9-0.9,1.6h0.9
	c0-0.4,0.3-0.7,0.6-1c0.3-0.2,0.8-0.3,1.2-0.3c0.8-0.1,1.5,0.4,1.6,1.2c0,0.1,0,0.3,0,0.4V31l-1.5,0c-0.7,0-1.4,0.1-2.1,0.5
	c-0.6,0.3-1,1-0.9,1.7c0,0.5,0.2,1,0.6,1.3c0.4,0.3,0.9,0.5,1.5,0.5c0.5,0,1.1-0.1,1.5-0.4c0.4-0.2,0.7-0.5,1-0.8v1h0.9v-4
	c0-0.6-0.2-1.2-0.6-1.7C71.2,28.7,70.5,28.4,69.8,28.5L69.8,28.5L69.8,28.5z M71.3,32.3c0,0.5-0.2,1-0.6,1.3c-0.4,0.4-1,0.6-1.6,0.6
	c-0.3,0-0.7-0.1-0.9-0.3c-0.2-0.2-0.3-0.5-0.3-0.7c0-0.9,0.7-1.4,2.1-1.4l1.4,0L71.3,32.3L71.3,32.3z M77,28.5
	c-0.4,0-0.8,0.1-1.1,0.3c-0.3,0.2-0.6,0.5-0.8,0.8v-0.9h-1v6.2h1v-3.7c0-0.5,0.2-1,0.6-1.3c0.6-0.6,1.7-0.6,2.3,0
	c0.3,0.4,0.5,0.8,0.5,1.3v3.7h1V31C79.3,29.3,78.5,28.5,77,28.5L77,28.5z M83.3,28.5c-0.6,0-1.2,0.1-1.7,0.5
	c-0.4,0.3-0.7,0.7-0.7,1.2c0,0.5,0.3,1,0.7,1.2c0.5,0.3,1,0.4,1.5,0.6c0.5,0.1,0.9,0.2,1.3,0.4c0.3,0.1,0.6,0.4,0.6,0.8
	c0,0.7-0.6,1.1-1.7,1.1c-0.4,0-0.8-0.1-1.2-0.3c-0.3-0.3-0.5-0.7-0.5-1.1h-0.9c0.1,1.4,1,2.1,2.7,2.1c1.8,0,2.6-0.6,2.6-1.9
	c0-0.5-0.3-1-0.7-1.3c-0.5-0.3-1-0.5-1.6-0.6c-0.4-0.1-0.9-0.2-1.3-0.4c-0.3-0.1-0.5-0.4-0.5-0.7c0-0.3,0.2-0.5,0.4-0.6
	c0.3-0.2,0.7-0.3,1-0.2c0.4,0,0.8,0.1,1.1,0.3c0.3,0.2,0.4,0.5,0.5,0.8h0.9C85.6,29.1,84.8,28.5,83.3,28.5L83.3,28.5L83.3,28.5z
	 M90,28.5c-0.9,0-1.7,0.4-2.1,1.2v-1h-0.9v8.6h1v-3.5c0.4,0.8,1.2,1.3,2.1,1.3c0.8,0,1.6-0.3,2.1-1c0.9-1.4,0.9-3.2,0-4.6
	C91.6,28.8,90.8,28.4,90,28.5L90,28.5L90,28.5z M89.9,29.3c0.6,0,1.2,0.2,1.5,0.7c0.3,0.5,0.5,1.1,0.4,1.8c0,0.6-0.1,1.2-0.5,1.8
	c-0.4,0.5-0.9,0.7-1.5,0.7c-0.5,0-1-0.2-1.4-0.7c-0.4-0.5-0.6-1.1-0.5-1.7v-0.1c0-0.6,0.1-1.2,0.5-1.7
	C88.8,29.5,89.3,29.2,89.9,29.3L89.9,29.3L89.9,29.3z M96.8,28.5c-0.8,0-1.7,0.3-2.2,1c-0.5,0.6-0.8,1.5-0.8,2.3
	c0,0.8,0.3,1.7,0.8,2.3c0.6,0.6,1.4,1,2.2,1c0.9,0,1.7-0.3,2.2-1c1-1.4,1-3.3,0-4.6C98.5,28.8,97.7,28.4,96.8,28.5L96.8,28.5z
	 M96.8,29.3c0.6,0,1.2,0.3,1.5,0.8c0.7,1,0.7,2.4,0,3.4c-0.4,0.5-0.9,0.8-1.5,0.8c-0.6,0-1.2-0.3-1.5-0.8c-0.7-1-0.7-2.4,0-3.4
	C95.6,29.5,96.2,29.2,96.8,29.3L96.8,29.3z M103.8,28.5c-0.4,0-0.8,0.1-1.1,0.4c-0.3,0.2-0.5,0.5-0.6,0.9v-1.1H101v6.2h0.9v-3.3
	c0-0.5,0.2-1.1,0.5-1.5c0.3-0.4,0.7-0.6,1.2-0.6c0.3,0,0.6,0,0.9,0.1v-1C104.4,28.5,104.1,28.5,103.8,28.5
	C103.8,28.5,103.8,28.5,103.8,28.5z M105.7,27v1.6h-1.2v0.8h1.2v3.9c0,0.4,0.1,0.8,0.3,1.1c0.3,0.3,0.7,0.4,1.1,0.4h0.9V34h-0.8
	c-0.2,0-0.3,0-0.5-0.2c-0.1-0.1-0.2-0.3-0.1-0.5v-4h1.5v-0.8h-1.5v-2L105.7,27z M111.7,28.5c-0.7,0-1.3,0.1-1.8,0.5
	c-0.5,0.4-0.9,0.9-0.9,1.6h0.9c0-0.4,0.3-0.7,0.6-1c0.3-0.2,0.8-0.3,1.2-0.3c0.8-0.1,1.5,0.4,1.6,1.2c0,0.1,0,0.3,0,0.4V31l-1.5,0
	c-0.7,0-1.4,0.1-2.1,0.5c-0.6,0.3-1,1-0.9,1.7c0,0.5,0.2,1,0.6,1.3c0.4,0.3,0.9,0.5,1.5,0.5c0.5,0,1.1-0.1,1.5-0.4
	c0.4-0.2,0.7-0.5,1-0.8v1h0.9v-4c0-0.6-0.2-1.2-0.6-1.7C113.2,28.7,112.5,28.4,111.7,28.5L111.7,28.5L111.7,28.5z M113.3,32.3
	c0,0.5-0.2,1-0.6,1.3c-0.4,0.4-1,0.6-1.6,0.6c-0.3,0-0.7-0.1-0.9-0.3c-0.2-0.2-0.3-0.5-0.3-0.7c0-0.9,0.7-1.4,2.1-1.4l1.4,0
	L113.3,32.3L113.3,32.3z M116.7,27v1.6h-1.2v0.8h1.2v3.9c0,0.4,0.1,0.8,0.3,1.1c0.3,0.3,0.7,0.4,1.1,0.4h0.9V34h-0.8
	c-0.2,0-0.3,0-0.5-0.2c-0.1-0.1-0.2-0.3-0.1-0.5v-4h1.5v-0.8h-1.5v-2L116.7,27z M120.8,26.3c-0.2,0-0.4,0.1-0.5,0.2
	c-0.1,0.1-0.2,0.3-0.2,0.5c0,0.2,0.1,0.4,0.2,0.5c0.3,0.3,0.7,0.3,1,0c0.1-0.1,0.2-0.3,0.2-0.5c0-0.2-0.1-0.4-0.2-0.5
	C121.2,26.4,121,26.3,120.8,26.3L120.8,26.3L120.8,26.3z M120.3,34.8h1v-6.2h-1V34.8z M125.8,28.5c-0.8,0-1.7,0.3-2.2,1
	c-0.5,0.6-0.8,1.5-0.8,2.3c0,0.8,0.3,1.7,0.8,2.3c0.6,0.6,1.4,1,2.2,1c0.9,0,1.7-0.3,2.2-1c1-1.4,1-3.3,0-4.6
	C127.5,28.8,126.7,28.4,125.8,28.5L125.8,28.5z M125.8,29.3c0.6,0,1.2,0.3,1.5,0.8c0.7,1,0.7,2.4,0,3.4c-0.4,0.5-0.9,0.8-1.5,0.8
	c-0.6,0-1.2-0.3-1.5-0.8c-0.7-1-0.7-2.4,0-3.4C124.6,29.5,125.2,29.2,125.8,29.3L125.8,29.3z M132.9,28.5c-0.4,0-0.8,0.1-1.1,0.3
	c-0.3,0.2-0.6,0.5-0.8,0.8v-0.9h-1v6.2h1v-3.7c0-0.5,0.2-1,0.6-1.3c0.6-0.6,1.7-0.6,2.3,0c0.3,0.4,0.5,0.8,0.5,1.3v3.7h1V31
	C135.2,29.3,134.5,28.5,132.9,28.5L132.9,28.5L132.9,28.5z"/>
<path id="交通_transportation-2" class="st2" d="M191,24v5h-0.2c-0.2,0.5-0.4,0.9-0.8,1.2V32c0,1.1-0.9,2-2,2h-2c-1.1,0-2-0.9-2-2
	v-1h-11v1c0,1.1-0.9,2-2,2h-2c-1.1,0-2-0.9-2-2v-1.8c-0.4-0.3-0.6-0.7-0.8-1.2H166v-5c-1.7-0.1-3-1-3-2s1.3-1.8,3-2v-8
	c0-1.7,1.3-3,3-3h19c1.7,0,3,1.3,3,3v8c1.7,0.1,3,1,3,2S192.7,23.8,191,24z M166,21c-1.1,0.1-2,0.5-2,1s0.9,0.9,2,1V21z M187,33
	c1.1,0,1-2,1-2h-2C186,31,185.9,33,187,33z M170,33c1.1,0,1-2,1-2h-2C169,31,168.9,33,170,33z M189,12c0-0.6-0.4-1-1-1h-19
	c-0.6,0-1,0.4-1,1v9h21V12z M189,27h-4v-1h4v-3h-21v3h4v1h-4v1c0,0.6,0.4,1,1,1h19c0.6,0,1-0.4,1-1V27z M191,21v2c1.1-0.1,2-0.5,2-1
	S192.1,21.1,191,21z M209.1,11.8h12.4v-1H216c-0.2-0.6-0.5-1.2-0.8-1.8l-1.1,0.2c0.3,0.5,0.6,1,0.8,1.6h-5.8V11.8L209.1,11.8z
	 M216.9,12.8c1.4,1.1,2.7,2.4,3.8,3.8l0.7-0.7c-1.2-1.3-2.5-2.6-3.9-3.7L216.9,12.8z M217.7,14.8c-0.6,1.2-1.4,2.2-2.3,3.1
	c-1-0.8-1.8-1.9-2.4-3l-0.9,0.5c0.7,1.2,1.5,2.3,2.5,3.2c-1.7,1.2-3.5,2.1-5.5,2.5l0.6,0.9c2.1-0.5,4-1.5,5.7-2.8
	c1.7,1.3,3.6,2.2,5.7,2.7l0.6-0.9c-2-0.5-3.9-1.3-5.5-2.5c1-1,1.8-2.1,2.4-3.3L217.7,14.8z M213,12.2c-1.1,1.3-2.4,2.5-3.9,3.4
	l0.6,0.9c1.5-1,2.8-2.2,3.9-3.6L213,12.2z M223.4,10c0.9,0.7,1.7,1.4,2.4,2.2l0.7-0.7c-0.7-0.8-1.6-1.5-2.4-2.2L223.4,10z
	 M235.5,21.7l0.2-1c-0.3,0-0.8,0-1.6,0.1c-0.9,0-1.6,0-2,0c-0.9,0-1.8,0-2.8,0c-0.7,0-1.3-0.1-1.9-0.3c-0.4-0.2-0.8-0.5-1.1-0.9
	c-0.1-0.1-0.2-0.2-0.4-0.3V14h-2.9v0.9h2v4.3c-0.8,0.5-1.5,1.3-2,2.1l0.8,0.7c0.8-1.3,1.3-1.9,1.7-1.9c0.2,0,0.4,0.2,0.5,0.4
	c0.4,0.5,0.9,0.8,1.5,1c0.7,0.2,1.5,0.3,2.2,0.3c1.2,0,2,0,2.5,0L235.5,21.7L235.5,21.7z M229.2,11.3c0.6,0.3,1.2,0.7,1.8,1.1h-3.5
	v7.5h1v-2.5h2.3v2.4h0.9v-2.4h2.4v1c0,0.2-0.1,0.5-0.4,0.5c0,0-0.1,0-0.1,0l-1.1,0l0.2,0.9h1.2c0.5,0.1,1.1-0.3,1.2-0.8
	c0-0.1,0-0.2,0-0.3v-6.3h-2.8l-0.2-0.2c1-0.5,1.9-1.2,2.7-1.9V9.6h-7.6v0.9h6.2c-0.6,0.5-1.3,0.9-2,1.3c-0.4-0.3-1-0.7-1.6-1.1
	L229.2,11.3z M230.8,15.3v1.2h-2.3v-1.2L230.8,15.3L230.8,15.3z M234.1,15.3v1.2h-2.3v-1.2L234.1,15.3L234.1,15.3z M231.7,14.5v-1.3
	h2.4v1.3H231.7L231.7,14.5z M228.4,14.5v-1.3h2.3v1.3H228.4z M209.8,27v1.6h-1.2v0.8h1.2v3.9c0,0.4,0.1,0.8,0.3,1.1
	c0.3,0.3,0.7,0.4,1.1,0.4h0.9V34h-0.8c-0.2,0-0.3,0-0.5-0.2c-0.1-0.1-0.2-0.3-0.1-0.5v-4h1.5v-0.8h-1.5v-2L209.8,27z M215.8,28.5
	c-0.4,0-0.8,0.1-1.1,0.4c-0.3,0.2-0.5,0.5-0.6,0.9v-1.1h-0.9v6.2h0.9v-3.3c0-0.5,0.2-1.1,0.5-1.5c0.3-0.4,0.7-0.6,1.2-0.6
	c0.3,0,0.6,0,0.9,0.1v-1C216.4,28.5,216.1,28.5,215.8,28.5C215.8,28.5,215.8,28.5,215.8,28.5z M219.8,28.5c-0.7,0-1.3,0.1-1.8,0.5
	c-0.5,0.4-0.9,0.9-0.9,1.6h0.9c0-0.4,0.3-0.7,0.6-1c0.3-0.2,0.8-0.3,1.2-0.3c0.8-0.1,1.5,0.4,1.6,1.2c0,0.1,0,0.3,0,0.4V31l-1.5,0
	c-0.7,0-1.4,0.1-2.1,0.5c-0.6,0.3-1,1-0.9,1.7c0,0.5,0.2,1,0.6,1.3c0.4,0.3,0.9,0.5,1.5,0.5c0.5,0,1.1-0.1,1.5-0.4
	c0.4-0.2,0.7-0.5,1-0.8v1h0.9v-4c0-0.6-0.2-1.2-0.6-1.7C221.2,28.7,220.5,28.4,219.8,28.5L219.8,28.5L219.8,28.5z M221.3,32.3
	c0,0.5-0.2,1-0.6,1.3c-0.4,0.4-1,0.6-1.6,0.6c-0.3,0-0.7-0.1-0.9-0.3c-0.2-0.2-0.3-0.5-0.3-0.7c0-0.9,0.7-1.4,2.1-1.4l1.4,0
	L221.3,32.3L221.3,32.3z M227,28.5c-0.4,0-0.8,0.1-1.1,0.3c-0.3,0.2-0.6,0.5-0.8,0.8v-0.9h-1v6.2h1v-3.7c0-0.5,0.2-1,0.6-1.3
	c0.6-0.6,1.7-0.6,2.3,0c0.3,0.4,0.5,0.8,0.5,1.3v3.7h1V31C229.3,29.3,228.5,28.5,227,28.5L227,28.5L227,28.5z M233.2,28.5
	c-0.6,0-1.2,0.1-1.7,0.5c-0.4,0.3-0.7,0.7-0.7,1.2c0,0.5,0.3,1,0.7,1.2c0.5,0.3,1,0.4,1.5,0.6c0.5,0.1,0.9,0.2,1.3,0.4
	c0.3,0.1,0.6,0.4,0.6,0.8c0,0.7-0.6,1.1-1.7,1.1c-0.4,0-0.8-0.1-1.2-0.3c-0.3-0.3-0.5-0.7-0.5-1.1h-0.9c0.1,1.4,1,2.1,2.7,2.1
	c1.8,0,2.6-0.6,2.6-1.9c0-0.5-0.3-1-0.7-1.3c-0.5-0.3-1-0.5-1.6-0.6c-0.4-0.1-0.9-0.2-1.3-0.4c-0.3-0.1-0.5-0.4-0.5-0.7
	c0-0.3,0.2-0.5,0.4-0.6c0.3-0.2,0.7-0.3,1-0.2c0.4,0,0.8,0.1,1.1,0.3c0.3,0.2,0.4,0.5,0.5,0.8h0.9C235.6,29.1,234.8,28.5,233.2,28.5
	L233.2,28.5L233.2,28.5z M240,28.5c-0.9,0-1.7,0.4-2.1,1.2v-1h-0.9v8.6h1v-3.5c0.4,0.8,1.2,1.3,2.1,1.3c0.8,0,1.6-0.3,2.1-1
	c0.9-1.4,0.9-3.2,0-4.6C241.6,28.8,240.8,28.4,240,28.5L240,28.5L240,28.5z M239.9,29.3c0.6,0,1.2,0.2,1.5,0.7
	c0.3,0.5,0.5,1.1,0.4,1.8c0,0.6-0.1,1.2-0.5,1.8c-0.4,0.5-0.9,0.7-1.5,0.7c-0.5,0-1-0.2-1.4-0.7c-0.4-0.5-0.6-1.1-0.5-1.7v-0.1
	c0-0.6,0.1-1.2,0.5-1.7C238.8,29.5,239.3,29.2,239.9,29.3L239.9,29.3L239.9,29.3z M246.8,28.5c-0.8,0-1.7,0.3-2.2,1
	c-0.5,0.6-0.8,1.5-0.8,2.3c0,0.8,0.3,1.7,0.8,2.3c0.6,0.6,1.4,1,2.2,1c0.9,0,1.7-0.3,2.2-1c1-1.4,1-3.3,0-4.6
	C248.5,28.8,247.7,28.4,246.8,28.5L246.8,28.5z M246.8,29.3c0.6,0,1.2,0.3,1.5,0.8c0.7,1,0.7,2.4,0,3.4c-0.4,0.5-0.9,0.8-1.5,0.8
	c-0.6,0-1.2-0.3-1.5-0.8c-0.7-1-0.7-2.4,0-3.4C245.6,29.5,246.2,29.2,246.8,29.3L246.8,29.3z M253.8,28.5c-0.4,0-0.8,0.1-1.1,0.4
	c-0.3,0.2-0.5,0.5-0.6,0.9v-1.1H251v6.2h0.9v-3.3c0-0.5,0.2-1.1,0.5-1.5c0.3-0.4,0.7-0.6,1.2-0.6c0.3,0,0.6,0,0.9,0.1v-1
	C254.4,28.5,254.1,28.5,253.8,28.5C253.8,28.5,253.8,28.5,253.8,28.5z M255.7,27v1.6h-1.2v0.8h1.2v3.9c0,0.4,0.1,0.8,0.3,1.1
	c0.3,0.3,0.7,0.4,1.1,0.4h0.9V34h-0.8c-0.2,0-0.3,0-0.5-0.2c-0.1-0.1-0.2-0.3-0.1-0.5v-4h1.5v-0.8h-1.5v-2L255.7,27z M261.7,28.5
	c-0.7,0-1.3,0.1-1.8,0.5c-0.5,0.4-0.9,0.9-0.9,1.6h0.9c0-0.4,0.3-0.7,0.6-1c0.3-0.2,0.8-0.3,1.2-0.3c0.8-0.1,1.5,0.4,1.6,1.2
	c0,0.1,0,0.3,0,0.4V31l-1.5,0c-0.7,0-1.4,0.1-2.1,0.5c-0.6,0.3-1,1-0.9,1.7c0,0.5,0.2,1,0.6,1.3c0.4,0.3,0.9,0.5,1.5,0.5
	c0.5,0,1.1-0.1,1.5-0.4c0.4-0.2,0.7-0.5,1-0.8v1h0.9v-4c0-0.6-0.2-1.2-0.6-1.7C263.2,28.7,262.5,28.4,261.7,28.5L261.7,28.5
	L261.7,28.5z M263.3,32.3c0,0.5-0.2,1-0.6,1.3c-0.4,0.4-1,0.6-1.6,0.6c-0.3,0-0.7-0.1-0.9-0.3c-0.2-0.2-0.3-0.5-0.3-0.7
	c0-0.9,0.7-1.4,2.1-1.4l1.4,0L263.3,32.3L263.3,32.3z M266.7,27v1.6h-1.2v0.8h1.2v3.9c0,0.4,0.1,0.8,0.3,1.1
	c0.3,0.3,0.7,0.4,1.1,0.4h0.9V34h-0.8c-0.2,0-0.3,0-0.5-0.2c-0.1-0.1-0.2-0.3-0.1-0.5v-4h1.5v-0.8h-1.5v-2L266.7,27z M270.8,26.3
	c-0.2,0-0.4,0.1-0.5,0.2c-0.1,0.1-0.2,0.3-0.2,0.5c0,0.2,0.1,0.4,0.2,0.5c0.3,0.3,0.7,0.3,1,0c0.1-0.1,0.2-0.3,0.2-0.5
	c0-0.2-0.1-0.4-0.2-0.5C271.2,26.4,271,26.3,270.8,26.3L270.8,26.3L270.8,26.3z M270.3,34.8h1v-6.2h-1V34.8z M275.8,28.5
	c-0.8,0-1.7,0.3-2.2,1c-0.5,0.6-0.8,1.5-0.8,2.3c0,0.8,0.3,1.7,0.8,2.3c0.6,0.6,1.4,1,2.2,1c0.9,0,1.7-0.3,2.2-1c1-1.4,1-3.3,0-4.6
	C277.5,28.8,276.7,28.4,275.8,28.5L275.8,28.5z M275.8,29.3c0.6,0,1.2,0.3,1.5,0.8c0.7,1,0.7,2.4,0,3.4c-0.4,0.5-0.9,0.8-1.5,0.8
	c-0.6,0-1.2-0.3-1.5-0.8c-0.7-1-0.7-2.4,0-3.4C274.6,29.5,275.2,29.2,275.8,29.3L275.8,29.3z M282.9,28.5c-0.4,0-0.8,0.1-1.1,0.3
	c-0.3,0.2-0.6,0.5-0.8,0.8v-0.9h-1v6.2h1v-3.7c0-0.5,0.2-1,0.6-1.3c0.6-0.6,1.7-0.6,2.3,0c0.3,0.4,0.5,0.8,0.5,1.3v3.7h1V31
	C285.2,29.3,284.5,28.5,282.9,28.5L282.9,28.5L282.9,28.5z"/>
</svg>
